<svg viewBox="0 0 2475 1650" xmlns="http://www.w3.org/2000/svg" xmlns:xlink="http://www.w3.org/1999/xlink"><linearGradient id="a" gradientUnits="userSpaceOnUse" x1="2748.02" x2="2519.99" y1="100.02" y2="307.04"><stop offset="0" stop-color="#5300aa"/><stop offset=".4" stop-color="#670e7c"/></linearGradient><linearGradient id="b" gradientUnits="userSpaceOnUse" x1="1573.84" x2="1811.53" y1="578.36" y2="578.36"><stop offset="0" stop-color="#eec7f4"/><stop offset="1" stop-color="#eee1f4"/></linearGradient><linearGradient id="c" x1="1861.23" x2="2098.91" xlink:href="#b" y1="578.36" y2="578.36"/><linearGradient id="d" x1="1573.84" x2="1811.53" xlink:href="#b" y1="807.42" y2="807.42"/><linearGradient id="e" x1="1861.23" x2="2098.91" xlink:href="#b" y1="807.42" y2="807.42"/><linearGradient id="f" x1="1566.08" x2="2097.94" xlink:href="#b" y1="988.91" y2="988.91"/><linearGradient id="g" x1="1566.08" x2="2097.94" xlink:href="#b" y1="1035.5" y2="1035.5"/><linearGradient id="h" x1="1566.08" x2="2097.94" xlink:href="#b" y1="1082.08" y2="1082.08"/><linearGradient id="i" x1="1741.75" x2="2097.94" xlink:href="#b" y1="1159.33" y2="1159.33"/><linearGradient id="j" x1="1741.75" x2="2097.94" xlink:href="#b" y1="1188.36" y2="1188.36"/><linearGradient id="k" x1="1741.75" x2="2097.94" xlink:href="#b" y1="1217.39" y2="1217.39"/><linearGradient id="l" gradientUnits="userSpaceOnUse" x1="773.22" x2="662.21" y1="-109.21" y2="304.83"><stop offset="0" stop-color="#5300aa"/><stop offset=".4" stop-color="#a100bf"/></linearGradient><linearGradient id="m" x1="997.81" x2="1445.24" xlink:href="#l" y1="822.24" y2="-217.72"/><linearGradient id="n" x1="1083.72" x2="1434.25" xlink:href="#l" y1="1671.16" y2="1492.09"/><linearGradient id="o" gradientTransform="translate(-267.92)" gradientUnits="userSpaceOnUse" x1="1080.12" x2="1196.04" y1="1376.96" y2="1078.54"><stop offset="0" stop-color="#ff928e"/><stop offset="1" stop-color="#feb3b1"/></linearGradient><linearGradient id="p" x1="1225.69" x2="1022.52" xlink:href="#o" y1="1147.54" y2="1266.74"/><linearGradient id="q" x1="1035.45" x2="1084.58" xlink:href="#o" y1="1068.5" y2="1068.5"/><linearGradient id="r" gradientTransform="matrix(-1 0 0 1 -1277.88 0)" gradientUnits="userSpaceOnUse" x1="-2134.03" x2="-2136.74" y1="1301.12" y2="1441.09"><stop offset="0" stop-color="#a737d5"/><stop offset="1" stop-color="#ef497a"/></linearGradient><linearGradient id="s" gradientTransform="matrix(-.92 -.39 -.39 .92 -2162.17 -351.84)" x1="-3433.99" x2="-3436.7" xlink:href="#r" y1="65.75" y2="205.72"/><linearGradient id="t" gradientUnits="userSpaceOnUse" x1="904.58" x2="593.02" y1="1150.38" y2="1387"><stop offset="0" stop-color="#2b3582"/><stop offset="1" stop-color="#150e42"/></linearGradient><linearGradient id="u" x1="1089.11" x2="1124" xlink:href="#o" y1="941.15" y2="941.15"/><linearGradient id="v" gradientUnits="userSpaceOnUse" x1="884.06" x2="699.26" y1="978.96" y2="1216.03"><stop offset="0" stop-color="#cb236d"/><stop offset="1" stop-color="#4c246d"/></linearGradient><linearGradient id="w" x1="1214.32" x2="1178.2" xlink:href="#o" y1="980.14" y2="1057.8"/><linearGradient id="x" x1="1286.37" x2="1250.25" xlink:href="#o" y1="1013.65" y2="1091.31"/><linearGradient id="y" x1="1147.23" x2="1079.42" xlink:href="#o" y1="941.13" y2="841.97"/><linearGradient id="z" gradientTransform="matrix(-1 0 0 1 284.84 0)" x1="-482.46" x2="-486.93" xlink:href="#t" y1="939.05" y2="1155.68"/><path d="m2378.89 413.73c-58-117.57-185.42-206-309.41-178.86-74.25 16.25-148 70.73-219.23 43.38-51.31-19.72-80.27-75.63-123.4-110.71-66.38-54-160.61-53.37-241.51-29.18s-155 68.69-234.89 96.19c-136.22 46.87-288.25 41.79-421.31-14.1-58.41-24.54-113.09-58.4-172.55-80s-126.91-30-184.31-3-98.59 97.67-78.67 160c4 12.43 10.2 24.68 9.39 37.76-1.31 21-20.71 36.33-40.34 41s-40.09 1.62-60.21 2.15c-90.31 2.39-171 88.4-171.45 182.71-.35 78.2 45.85 146.92 85.35 213.38s75 146.18 51.47 220.43c-13.95 44-46.68 78.47-68.13 119.09-55.59 105.29-25.87 244.68 51.76 333.49s193.89 132.27 308.63 142.61 229.81-9.08 343.5-28.27 228.86-38.29 343.54-27.29l-6.16-3.5a1794.38 1794.38 0 0 0 687.32 40.69c47.91-6.49 102.92-20.43 123.17-66.22 17.1-38.67 1.74-84 5.26-126.41 5.07-61.14 49-111.23 96.94-146.77s102.29-62 145.46-103.66c84.46-81.48 113.12-207.59 125.71-326.92 13.87-131.41 12.08-270.42-45.93-387.99z" fill="#f2e0fd"/><path d="m2187.44 1504.28h-697.58a46.38 46.38 0 0 1 -46.38-46.07l-7.15-1058a46.38 46.38 0 0 1 44.67-46.72l704.73-25.72a46.39 46.39 0 0 1 48.07 46.36v1083.76a46.38 46.38 0 0 1 -46.36 46.39z" fill="url(#a)"/><rect fill="#fff" height="1054.03" rx="17.06" width="650.27" x="1505.9" y="413.37"/><path d="m1862 382.31h-108.47a8.87 8.87 0 0 1 -8.87-8.87 8.86 8.86 0 0 1 8.6-8.86l108.43-3.34a8.87 8.87 0 0 1 9.14 8.87v3.33a8.87 8.87 0 0 1 -8.83 8.87z" fill="#510663"/><rect fill="url(#b)" height="194.11" rx="8.75" width="237.69" x="1573.84" y="481.31"/><rect fill="url(#c)" height="194.11" rx="8.75" width="237.69" x="1861.23" y="481.31"/><rect fill="url(#d)" height="194.11" rx="8.75" width="237.69" x="1573.84" y="710.36"/><rect fill="url(#e)" height="194.11" rx="8.75" width="237.69" x="1861.23" y="710.36"/><path d="m2081.44 1005.41h-498.86a16.5 16.5 0 0 1 -16.5-16.5 16.5 16.5 0 0 1 16.5-16.5h498.86a16.5 16.5 0 0 1 16.5 16.5 16.5 16.5 0 0 1 -16.5 16.5z" fill="url(#f)"/><path d="m2081.44 1052h-498.86a16.5 16.5 0 0 1 -16.5-16.5 16.5 16.5 0 0 1 16.5-16.5h498.86a16.5 16.5 0 0 1 16.5 16.5 16.5 16.5 0 0 1 -16.5 16.5z" fill="url(#g)"/><path d="m2081.44 1098.58h-498.86a16.5 16.5 0 0 1 -16.5-16.5 16.5 16.5 0 0 1 16.5-16.5h498.86a16.5 16.5 0 0 1 16.5 16.5 16.49 16.49 0 0 1 -16.5 16.5z" fill="url(#h)"/><path d="m1741.75 1149.05h356.19v20.56h-356.19z" fill="url(#i)"/><path d="m1741.75 1178.08h356.19v20.56h-356.19z" fill="url(#j)"/><path d="m1741.75 1207.11h356.19v20.56h-356.19z" fill="url(#k)"/><path d="m2198.88 778.3a1.94 1.94 0 0 1 -1.94-1.94v-382.22a33.09 33.09 0 0 0 -35-33l-168.76 9.55a1.94 1.94 0 0 1 -.22-3.87l168.76-9.56a37 37 0 0 1 39.05 36.91v382.19a1.94 1.94 0 0 1 -1.89 1.94z" fill="#7d97f4"/><path d="m1025.21 604.13-844.07 13.07a33.72 33.72 0 0 1 -34.14-36.9c3.53-35.42 21.43-83.88 92.1-88.76 112.54-7.76 786.11 112.59 786.11 112.59z" fill="url(#l)"/><path d="m1116.44 488.59-877.38 3.89s120.35-17.48 192.17 194.11 139.37 795.65 488.77 836.41 433.26-83.26 433.26-83.26h279.52s-166.94-85.41-234.88-401.81-118.4-533.81-281.46-549.34z" fill="url(#m)"/><path d="m413.81 529.85a10.19 10.19 0 0 1 8-16.69l679.13 7.5s106.76 0 207.7 372.7 130.06 485.27 271.76 566.8l-488.4 57.84s-251.2 33.39-404.55-228.66c-147.58-252.19-145.94-606.86-273.64-759.49z" fill="#eee1f4"/><g fill="#fff"><path d="m1107 582.78h-573.14a12.59 12.59 0 0 1 -11.08-6.62v-.07a12.59 12.59 0 0 1 11.08-18.55h573.14a12.57 12.57 0 0 1 11.08 6.62v.07a12.59 12.59 0 0 1 -11.08 18.55z"/><path d="m1128.37 644.89h-573.16a12.58 12.58 0 0 1 -11.08-6.62v-.06a12.58 12.58 0 0 1 11.08-18.55h573.16a12.58 12.58 0 0 1 11.08 6.62v.06a12.58 12.58 0 0 1 -11.08 18.55z"/><path d="m953.56 708.85-377-1.81a12.59 12.59 0 0 1 -11-6.61 12.59 12.59 0 0 1 11.14-18.56l377 1.81a12.59 12.59 0 0 1 11 6.62 12.59 12.59 0 0 1 -11.14 18.55z"/></g><path d="m1236.61 1316 812.88-14.55a29.52 29.52 0 0 1 30 29.81c-.36 45.75-16.38 131.5-123.7 173.26a268.75 268.75 0 0 1 -95.17 18l-766.62 6.48s93.93-26 113.66-186.79a29.74 29.74 0 0 1 28.95-26.21z" fill="url(#n)"/><path d="m2021.18 1373a15.09 15.09 0 0 0 -14.18-21l-729.88 16.67a15.17 15.17 0 0 0 -14.57 12.88c-9.19 56.78-68.69 116.25-98.54 146.49l687-5c108.7-41.83 154.8-114.25 170.17-150.04z" fill="#eee1f4"/><path d="m664.57 1345.51 672-567.73c-40.53-143.56-88.69-242.69-170.32-276.9l-656.35 478.23c35.58 127.01 82.65 263.06 154.67 366.4z" fill="#fff" opacity=".32"/><path d="m1356.24 852.82-645.87 549.9c22.3 24 46.63 45 73.24 62.2l602-483.79c-9.84-45.22-19.5-88.13-29.37-128.31z" fill="#fff" opacity=".32"/><path d="m847.45 1250.83-41.06 10.27 10.27 77s-15.4 15.4-20.53 35.93-9.87 106.73-9.87 106.73l-9.74 5.89-1.18 4.92 28.34 38.11-4.7-30.33c-.75-4.82.55-14.58.14-14.79 15.4-41.06 48.33-156.72 48.33-156.72z" fill="url(#o)"/><path d="m859.45 1492.08c-.44 0-.88 0-1.33 0 2-24.75 11-133.69 20.13-174.53 10.26-46.19-15.4-138.57-15.4-138.57l-46.19 46.19 25.66 87.25c-17.59 26.38 2.87 180.87 2.43 180.8v.34l-6.7 9.21.81 5 40.91 24.14-16.09-26.14a29.32 29.32 0 0 1 -4.23-13.69z" fill="url(#p)"/><path d="m807.49 974.11s-89.93 124.8 0 188.78l9.17-8.16s-44.65-52.65 0-117.09z" fill="url(#q)"/><path d="m882.49 1535.69h-13a7.89 7.89 0 0 1 -6.24-3.06c-4.07-5.29-12.5-15.61-16.53-15.88-5.43-.36-4.73 18.94-4.73 18.94h-3.05l-3.85-24a14.18 14.18 0 0 1 7.45-14.83s1.24 9.17 8 13.23 27.37 18.59 27.37 18.59a18.73 18.73 0 0 1 5.31.14c4.04.77 3.46 6.87-.73 6.87z" fill="url(#r)"/><path d="m804.7 1534.2-12-5.06a7.87 7.87 0 0 1 -4.56-5.24c-1.7-6.45-5.47-19.23-9.08-21.05-4.87-2.43-11.71 15.62-11.71 15.62l-2.8-1.18 5.74-23.59a14.21 14.21 0 0 1 12.62-10.79s-2.41 8.94 2.21 15.29 18 27.75 18 27.75a18.62 18.62 0 0 1 4.83 2.19c3.5 2.28.6 7.68-3.25 6.06z" fill="url(#s)"/><path d="m874.61 1100.87s-1.51 9.25.71 34.69 12.78 85.14 10.68 142.27c0 0-30.06 7-82.27 3.69 0 0-22-89.2-16.67-123.11s34.49-58.24 34.49-58.24z" fill="url(#t)"/><path d="m852.41 930.92 3.67 43.19h-34.9l8.68-65.93z" fill="url(#u)"/><path d="m810.85 968.14c12-.67 39-1.9 58-.85a22.16 22.16 0 0 1 20.52 17.6l4.65 22.29a53.76 53.76 0 0 1 -.76 25.09l-18.69 68.6s-16.62 10-53.11-.7c0 0-32-76.42-18.93-125.3a9.09 9.09 0 0 1 8.32-6.73z" fill="url(#v)"/><path d="m888.49 980.88c5.14 13.55 9.79 27.74 14.77 41 2.54 6.66 5.11 13.18 7.86 19.17 1.4 3 2.93 5.73 4.33 8.22a36.7 36.7 0 0 0 3.81 5.45c.16.14-.38.24-.56.25s3.47.59 4.57.77h4.3a150.17 150.17 0 0 0 20.13-2.74c14.11-2.63 28.78-6.33 43.84-9.12h.11a5.31 5.31 0 0 1 4.48 9.2 153 153 0 0 1 -19.19 14q-5 3.09-10.26 6c-3.54 1.8-7.1 3.63-10.79 5.31a125.3 125.3 0 0 1 -24 8.14c-2.32.39-4.62.8-7 1.12-2.68.09-5.12.33-8 .16q-2.34-.24-4.68-.57a23.87 23.87 0 0 1 -2.45-.44c-1.07-.33-2.13-.68-3.18-1.08a32.93 32.93 0 0 1 -5.41-2.74c-1.48-1-2.83-2-4.14-3a56.17 56.17 0 0 1 -10.49-12.13 96.88 96.88 0 0 1 -6.61-11.71 160.57 160.57 0 0 1 -9.09-23 214 214 0 0 1 -9.5-46.54 14 14 0 0 1 27-6.18z" fill="url(#w)"/><path d="m986.8 1050.78 6.2-14.78 32.78-8.17s2.62 5.68-11.14 8.17c0 0 4.91 5.43 2.29 11.82s-30.46 12.8-30.13 2.96z" fill="url(#x)"/><path d="m867.18 881c1.25.73 11.07 35.36 2.84 49.88s-33.35-1.74-40.16-22.74 4.14-46.68 37.32-27.14z" fill="url(#y)"/><path d="m802.07 908.18c-5.64 27.61-24.31 20.06-37.53 32.34-21.44 19.91-52.1-.61-81.91 18.25-21.52 13.62-31.89 48.47-21.56 76.6 14.3 39 63.18 55 88.51 43.12 24.21-11.34 20.77-45.31 53.34-58.44 13.83-5.57 20.65-1.95 28.94-10.21 14.49-14.46 10.58-42.53 9.07-53.34-3.27-23.46-11.13-27.7-7.37-38 7.31-20.06 41.41-15.92 44.26-30.07 2.58-12.9-22.14-37.33-45.4-33.48-35.99 5.95-27.84 40.93-30.35 53.23z" fill="url(#z)"/><path d="m671.82 1028.77a1 1 0 0 1 -.92-.72c-4.61-19.13-2.52-34.82 6.22-46.63 14.49-19.6 42.66-21.54 42.94-21.56a1 1 0 0 1 1 .88.94.94 0 0 1 -.88 1c-.28 0-27.59 1.91-41.55 20.81-8.39 11.34-10.37 26.5-5.9 45.06a.94.94 0 0 1 -.69 1.14z" fill="#91b3fa"/><path d="m764.08 1046.28h-.08a.48.48 0 0 1 -.34-.58c4.49-17.22 12.37-29.18 23.41-35.55 8-4.63 15.55-5.06 22.19-5.44 6.4-.37 11.92-.69 16.37-4.64 9.2-8.18 8.66-27.84-1.58-58.43a.47.47 0 0 1 .3-.6.46.46 0 0 1 .59.3c10.38 31 10.82 51 1.32 59.43-4.69 4.17-10.37 4.5-17 4.88s-13.93.8-21.77 5.32c-10.82 6.24-18.54 18-23 35a.46.46 0 0 1 -.41.31z" fill="#91b3fa"/><path d="m815.4 901.33h-.15a.48.48 0 0 1 -.3-.6c3.57-10.62 13.85-9 24.74-7.36 6.9 1.06 14 2.15 20.07.36 4.51-1.34 7.19-3.41 8-6.16 1.33-4.69-3.31-9.91-3.35-10a.47.47 0 1 1 .7-.63c.2.23 5 5.65 3.56 10.84-.87 3.08-3.76 5.37-8.6 6.81-6.25 1.85-13.48.74-20.48-.33-10.93-1.68-20.39-3.14-23.7 6.73a.47.47 0 0 1 -.49.34z" fill="#91b3fa"/></svg>