<svg viewBox="0 0 1092.77 1121.36" xmlns="http://www.w3.org/2000/svg"><rect fill="#b4f9cc" height="1121.36" rx="249.19" width="1092.77"/><path d="m733.05 360.68a53.34 53.34 0 0 0 -106.67 0z" fill="#ffdd09"/><path d="m399.72 547.35c-2.67 0-5.34 0-6.67 1.33-9.33-16-26.67-28-46.67-28-26.66 0-49.33 20-52 45.33-10.66-10.66-25.33-18.66-41.33-18.66a53.49 53.49 0 0 0 -53.33 53.33h253.33a53.49 53.49 0 0 0 -53.33-53.33" fill="#54c9fd"/><path d="m906.38 654h-720a26.67 26.67 0 0 1 0-53.33h720a26.67 26.67 0 1 1 0 53.33" fill="#ffdd09"/><path d="m493.05 654h386.67l-38.67 153.35a79.69 79.69 0 0 1 -77.33 60h-154.67c-37.33 0-69.33-25.34-77.33-60z" fill="#fd9808"/><path d="m213.05 654h386.67l-38.67 153.35a79.69 79.69 0 0 1 -77.33 60h-154.67c-37.33 0-69.33-25.34-77.33-60z" fill="#fff"/><path d="m253.05 654h586.67l-33.34 153.35c-8 36-36 60-68 60h-382.66c-32 0-60-25.33-68-60z" fill="#ffdd09"/><path d="m906.38 667.35h-720c-22.66 0-40-17.33-40-40s17.34-40 40-40h720c22.67 0 40 17.33 40 40s-17.33 40-40 40zm-720-53.35c-8 0-13.33 5.34-13.33 13.34s5.33 13.33 13.33 13.33h720c8 0 13.34-5.33 13.34-13.33s-5.34-13.34-13.34-13.34z"/><path d="m763.72 880.68h-434.67c-42.67 0-80-29.33-90.67-70.67l-38.66-153.33c-1.34-4 0-8 2.66-12a15.14 15.14 0 0 1 10.67-4h666.67c4 0 8 1.33 10.66 5.33a12.79 12.79 0 0 1 2.67 12l-38.67 153.34c-10.66 40-48 69.33-90.66 69.33zm-533.34-213.33 34.67 136c8 29.33 34.67 50.67 65.33 50.67h434.67c30.67 0 57.33-21.34 65.33-50.67l32-136z"/><path d="m333.05 934c-1.33 0-4 0-5.33-1.33-6.67-2.67-9.34-10.67-5.34-17.33l26.67-53.34c2.67-6.67 10.67-9.34 17.33-5.34 6.67 2.67 9.34 10.67 5.34 17.34l-26.67 53.33a14 14 0 0 1 -12 6.67z"/><path d="m773.05 934q-8 0-12-8l-26.67-53.33c-2.66-6.67 0-14.67 5.34-17.33 6.66-2.67 14.66 0 17.33 5.33l26.67 53.33c2.66 6.67 0 14.67-5.34 17.34-1.33 2.66-2.66 2.66-5.33 2.66z"/><path d="m453.05 614h-253.33c-8 0-13.34-5.33-13.34-13.33 0-37.33 29.34-66.67 66.67-66.67 12 0 24 4 34.67 9.34a65.89 65.89 0 0 1 58.66-36c21.34 0 40 10.66 53.34 26.66 37.33 0 66.66 29.34 66.66 66.67 0 8.01-5.33 13.33-13.33 13.33zm-237.33-26.65h222.66a38.84 38.84 0 0 0 -37.33-26.67h-4a13.41 13.41 0 0 1 -14.67-6.68c-6.66-13.33-20-20-34.66-20-20 0-36 14.67-40 34.67-1.34 5.33-4 9.33-9.34 10.67s-10.66 0-13.33-4c-9.33-9.33-20-14.67-32-14.67a38.84 38.84 0 0 0 -37.33 26.68z"/><path d="m893.05 600.68h-26.67v-293.33a92.75 92.75 0 0 0 -93.33-93.35c-54.67 0-80 46.66-80 93.33h-26.67c0-70.67 44-120 106.67-120a119.5 119.5 0 0 1 120 120z"/><path d="m626.38 434c-8 0-13.33-5.33-13.33-13.33v-6.67c0-8 5.33-13.33 13.33-13.33s13.34 5.33 13.34 13.33v6.67c0 8.01-5.34 13.33-13.34 13.33z"/><path d="m626.38 495.35c-8 0-13.33-5.33-13.33-13.33v-14.67c0-8 5.33-13.33 13.33-13.33s13.34 5.33 13.34 13.33v14.65a13.37 13.37 0 0 1 -13.34 13.35z"/><path d="m626.38 547.35c-8 0-13.33-5.33-13.33-13.33v-6.67c0-8 5.33-13.33 13.33-13.33s13.34 5.33 13.34 13.33v6.65c0 8-5.34 13.35-13.34 13.35z"/><path d="m679.72 434c-8 0-13.34-5.33-13.34-13.33v-6.67c0-8 5.34-13.33 13.34-13.33s13.33 5.33 13.33 13.33v6.67c0 8.01-5.33 13.33-13.33 13.33z"/><path d="m679.72 495.35c-8 0-13.34-5.33-13.34-13.33v-14.67c0-8 5.34-13.33 13.34-13.33s13.33 5.33 13.33 13.33v14.65a13.36 13.36 0 0 1 -13.33 13.35z"/><path d="m679.72 547.35c-8 0-13.34-5.33-13.34-13.33v-6.67c0-8 5.34-13.33 13.34-13.33s13.33 5.33 13.33 13.33v6.65c0 8-5.33 13.35-13.33 13.35z"/><path d="m733.05 434c-8 0-13.33-5.33-13.33-13.33v-6.67c0-8 5.33-13.33 13.33-13.33s13.33 5.33 13.33 13.33v6.67c0 8.01-5.33 13.33-13.33 13.33z"/><path d="m733.05 495.35c-8 0-13.33-5.33-13.33-13.33v-14.67c0-8 5.33-13.33 13.33-13.33s13.33 5.33 13.33 13.33v14.65a13.36 13.36 0 0 1 -13.33 13.35z"/><path d="m733.05 547.35c-8 0-13.33-5.33-13.33-13.33v-6.67c0-8 5.33-13.33 13.33-13.33s13.33 5.33 13.33 13.33v6.65c0 8-5.33 13.35-13.33 13.35z"/><path d="m733.05 374h-106.67c-8 0-13.33-5.33-13.33-13.33 0-37.33 29.33-66.67 66.67-66.67s66.66 29.34 66.66 66.67c0 8.01-5.33 13.33-13.33 13.33zm-90.67-26.66h76a38.84 38.84 0 0 0 -37.33-26.67c-17.33.01-33.33 10.68-38.67 26.68z"/></svg>