<svg viewBox="0 0 1092.77 1121.36" xmlns="http://www.w3.org/2000/svg"><rect fill="#f9fc8b" height="1121.36" rx="249.19" width="1092.77"/><path d="m333.1 531.35c58.31-40.71 103.55-90.35 86.69-153.25a87.33 87.33 0 0 0 -5.79-15.61c-11.18-23-31.53-38.13-55.87-48-38.9-15.8-88-18.27-126.19-18.65-17.85-.17-23.22 8.33-23.22 28.69v280.47c36.74-21.21 83.74-45.27 124.38-73.66zm-14-94.51a29.28 29.28 0 1 1 29.28-29.28 29.27 29.27 0 0 1 -29.25 29.28z" fill="#f9eacd"/><path d="m419.79 378.1c16.86 62.9-28.38 112.55-86.69 153.26 27.47 102.51 40.26 111.28 49.76 257.28 51.66 29.82 94.63 42.21 162.52 42.21 36.79 0 66.27-3.64 93.77-11.72 23.25-6.83 45.09-16.83 68.76-30.49 9.49-146 22.29-154.77 49.75-257.28-58.31-40.71-103.55-90.36-86.66-153.26 8.59-32.08 32.2-51.66 61.66-63.6-36.59-16.49-95.79-24-187.25-24s-150.66 7.5-187.25 24c24.34 9.86 44.68 24.95 55.87 48a87.33 87.33 0 0 1 5.76 15.6z" fill="#f9eacd"/><path d="m671 378.1c-16.89 62.9 28.35 112.55 86.66 153.26 40.65 28.38 87.64 52.44 124.34 73.64v-280.46c0-20.36-5.37-28.86-23.21-28.69-38.18.38-87.29 2.85-126.2 18.64-29.41 11.95-53.02 31.51-61.59 63.61zm101.4 58.74a29.28 29.28 0 1 1 29.28-29.28 29.27 29.27 0 0 1 -29.31 29.28z" fill="#f9eacd"/><path d="m882 605c-36.74-21.21-83.73-45.27-124.37-73.65-27.47 102.51-40.26 111.28-49.76 257.28 83.41 0 174.13-183.63 174.13-183.63z" fill="#9fdee2"/><path d="m382.86 788.63c-9.5-146-22.29-154.76-49.76-257.28-40.64 28.39-87.64 52.45-124.38 73.65 0 0 90.76 183.63 174.14 183.63z" fill="#9fdee2"/><g fill="#000003"><path d="m896.13 609v-.15a15.22 15.22 0 0 0 .35-1.76v-.32a12.43 12.43 0 0 0 .1-1.49c0-.07 0-.15 0-.23v-280.51c0-10.72 0-43.33-37.32-43.33h-.68c-33.77.33-77.45 2.24-115.79 14.11-3.43 1.06-6.75 2.2-10 3.39-38.87-15.77-97.21-22.84-187.52-22.84s-148.64 7.07-187.51 22.84c-3.24-1.19-6.56-2.33-10-3.39-38.34-11.87-82-13.78-115.8-14.11h-.68c-37.31 0-37.31 32.61-37.31 43.33v280.46.24a14.71 14.71 0 0 0 .1 1.48v.33a15.53 15.53 0 0 0 .36 1.75v.15a13.47 13.47 0 0 0 .51 1.47c.07.18.14.34.22.51s.15.38.24.56a740.22 740.22 0 0 0 57.05 93.89c45.24 62.73 87.64 95.58 126.11 97.77 54.34 30.81 99.91 42.34 166.62 42.34 37.22 0 67.86-3.6 97.1-12.11a15.65 15.65 0 0 0 1.69-.49c22.57-6.74 44.39-16.44 67.83-29.74 38.47-2.19 80.87-35 126.11-97.76a738.58 738.58 0 0 0 57-93.9c.09-.18.16-.37.24-.56a4.61 4.61 0 0 0 .22-.51 14.25 14.25 0 0 0 .76-1.42zm-37.13-298.51h.39c4.84 0 6.13.9 6.13.9s1.91 2.11 1.91 13.15v255.37l-9.55-5.33c-29.93-16.65-62.55-34.81-91.59-55.06l-.37-.26a359.14 359.14 0 0 1 -38-30.17c-38.55-35.68-52.55-70.74-42.78-107.2 6.54-24.42 24-42.16 53.24-53.93l.36-.14c4-1.62 8.33-3.14 12.84-4.53 34.68-10.75 75.61-12.49 107.42-12.8zm-313.59-5.34c66.92 0 116 4.05 150.91 12.6-20 14.53-33.26 33.44-39.46 56.56-18.16 67.79 26.07 120.53 84.07 163-5.21 19-9.88 34.65-14.06 48.72-15.91 53.42-25.66 86.17-33 193.8a315.9 315.9 0 0 1 -40.59 19.15c-.12-26.4 1.82-55.83 3.19-73.1a14.64 14.64 0 0 0 -29.19-2.31c-1.56 19.71-3.84 54.8-3.16 84.53-23.52 5.75-48.54 8.16-78.7 8.16-60.32 0-100.1-9.63-148.44-36.43-7.36-107.64-17.11-140.39-33-193.82-4.19-14.05-8.85-29.73-14.06-48.7 58-42.43 102.23-95.16 84.06-162.95l-.12-.44c20.49-2.86 49.72-5.1 77-5.72a14.64 14.64 0 1 0 -.67-29.27c-32.33.74-66.51 3.59-88.55 7.24a104.6 104.6 0 0 0 -27.12-28.38c34.84-8.59 83.95-12.64 150.86-12.64zm-322 19.39c0-11 1.89-13.14 1.9-13.15s1.31-.9 6.14-.9h.39c31.78.31 72.71 2.05 107.43 12.8q6.76 2.08 12.84 4.53l.33.12c29.24 11.78 46.72 29.51 53.27 53.95 9.76 36.45-4.23 71.51-42.78 107.19a356.51 356.51 0 0 1 -37.93 30.08l-.25.18c-29.1 20.33-61.83 38.54-91.84 55.24l-9.56 5.33v-255.37zm4.8 286.25c6.12-3.45 12.43-7 19-10.63 24.51-13.64 51.46-28.64 77.19-45.36 4.2 15 8 27.8 11.52 39.52 15.31 51.41 24.13 81.07 31.12 177-52.89-16.87-112.37-110.7-138.88-160.53zm586.21 77.46c-32.91 45.64-64.41 74.33-90.59 83 7-95.85 15.81-125.5 31.11-176.88 3.5-11.73 7.32-24.58 11.52-39.54 25.73 16.72 52.69 31.73 77.2 45.37 6.53 3.64 12.83 7.14 18.92 10.58a723.27 723.27 0 0 1 -48.21 77.47z"/><path d="m319.13 451.47a43.92 43.92 0 1 0 -43.91-43.91 44 44 0 0 0 43.91 43.91zm0-58.55a14.64 14.64 0 1 1 -14.63 14.64 14.66 14.66 0 0 1 14.63-14.64z"/><path d="m728.46 407.56a43.92 43.92 0 1 0 43.92-43.91 44 44 0 0 0 -43.92 43.91zm43.92-14.64a14.64 14.64 0 1 1 -14.64 14.64 14.65 14.65 0 0 1 14.64-14.64z"/><path d="m552.07 368.64h.36.88a14.64 14.64 0 0 0 1-29.24h-.36a14.64 14.64 0 0 0 -1.85 29.22z"/><path d="m644 698.46a14.6 14.6 0 0 0 16.36-12.68l.16-1.23a14.64 14.64 0 0 0 -29-3.85l-.18 1.39a14.64 14.64 0 0 0 12.66 16.37z"/></g></svg>