<svg viewBox="0 0 1092.77 1121.36" xmlns="http://www.w3.org/2000/svg"><rect fill="#ffc0ff" height="1121.36" rx="249.19" width="1092.77"/><path d="m731 571.85-194.63-194.63c75.06-75.06 102.5 17 190.34-70.87l18.79-18.79a53.15 53.15 0 0 1 75.16 75.16l-18.79 18.79c-87.87 87.84 4.19 115.28-70.87 190.34z" fill="#fcea2b"/><path d="m751.38 328.05 19.43-18.13a52.9 52.9 0 0 0 16.76-36.37 53.09 53.09 0 0 1 35.09 91.92l-19.43 18.14c-90.82 84.75.21 115.36-77.39 187.78l-80.84-84.79c77.58-72.42 15.57-73.79 106.38-158.55z" fill="#f1b31c"/><path d="m698.36 618.42-215.68 210.58c-25 24.4-65.89 24.4-90.88 0l-119.8-117a61.89 61.89 0 0 1 0-88.74l53.93-52.66 53.89-52.6 53.92-52.65 53.92-52.64c25-24.41 43.46-42.72 68.45-18.31l163.09 167.14c24.99 24.46 4.16 32.46-20.84 56.88z" fill="#92d3f5"/><path d="m309.21 745.63c24.82 24.4 65.42 24.4 90.23 0l214.13-210.63a62.22 62.22 0 0 0 0-88.75l-32.09-31.56 126 134.88c24.81 24.41 17.77 46.46-7.05 70.86l-214.12 210.63c-24.82 24.41-65.42 24.41-90.23 0l-119-117z" fill="#61b2e4"/><g fill="none" stroke="#000" stroke-width="25"><path d="m731 571.85-194.63-194.63c75.06-75.06 102.5 17 190.34-70.87l18.79-18.79a53.15 53.15 0 0 1 75.16 75.16l-18.79 18.79c-87.87 87.84 4.19 115.28-70.87 190.34z" stroke-linejoin="round"/><path d="m802.5 275.71c.09 0 .19.05.29.09a52.83 52.83 0 0 1 8.21 4.2c.41.25.85.39 1.25.66a53.55 53.55 0 0 1 8.45 6.86 53.14 53.14 0 0 1 0 75.16l-18.79 18.79c-27.45 27.45-37.34 49-40.24 67.95a89.54 89.54 0 0 0 -1 11.09 164.66 164.66 0 0 0 1 20.92c.83 8.51 1.81 16.86 1.62 25.47a82.08 82.08 0 0 1 -.86 10.48c-1.6 10.65-5.64 21.91-14.41 34.49a137 137 0 0 1 -10.21 12.78 65.45 65.45 0 0 1 -19 44.73l-220.81 220.8a66 66 0 0 1 -93 0l-122.67-122.64-2.14-2.15a66 66 0 0 1 0-93l55.19-55.19 55.19-55.2 55.19-55.19 55.24-55.2a65 65 0 0 1 39.8-18.55c71.76-67.21 99.87 19.39 186-66.71l18.8-18.79a53.13 53.13 0 0 1 56.9-11.85z" stroke-miterlimit="111.11"/><path d="m521.9 543.63-83.59-83.59" stroke-linecap="round" stroke-linejoin="round"/><path d="m468.16 597.36-83.58-83.58" stroke-linecap="round" stroke-linejoin="round"/><path d="m408.46 657.07-83.59-83.59" stroke-linecap="round" stroke-linejoin="round"/></g></svg>