<svg viewBox="0 0 1092.77 1121.36" xmlns="http://www.w3.org/2000/svg"><rect fill="#ffe5b0" height="1121.36" rx="249.19" width="1092.77"/><path d="m478.79 571c-19.42 0-29.67-22.54-16.76-36.66 256.87-280.95 240.77-263.44 243.44-266.08 35.53-34.74 92.41-34.26 127.33-.13a86.64 86.64 0 0 1 0 124.44c-2.61 2.56 10.51-9-197.4 172.87-8.78 7.68-2.57 5.56-156.61 5.56z" fill="#32bbff"/><path d="m635.41 565.44c207.91-181.89 194.78-170.31 197.4-172.87a86.66 86.66 0 0 0 0-124.44l-303 303c101.69.28 97.92 1.02 105.6-5.69z" fill="#2c9fd9"/><path d="m478.79 571c-19.42 0-29.67-22.54-16.76-36.66 256.87-280.95 240.77-263.44 243.44-266.08 35.53-34.74 92.41-34.26 127.33-.13a86.64 86.64 0 0 1 0 124.44c-2.61 2.56 10.51-9-197.4 172.87-8.78 7.68-2.57 5.56-156.61 5.56z" fill="none" stroke="#000" stroke-miterlimit="10" stroke-width="25"/><path d="m861.68 527h-630.59c-12.44 0-22.53 9.86-22.53 22a318 318 0 0 0 6.92 66 321.39 321.39 0 0 0 12.6 44 334.42 334.42 0 0 0 160.65 181.9v16.1c0 12.14 10.09 22 22.53 22h270.25c12.43 0 22.52-9.86 22.52-22v-16.07a334.4 334.4 0 0 0 160.66-181.93 321.35 321.35 0 0 0 12.59-44 317.46 317.46 0 0 0 6.93-66c0-12.1-10.09-22-22.53-22z" fill="#e6f3ff"/><path d="m884.21 549a318.65 318.65 0 0 1 -6.93 66 323.52 323.52 0 0 1 -12.59 44 330.37 330.37 0 0 1 -29.36 60.43 335.35 335.35 0 0 1 -131.33 121.5v16.07a21.7 21.7 0 0 1 -6.6 15.56 22.73 22.73 0 0 1 -15.89 6.44h-135.13v-352h315.3a22.78 22.78 0 0 1 15.93 6.44 21.74 21.74 0 0 1 6.6 15.56z" fill="#cfdbe6"/><path d="m877.28 615a321.08 321.08 0 0 1 -12.59 44h-636.61a321.12 321.12 0 0 1 -12.6-44z" fill="#2ee6e6"/><path d="m877.28 615a323.52 323.52 0 0 1 -12.59 44h-318.31v-44z" fill="#26bfbf"/><path d="m861.68 527h-630.59c-12.44 0-22.53 9.86-22.53 22a318 318 0 0 0 6.92 66 321.39 321.39 0 0 0 12.6 44 334.42 334.42 0 0 0 160.65 181.9v16.1c0 12.14 10.09 22 22.53 22h270.25c12.43 0 22.52-9.86 22.52-22v-16.07a334.4 334.4 0 0 0 160.66-181.93 321.35 321.35 0 0 0 12.59-44 317.46 317.46 0 0 0 6.93-66c0-12.1-10.09-22-22.53-22z" fill="none" stroke="#000" stroke-miterlimit="10" stroke-width="25"/></svg>