<svg viewBox="0 0 2475 1650" xmlns="http://www.w3.org/2000/svg" xmlns:xlink="http://www.w3.org/1999/xlink"><linearGradient id="a" gradientTransform="matrix(1.11 -.01 .02 1.26 -109.11 -211.47)" gradientUnits="userSpaceOnUse" x1="140.08" x2="2027.2" y1="1651.58" y2="281.17"><stop offset="0" stop-color="#b37cff"/><stop offset="1" stop-color="#f895e7"/></linearGradient><linearGradient id="b" x1="2079.32" x2="631.97" xlink:href="#a" y1="316" y2="1386.12"/><linearGradient id="c" gradientUnits="userSpaceOnUse" x1="1579.96" x2="360.54" y1="208.13" y2="1809.81"><stop offset="0" stop-color="#2b3582"/><stop offset="1" stop-color="#150e42"/></linearGradient><linearGradient id="d" gradientTransform="matrix(-1 0 0 1 -1924.55 0)" gradientUnits="userSpaceOnUse" x1="-2825.65" x2="-3275.06" y1="573.23" y2="1210.2"><stop offset="0" stop-color="#a737d5"/><stop offset="1" stop-color="#ef497a"/></linearGradient><linearGradient id="e" gradientTransform="matrix(-1 0 0 1 -1924.55 0)" gradientUnits="userSpaceOnUse" x1="-3331.03" x2="-2731.91" y1="867.67" y2="867.67"><stop offset="0" stop-color="#53d8ff"/><stop offset="1" stop-color="#3840f7"/></linearGradient><linearGradient id="f" gradientTransform="matrix(.70710678 .70710678 -.70710678 .70710678 407.49 -243.48)" x1="482.31" x2="504.34" xlink:href="#d" y1="-38.97" y2="548.49"/><linearGradient id="g" gradientUnits="userSpaceOnUse" x1="499.53" x2="497.97" y1="221.36" y2="485.77"><stop offset="0" stop-color="#53d8ff"/><stop offset=".71" stop-color="#406df9"/><stop offset="1" stop-color="#3840f7"/></linearGradient><linearGradient id="h" x1="498.15" x2="460.14" xlink:href="#g" y1="355.5" y2="608.22"/><linearGradient id="i" x1="608.83" x2="593.56" xlink:href="#g" y1="135.65" y2="364.66"/><linearGradient id="j" gradientTransform="matrix(-1 0 0 1 -5742.74 0)" x1="-6129.96" x2="-6145.15" xlink:href="#g" y1="119.55" y2="347.31"/><linearGradient id="k" x1="398.91" x2="421.03" xlink:href="#d" y1="447.14" y2="1036.89"/><linearGradient id="l" gradientUnits="userSpaceOnUse" x1="319.7" x2="323.17" y1="743.25" y2="835.71"><stop offset="0" stop-color="#2b3582"/><stop offset=".21" stop-color="#262d75"/><stop offset="1" stop-color="#150e42"/></linearGradient><linearGradient id="m" x1="425.77" x2="447.61" xlink:href="#l" y1="1021.66" y2="1182.24"/><linearGradient id="n" x1="438.72" x2="460.57" xlink:href="#l" y1="779.43" y2="940"/><linearGradient id="o" x1="368.23" x2="390.09" xlink:href="#l" y1="779.05" y2="939.66"/><linearGradient id="p" x1="474.4" x2="370.19" xlink:href="#g" y1="714.67" y2="927.14"/><linearGradient id="q" x1="493.61" x2="386.27" xlink:href="#g" y1="721.07" y2="939.94"/><linearGradient id="r" x1="384.16" x2="350.58" xlink:href="#g" y1="887.64" y2="1019.38"/><linearGradient id="s" gradientTransform="matrix(.92387953 .38268343 -.38268343 .92387953 393.82 -67.49)" x1="382.04" x2="326.5" xlink:href="#l" y1="890.36" y2="1126.73"/><linearGradient id="t" x1="490.47" x2="456.89" xlink:href="#g" y1="887.64" y2="1019.38"/><linearGradient id="u" gradientTransform="matrix(.70710678 .70710678 -.70710678 .70710678 814.63 -54.32)" x1="488.35" x2="432.81" xlink:href="#l" y1="890.36" y2="1126.73"/><linearGradient id="v" x1="510.39" x2="532.42" xlink:href="#d" y1="915.95" y2="1503.4"/><linearGradient id="w" gradientTransform="matrix(1 0 0 .94 -950.92 -1032.34)" x1="1708.98" x2="1455.8" xlink:href="#e" y1="2430.57" y2="2604.36"/><linearGradient id="x" gradientTransform="matrix(.99999507 -.00314159 .00314159 .99999507 -949.76 -1123.31)" x1="1564.02" x2="1514.18" xlink:href="#e" y1="2323.68" y2="2436.27"/><linearGradient id="y" gradientTransform="matrix(.99999507 -.00314159 .00314159 .99999507 -949.76 -1123.31)" x1="1575.55" x2="1518.99" xlink:href="#e" y1="2307.57" y2="2410.15"/><linearGradient id="z" x1="523.37" x2="478.77" xlink:href="#d" y1="1210.94" y2="1406.04"/><linearGradient id="A" x1="530.96" x2="486.36" xlink:href="#d" y1="1212.67" y2="1407.78"/><linearGradient id="B" x1="739.23" x2="339.23" xlink:href="#d" y1="1053.17" y2="1605.95"/><linearGradient id="C" x1="545.3" x2="486.95" xlink:href="#e" y1="1178.15" y2="1297.13"/><linearGradient id="D" x1="537.5" x2="482.26" xlink:href="#e" y1="1203.74" y2="1316.37"/><linearGradient id="E" x1="557.08" x2="435.74" xlink:href="#e" y1="1251.51" y2="1526.64"/><linearGradient id="F" x1="1567.59" x2="1589.62" xlink:href="#d" y1="55.72" y2="643.18"/><linearGradient id="G" gradientTransform="matrix(.99890626 .04675777 -.04675777 .99890626 565.96 671.88)" x1="1076.01" x2="873.85" xlink:href="#g" y1="-352.37" y2="-29.55"/><linearGradient id="H" x1="1612.58" x2="1572.94" xlink:href="#g" y1="289.78" y2="588.32"/><linearGradient id="I" x1="1594.44" x2="1507.11" xlink:href="#g" y1="442.93" y2="751.39"/><linearGradient id="J" gradientTransform="matrix(.9999844 .00558502 -.00558502 .9999844 1123.86 -2416.81)" x1="472.98" x2="387.02" xlink:href="#d" y1="2780.85" y2="2927.56"/><linearGradient id="K" gradientTransform="matrix(.9999844 .00558502 -.00558502 .9999844 1123.86 -2416.81)" x1="474.54" x2="388.58" xlink:href="#d" y1="2743.07" y2="2889.78"/><linearGradient id="L" gradientTransform="matrix(.9999844 .00558502 -.00558502 .9999844 1123.86 -2416.81)" x1="488.72" x2="402.76" xlink:href="#d" y1="2790.07" y2="2936.78"/><linearGradient id="M" gradientTransform="matrix(.9999844 .00558502 -.00558502 .9999844 1123.86 -2416.81)" x1="500.38" x2="387.28" xlink:href="#d" y1="2824.8" y2="2982.5"/><linearGradient id="N" gradientTransform="matrix(.9999844 .00558502 -.00558502 .9999844 1123.86 -2416.81)" x1="516.71" x2="430.75" xlink:href="#d" y1="2806.72" y2="2953.44"/><linearGradient id="O" gradientTransform="matrix(.86357161 .50422621 -.50422621 .86357161 568.13 583.11)" x1="777.61" x2="710.95" xlink:href="#c" y1="-769.73" y2="-682.05"/><linearGradient id="P" gradientTransform="matrix(.99928288 .03786459 -.03786459 .99928288 1132.81 -2299.05)" x1="589.07" x2="520.26" xlink:href="#c" y1="2579.07" y2="2669.59"/><linearGradient id="Q" gradientTransform="matrix(.99928288 .03786459 -.03786459 .99928288 1132.81 -2299.05)" x1="580.4" x2="532.89" xlink:href="#c" y1="2584.61" y2="2671.85"/><linearGradient id="R" gradientUnits="userSpaceOnUse" x1="1628.77" x2="1746.85" y1="838.2" y2="947.13"><stop offset="0" stop-color="#cb236d"/><stop offset="1" stop-color="#4c246d"/></linearGradient><linearGradient id="S" gradientTransform="matrix(.95931397 -.28234146 .28234146 .95931397 -706.82 -763.37)" x1="1876.31" x2="1981.63" xlink:href="#c" y1="1900.2" y2="2164.4"/><linearGradient id="T" gradientTransform="translate(58.95)" x1="1891.41" x2="1940.06" xlink:href="#d" y1="1495.83" y2="1495.83"/><linearGradient id="U" gradientTransform="translate(58.95)" gradientUnits="userSpaceOnUse" x1="1685.84" x2="1755.85" y1="1687.68" y2="869.4"><stop offset="0" stop-color="#f9b776"/><stop offset="1" stop-color="#f47960"/></linearGradient><linearGradient id="V" gradientTransform="translate(58.95)" x1="1665.38" x2="1744.1" xlink:href="#d" y1="1486.94" y2="1486.94"/><linearGradient id="W" x1="1826.67" x2="1896.7" xlink:href="#U" y1="1699.86" y2="881.36"/><linearGradient id="X" x1="1691.49" x2="1834.39" xlink:href="#R" y1="889.59" y2="861.01"/><linearGradient id="Y" x1="1939.36" x2="1764.31" xlink:href="#c" y1="878.44" y2="1158.51"/><linearGradient id="Z" x1="1661.56" x2="1674.66" xlink:href="#U" y1="877.97" y2="782.16"/><linearGradient id="aa" gradientTransform="matrix(.88620358 -.46329604 .46329604 .88620358 -812.99 -980.59)" x1="1430.35" x2="1545.1" xlink:href="#U" y1="2723.8" y2="2519.58"/><linearGradient id="ab" gradientTransform="matrix(.88620358 -.46329604 .46329604 .88620358 -812.99 -980.59)" x1="1455.03" x2="1512.41" xlink:href="#c" y1="2545.96" y2="2689.88"/><linearGradient id="ac" gradientTransform="matrix(.88620358 -.46329604 .46329604 .88620358 -812.99 -980.59)" x1="1454.78" x2="1569.53" xlink:href="#U" y1="2737.52" y2="2533.31"/><linearGradient id="ad" x1="1670.13" x2="1684.78" xlink:href="#U" y1="941.89" y2="941.89"/><linearGradient id="ae" x1="1619.91" x2="1637.65" xlink:href="#U" y1="990.19" y2="990.19"/><linearGradient id="af" x1="1612.6" x2="1688" xlink:href="#U" y1="963.18" y2="963.18"/><linearGradient id="ag" gradientTransform="matrix(1 -.01 .01 1 -19.98 -21.16)" x1="1664.97" x2="1775.17" xlink:href="#U" y1="1068.26" y2="1068.26"/><linearGradient id="ah" gradientTransform="matrix(1 -.01 .01 1 -19.98 -21.16)" x1="1788.53" x2="1859.59" xlink:href="#R" y1="999.75" y2="780.56"/><linearGradient id="ai" x1="1091.04" x2="1117.54" xlink:href="#U" y1="795.37" y2="795.37"/><linearGradient id="aj" x1="1000.19" x2="1032.28" xlink:href="#U" y1="882.75" y2="882.75"/><linearGradient id="ak" x1="986.97" x2="1123.36" xlink:href="#U" y1="833.89" y2="833.89"/><path d="m2227.86 813c21.59-91.55-8-197-75-256.83-22.58-20.16-48.67-35.42-69.71-57.53-50.38-52.95-34-125.68-73.86-181.62-130.13-182.77-327.42-201.94-494.7-122.86-130.82 61.85-270.14 71.6-412 45.39-107.67-19.9-211.9-61.68-320.58-72.8-85.5-8.74-178.2 1.43-240 73.26-27.77 32.28-51.54 69.64-84.89 94.63-40.1 30.06-90.74 39.64-130 71-49.07 39.23-73.39 108.41-74.58 175.46s18 132.6 41.79 194.35c21.26 55.17 46.84 110.76 47.59 170.68 1.06 84-46.2 157.61-83.15 230.91-46.31 91.9-58 174-8.79 264.64 41.61 76.43 93.65 130.82 177.02 144.32 174.13 28.13 333.46-44.38 504.36-64.8 152.55-18.24 304.83 13.4 455 40.68 176.67 32.1 411.45 62.76 568.73-57.44 55.3-42.27 96.52-106.57 114.31-178.33 14.67-59.16 13.7-121.64 22.75-182.18a536.23 536.23 0 0 1 59.4-177.93c22.5-41 50.47-78.78 67.2-123.08a242.13 242.13 0 0 0 9.11-29.92z" fill="url(#a)" opacity=".26"/><path d="m2070.69 856.41c10.94-42.27 30-81 35.16-125.37 9.41-81.14 16.33-172.6-30.58-236-27.7-37.43-70.4-58.18-113.44-66.45s-87.09-5.34-130.71-3.11c-24.93 1.27-51 2.07-73.58-9.74-44.54-23.27-58.88-84.58-90.14-126.74-53.34-71.91-152.05-80.23-232.65-54.43-114.61 36.68-241.16 105.3-339.59 178.53-21.45 16-43.18 32.85-68.3 39.64-19.73 5.33-40.4 4.09-60.64 2a778.59 778.59 0 0 1 -151.69-31.14c-60.06-18.7-118.82-44.84-180.84-52.12s-130.35 7.82-171.8 59.26c-33.35 41.39-44.22 99.92-42.77 155.42s13.82 109.89 21.19 164.84c12.64 94.25 24.06 216.55-25.24 298.71-41.67 69.45-93.12 133-107.46 217.66-35.61 209.95 161.39 292.26 314.88 266.13 59.24-10.09 115.84-33.67 174.21-48.7 205.82-53 416.71 2.59 620.09 43.58 132.66 26.74 274.51 57.58 409.31 47.1 63.81-5 129.16-13.55 185.76-46.41 61.43-35.64 108.84-99.66 128.39-173.33 28.78-108.48-22-207-53.84-306.48-16.25-50.76-28.3-103.32-22.38-157.51a248.15 248.15 0 0 1 6.66-35.34z" fill="url(#b)" opacity=".2"/><path d="m727.1 185.43 763 8.4c42.18.46 75.26 36.86 75.23 82.58l-.67 1131.07c0 31.64-25.64 57.88-56.54 58l-818 3.61c-28.86.13-52.54-24-52.54-53.65v-1133.54c-.02-53.7 40.06-97.02 89.52-96.47z" fill="url(#c)"/><path d="m1465.49 231.32h-719.39a54.62 54.62 0 0 0 -54.4 54.25v1047c0 29.39 24.24 52.17 54.4 52.17h719.39c30.17 0 54.85-22.78 54.85-52.17v-1047c0-29.39-24.68-54.25-54.85-54.25z" fill="#fff"/><circle cx="1106.92" cy="864.95" fill="url(#d)" r="350.46"/><circle cx="1106.92" cy="867.67" fill="url(#e)" r="299.56"/><circle cx="1126.14" cy="847.52" fill="#fff" opacity=".31" r="260.03"/><circle cx="497.65" cy="370.15" fill="url(#f)" r="198.03" transform="matrix(.70710678 -.70710678 .70710678 .70710678 -115.98 460.31)"/><circle cx="498.2" cy="371.38" fill="#fff" r="172.18" transform="matrix(.70710678 -.70710678 .70710678 .70710678 -116.69 461.06)"/><path d="m412.37 280.56h179.45a27.1 27.1 0 0 1 27.1 27.1v42.07a128.19 128.19 0 0 1 -128.19 128.19 111.89 111.89 0 0 1 -111.89-111.92v-51.91a33.53 33.53 0 0 1 33.53-33.53z" fill="url(#g)"/><path d="m448.75 477.92h100.15c7.17-40.22 30.25-66.68 69.92-78.8h.1v-97.64h-239.3a.79.79 0 0 0 -.78.79v96.85c39.66 12.12 62.75 38.58 69.91 78.8z" fill="url(#h)"/><path d="m619.38 339.61h-34.73a12.69 12.69 0 0 1 -12.65-12.69 13.11 13.11 0 0 1 13.11-13.12h34.31z" fill="url(#i)"/><path d="m378.84 338.91h32.45a12.69 12.69 0 0 0 12.71-12.69 13.11 13.11 0 0 0 -13.11-13.11h-32z" fill="url(#j)"/><path d="m540.72 478-1-.05c2.44-45.33 28.89-74.51 78.61-86.75l.24 1c-24.64 6.07-43.69 16.36-56.6 30.6s-20.05 32.73-21.25 55.2z" fill="#fff"/><path d="m456.57 477.41c-1.2-22.42-8.36-41-21.26-55.23s-31.95-24.53-56.59-30.6l.24-1c49.72 12.24 76.17 41.42 78.61 86.75z" fill="#fff"/><circle cx="414.32" cy="857.86" fill="url(#k)" r="198.81"/><circle cx="414.87" cy="859.09" fill="#fff" r="172.86"/><path d="m330 788.21-19.2-11.33-1.14 1.68a4.79 4.79 0 0 0 1.67 6.85l12.67 7.46a8.18 8.18 0 0 1 4.13 7v38.45h7.42l-1.9-44.25a7.2 7.2 0 0 0 -3.65-5.86z" fill="url(#l)"/><path d="m370.13 949.05h92.49v7.1h-92.49z" fill="url(#m)"/><path d="m410.84 910.41h92.49v7.1h-92.49z" fill="url(#n)" transform="matrix(.43397359 .90092559 -.90092559 .43397359 1082.08 105.49)"/><path d="m340.38 910.41h92.49v7.1h-92.49z" fill="url(#o)" transform="matrix(-.45849445 .88869727 -.88869727 -.45849445 1376.12 989.45)"/><path d="m438.84 893.19h-39.84a74.27 74.27 0 0 1 -73-60.88c-.42-2.32-.74-4.65-.94-7-.1-1.16-.17-2.33-.21-3.5a10.75 10.75 0 0 1 -.08-2.12c.12-.87.24-.8 1-.79h187.36a74.29 74.29 0 0 1 -74.29 74.29z" fill="url(#p)"/><path d="m423.14 818.9v-92.38a2.29 2.29 0 0 1 2.3-2.3c66.09.22 91.59 31.12 88.25 94.68z" fill="url(#q)"/><circle cx="366.79" cy="955.77" fill="url(#r)" r="28.09"/><circle cx="366.57" cy="956.19" fill="url(#s)" r="19.76" transform="matrix(.92387953 -.38268343 .38268343 .92387953 -338.02 213.06)"/><circle cx="473.11" cy="955.77" fill="url(#t)" r="28.09"/><circle cx="472.88" cy="956.19" fill="url(#u)" r="19.76" transform="matrix(.70710678 -.70710678 .70710678 .70710678 -537.63 614.44)"/><path d="m511 821-1-.07c2.26-32-4-56-18.59-71.35-14-14.74-36.21-21.9-65.91-21.25v-1c30-.64 52.43 6.61 66.67 21.56 14.83 15.53 21.15 39.79 18.83 72.11z" fill="#fff"/><circle cx="525.74" cy="1325.06" fill="url(#v)" r="198.03"/><circle cx="526.29" cy="1326.3" fill="#fff" r="172.18" transform="matrix(.70710678 -.70710678 .70710678 .70710678 -783.69 760.6)"/><path d="m608.3 1250.44c-.24 7.15-6.34 180.72-6.34 180.72 2.39 20.79 24 24.19 26.52.36l-4-183.73z" fill="url(#w)"/><path d="m640.78 1211.08c.08 23.72-14.54 43.06-24.61 43-8.65 0-24.81-19.15-24.88-42.87s5.33-43 24.61-43c18.46-.01 24.81 19.14 24.88 42.87z" fill="url(#x)"/><path d="m636.34 1211.18c.06 20-9 36.18-20.19 36.22s-20.35-16.13-20.41-36.1 6.22-36.22 20.19-36.22 20.34 16.13 20.41 36.1z" fill="url(#y)"/><path d="m448.72 1257.89h124v16.75h-124z" fill="url(#z)"/><path d="m591.37 1308.15h-163.66c0-14.75 10.93-28.57 21-36.33h124c7.54 7.08 18.66 20.18 18.66 36.33z" fill="url(#A)"/><path d="m427.71 1308.15h163.66a0 0 0 0 1 0 0v118.29a20.33 20.33 0 0 1 -20.37 20.33h-121.29a22 22 0 0 1 -22-22v-116.62a0 0 0 0 1 0 0z" fill="url(#B)"/><path d="m450.41 1238.84h120.36a4.13 4.13 0 0 1 4.13 4.13v12.28a0 0 0 0 1 0 0h-128.12a0 0 0 0 1 0 0v-12.78a3.63 3.63 0 0 1 3.63-3.63z" fill="url(#C)"/><rect fill="url(#D)" height="11.11" rx="4.63" width="134.38" x="443.76" y="1252.33"/><path d="m427.71 1322.61h163.67v73.37h-163.67z" fill="url(#E)"/><path d="m587.07 1326.8-156.39-1.24a.5.5 0 0 1 -.5-.5.52.52 0 0 1 .51-.5l156.39 1.24a.5.5 0 0 1 .5.5.51.51 0 0 1 -.51.5z" fill="#fff"/><circle cx="1582.93" cy="464.84" fill="url(#F)" r="198.03"/><circle cx="1583.48" cy="466.07" fill="#fff" r="172.18" transform="matrix(.70710678 -.70710678 .70710678 .70710678 134.23 1256.2)"/><path d="m1514 342.51 149.48 5.66a15.49 15.49 0 0 1 14.91 15.28l2.84 217.15a11.43 11.43 0 0 1 -11.65 11.58l-171.45-3.37a10.85 10.85 0 0 1 -10.63-11.26l8.25-218.12a17.61 17.61 0 0 1 18.25-16.92z" fill="url(#G)"/><path d="m1523.3 586.15-19.16-1a11.92 11.92 0 0 1 -11.26-12.3l1.1-29a.48.48 0 0 1 .5-.47.5.5 0 0 1 .47.51l-1.09 28.95a10.92 10.92 0 0 0 10.33 11.28l19.16 1a.49.49 0 0 1 .46.52.48.48 0 0 1 -.51.51z" fill="#fff"/><path d="m1494.78 535.47a.47.47 0 0 1 -.46-.5l.17-4.69a.49.49 0 0 1 .51-.47.49.49 0 0 1 .47.51l-.18 4.68a.48.48 0 0 1 -.5.47z" fill="#fff"/><path d="m1514.52 340.77c20.31 3.54 90.19 14.76 148.39 12.5a4.73 4.73 0 0 1 4.92 4.65l3.33 218.13a5.43 5.43 0 0 1 -5.32 5.52c-24.46.52-125.2 2.3-160.92-2.81a4.31 4.31 0 0 1 -3.69-4.4l7.31-228.71a5.11 5.11 0 0 1 5.98-4.88z" fill="url(#H)"/><path d="m1516.49 346.5c19.55 3.41 86.79 14.21 142.81 12a4.55 4.55 0 0 1 4.7 4.5l3.21 209.92a5.23 5.23 0 0 1 -5.12 5.31c-23.55.51-120.49 2.22-154.86-2.7a4.15 4.15 0 0 1 -3.55-4.24l7-220.1a4.91 4.91 0 0 1 5.81-4.69z" fill="url(#I)"/><g fill="#fff"><path d="m1654.47 376.78c2.2.09 4-.53 4-1.36s-1.84-1.59-4-1.69l-121.78-5.57c-2.19-.1-3.3.75-2.46 1.9s3.33 2.14 5.53 2.23z" opacity=".6"/><path d="m1532.29 376.53c-2.2-.1-3.31.76-2.47 1.9s3.33 2.15 5.53 2.23l118.8 4.5c2.2.08 4-.53 4-1.36s-1.84-1.6-4-1.7z" opacity=".6"/><path d="m1548.75 453.34-16.84-.25a4.57 4.57 0 0 1 -4.64-3.91l-1.4-14.14a3.09 3.09 0 0 1 .75-2.33 3.68 3.68 0 0 1 2.61-1.27c1.42-.09 3.38-.25 5.53-.42 4.69-.37 10-.8 13.12-.82h.07a4.73 4.73 0 0 1 4.67 3.35c.86 3.26.75 9.4.54 15.94a4.2 4.2 0 0 1 -4.41 3.85zm-19.47-20.53a2.39 2.39 0 0 0 -1.66.79 1.73 1.73 0 0 0 -.42 1.31l1.4 14.13a3.19 3.19 0 0 0 3.29 2.67l16.84.26a2.83 2.83 0 0 0 3-2.52c.2-6.44.31-12.47-.5-15.54a3.41 3.41 0 0 0 -3.4-2.34c-3.07 0-8.59.47-13 .82-2.16.17-4.13.33-5.55.42z"/><path d="m1531.08 434.24c3.53-.23 11.22-1 14.87-1a3.25 3.25 0 0 1 3.25 2.27c.69 2.61.57 7.79.42 12.58a2.79 2.79 0 0 1 -3 2.54l-13.46-.2a3.09 3.09 0 0 1 -3.16-2.63l-1.13-11.29a2.19 2.19 0 0 1 2.21-2.27z" opacity=".6"/><path d="m1566.23 438.84a2.85 2.85 0 0 0 -3 3.76l.17.67a5.49 5.49 0 0 0 5 3.9l79.53.43c2.21 0 4-1.39 4-3.12s-1.85-3.19-4.05-3.25z" opacity=".6"/></g><path d="m1531.78 436.45a2.59 2.59 0 0 1 3.56 1l3.29 6a.83.83 0 0 0 1.48-.05l8.34-18.29a.91.91 0 0 1 1.75.4 36.19 36.19 0 0 1 -10.67 25.14s-4.93-1.95-8.86-10.7a2.72 2.72 0 0 1 1.11-3.5z" fill="url(#J)"/><path d="m1550.52 415.57-16.84-.25a4.57 4.57 0 0 1 -4.64-3.91l-1.4-14.14a3.09 3.09 0 0 1 .75-2.33 3.68 3.68 0 0 1 2.61-1.27c1.42-.09 3.38-.25 5.53-.42 4.69-.37 10-.8 13.12-.82h.07a4.74 4.74 0 0 1 4.67 3.35c.86 3.26.75 9.4.54 15.94a4.2 4.2 0 0 1 -4.41 3.85zm-19.52-20.57a2.38 2.38 0 0 0 -1.65.79 1.72 1.72 0 0 0 -.42 1.31l1.4 14.13a3.19 3.19 0 0 0 3.29 2.67l16.84.26a2.83 2.83 0 0 0 3-2.52c.2-6.44.31-12.47-.5-15.55a3.41 3.41 0 0 0 -3.4-2.33c-3.07 0-8.59.47-13 .82-2.16.17-4.13.33-5.56.42z" fill="#fff"/><path d="m1532.85 396.46c3.53-.22 11.22-1 14.87-1a3.25 3.25 0 0 1 3.25 2.27c.69 2.6.57 7.79.42 12.58a2.79 2.79 0 0 1 -3 2.54l-13.46-.2a3.12 3.12 0 0 1 -3.17-2.63l-1.12-11.3a2.2 2.2 0 0 1 2.21-2.26z" fill="#fff" opacity=".6"/><path d="m1568 401.07a2.84 2.84 0 0 0 -3 3.75l.17.68a5.49 5.49 0 0 0 5 3.9l79.53.43c2.2 0 4-1.39 4-3.12s-1.85-3.19-4.05-3.26z" fill="#fff" opacity=".6"/><path d="m1533.55 398.68a2.59 2.59 0 0 1 3.56 1l3.29 6a.83.83 0 0 0 1.48-.05l8.34-18.29a.91.91 0 0 1 1.75.4 36.19 36.19 0 0 1 -10.67 25.14s-4.93-1.95-8.86-10.7a2.72 2.72 0 0 1 1.11-3.5z" fill="url(#K)"/><path d="m1548.56 489.42-16.84-.25a4.56 4.56 0 0 1 -4.63-3.91l-1.41-14.13a3.15 3.15 0 0 1 .75-2.34 3.72 3.72 0 0 1 2.61-1.27c1.42-.09 3.38-.25 5.53-.42 4.69-.37 10-.79 13.12-.82h.07a4.75 4.75 0 0 1 4.67 3.36c.86 3.25.75 9.39.55 15.93a4.2 4.2 0 0 1 -4.42 3.85zm-19.48-20.53a2.34 2.34 0 0 0 -1.65.79 1.74 1.74 0 0 0 -.43 1.32l1.4 14.13a3.21 3.21 0 0 0 3.3 2.68l16.83.25a2.84 2.84 0 0 0 3-2.52c.19-6.44.31-12.47-.51-15.54a3.42 3.42 0 0 0 -3.4-2.33c-3.07 0-8.58.46-13 .81-2.16.17-4.12.33-5.55.42z" fill="#fff"/><path d="m1530.88 470.32c3.54-.22 11.23-1 14.87-1a3.25 3.25 0 0 1 3.25 2.27c.69 2.61.57 7.79.42 12.58a2.8 2.8 0 0 1 -3 2.55l-13.45-.21a3.1 3.1 0 0 1 -3.17-2.63l-1.12-11.29a2.18 2.18 0 0 1 2.2-2.27z" fill="#fff" opacity=".6"/><path d="m1566 474.92a2.85 2.85 0 0 0 -3 3.76l.18.68a5.48 5.48 0 0 0 5 3.89l79.53.43c2.2 0 4-1.39 4-3.11s-1.85-3.2-4-3.26z" fill="#fff" opacity=".6"/><path d="m1531.58 472.54a2.58 2.58 0 0 1 3.56 1l3.29 6a.83.83 0 0 0 1.48-.06l8.34-18.29a.92.92 0 0 1 1.75.41 36.17 36.17 0 0 1 -10.67 25.13s-4.92-1.94-8.85-10.7a2.7 2.7 0 0 1 1.1-3.49z" fill="url(#L)"/><path d="m1546.79 524.06-16.84-.25a4.58 4.58 0 0 1 -4.64-3.91l-1.4-14.13a3.11 3.11 0 0 1 .75-2.34 3.72 3.72 0 0 1 2.61-1.27c1.42-.09 3.37-.25 5.52-.42 4.46-.35 10-.8 13.13-.82a4.81 4.81 0 0 1 4.74 3.36c.86 3.25.75 9.39.54 15.93a4.18 4.18 0 0 1 -4.41 3.85zm-19.47-20.53a2.39 2.39 0 0 0 -1.66.79 1.73 1.73 0 0 0 -.42 1.31l1.4 14.13a3.19 3.19 0 0 0 3.29 2.67l16.84.26a2.89 2.89 0 0 0 3-2.52c.2-6.44.31-12.47-.5-15.54a3.44 3.44 0 0 0 -3.4-2.33c-3.07 0-8.59.46-13 .81-2.16.17-4.12.33-5.54.42z" fill="#fff"/><path d="m1529.12 505c3.53-.23 11.22-1 14.87-1a3.25 3.25 0 0 1 3.25 2.27c.69 2.61.57 7.79.42 12.58a2.79 2.79 0 0 1 -3 2.54l-13.46-.2a3.09 3.09 0 0 1 -3.16-2.63l-1.13-11.29a2.19 2.19 0 0 1 2.21-2.27z" fill="#fff" opacity=".6"/><path d="m1564.27 509.56a2.85 2.85 0 0 0 -3 3.76l.17.68a5.48 5.48 0 0 0 5 3.89l79.54.43c2.2 0 4-1.39 3.94-3.12s-1.85-3.19-4.05-3.25z" fill="#fff" opacity=".6"/><path d="m1529.82 507.18a2.58 2.58 0 0 1 3.56 1l3.29 6a.83.83 0 0 0 1.48-.06l8.34-18.29a.92.92 0 0 1 1.75.41 36.17 36.17 0 0 1 -10.67 25.13s-4.93-1.94-8.86-10.7a2.71 2.71 0 0 1 1.11-3.49z" fill="url(#M)"/><path d="m1544.68 559.78-16.84-.25a4.56 4.56 0 0 1 -4.63-3.91l-1.41-14.14a3.14 3.14 0 0 1 .75-2.33 3.72 3.72 0 0 1 2.61-1.27c1.42-.09 3.38-.25 5.53-.42 4.69-.37 10-.8 13.12-.82a4.81 4.81 0 0 1 4.74 3.36c.86 3.25.75 9.39.55 15.93a4.2 4.2 0 0 1 -4.42 3.85zm-19.47-20.53a2.34 2.34 0 0 0 -1.65.79 1.74 1.74 0 0 0 -.43 1.31l1.4 14.13a3.21 3.21 0 0 0 3.3 2.68l16.83.25a2.83 2.83 0 0 0 3-2.52c.2-6.44.32-12.47-.5-15.54a3.46 3.46 0 0 0 -3.4-2.33c-3.07 0-8.58.46-13 .81-2.16.17-4.12.33-5.55.42z" fill="#fff"/><path d="m1527 540.68c3.54-.22 11.23-1 14.87-1a3.25 3.25 0 0 1 3.25 2.27c.69 2.61.57 7.79.42 12.58a2.79 2.79 0 0 1 -3 2.54l-13.45-.2a3.1 3.1 0 0 1 -3.17-2.63l-1.08-11.24a2.18 2.18 0 0 1 2.16-2.32z" fill="#fff" opacity=".6"/><path d="m1562.16 545.28a2.85 2.85 0 0 0 -3 3.76l.18.68a5.47 5.47 0 0 0 5 3.89l79.54.43c2.2 0 4-1.39 4-3.12s-1.85-3.19-4-3.25z" fill="#fff" opacity=".6"/><path d="m1527.71 542.9a2.58 2.58 0 0 1 3.56 1l3.29 6a.83.83 0 0 0 1.48-.06l8.34-18.29a.92.92 0 0 1 1.75.41 36.17 36.17 0 0 1 -10.67 25.13s-4.92-1.94-8.85-10.7a2.7 2.7 0 0 1 1.1-3.49z" fill="url(#N)"/><path d="m1599.13 316.14c-5.26-4-10-4.06-13.3-3.21a6.58 6.58 0 0 0 -4.94 6.75l.83 15.61 16.91 2.15s10.81-13.53.5-21.3zm-7.93 12.27a4.23 4.23 0 1 1 4.38-4.07 4.23 4.23 0 0 1 -4.38 4.07z" fill="url(#O)"/><path d="m1583.36 329.18a.85.85 0 0 1 -.52-.73l-.13-2.49a.83.83 0 0 1 .79-.88.84.84 0 0 1 .89.79l.13 2.49a.83.83 0 0 1 -.79.88.76.76 0 0 1 -.37-.06zm-.26-4.87a.85.85 0 0 1 -.52-.73l-.1-1.89a6.74 6.74 0 0 1 5-6.88 13.28 13.28 0 0 1 6.42 0 .84.84 0 1 1 -.4 1.64 11.41 11.41 0 0 0 -5.6 0 5.05 5.05 0 0 0 -3.77 5.16l.1 1.89a.84.84 0 0 1 -.79.88.76.76 0 0 1 -.34-.07z" fill="#fff"/><path d="m1558.19 344.47.3-7.82a4.77 4.77 0 0 1 5.12-4.58l53.86 3.88a4.66 4.66 0 0 1 4.31 4.54l.16 7.53z" fill="url(#P)"/><path d="m1576.34 335.58a.49.49 0 0 1 0-1l2.32.09a.48.48 0 0 1 .47.51.49.49 0 0 1 -.51.47l-2.31-.09z" fill="#fff"/><path d="m1560.9 342.5a.86.86 0 0 1 -.52-.81l.12-3.17a4.89 4.89 0 0 1 5-4.68l8.53.32a.84.84 0 0 1 .8.88.83.83 0 0 1 -.87.8l-8.52-.32a3.19 3.19 0 0 0 -3.31 3.06l-.12 3.17a.85.85 0 0 1 -.87.81 1.36 1.36 0 0 1 -.24-.06z" fill="#fff"/><path d="m1541.4 341 94.31 3.57a7 7 0 0 1 6.65 6l.06.46a6 6 0 0 1 -6.16 6.78l-96.75-3.66a3.89 3.89 0 0 1 -3.74-4.22l.38-4.32a5.08 5.08 0 0 1 5.25-4.61z" fill="url(#Q)"/><path d="m1715.29 784.09c-55.2 56.54-60.64 132-46.54 224.91l17-.47c-2.55-67.19 9.68-123.66 48.07-181.94z" fill="url(#R)"/><path d="m1729.58 648.5s38.94 6.55 50.8 23.74c9.52 13.79 47.76 4.68 60.32 33.62 6.49 14.94 21.61 24 37.75 21.81 40.21-5.43 105.37-2.89 134.5 61.1 22.24 48.85 1.94 75.83-23.37 90.54-18.58 10.81-26.16 34.21-16.16 53.24 9.59 18.26 10.4 42.39-18 70-63.62 61.89-178.21-49.86-178.21-49.86l-84.21-229.21z" fill="url(#S)"/><path d="m1950.42 1484.16 2.77 22.75a9.39 9.39 0 0 0 8.24 8.22 145.63 145.63 0 0 0 30.44.48 8.06 8.06 0 0 0 6.76-10.44c-2.79-8.78-7.9-22-15.26-29.72h-25.23a7.77 7.77 0 0 0 -7.72 8.71z" fill="url(#T)"/><path d="m1752.76 1217.67-4.26 25s14.27 144.48 16.8 202.28a45.25 45.25 0 0 1 -6.7 25.74l-24.8 40.31 63-37.19 1.25-7.7-10.32-14.18 13.52-161.86a49.74 49.74 0 0 0 -5.65-27.47l-13-24.49z" fill="url(#U)"/><path d="m1729.65 1516.85h20.12a12.11 12.11 0 0 0 9.61-4.72c6.27-8.14 19.26-24 25.47-24.46 8.37-.56 7.3 29.18 7.3 29.18h4.69l5.93-36.95a21.86 21.86 0 0 0 -11.47-22.9s-1.91 14.14-12.28 20.39-42.18 28.65-42.18 28.65a29 29 0 0 0 -8.18.22c-6.35 1.19-5.46 10.59.99 10.59z" fill="url(#V)"/><path d="m1839.1 1229.57s83.56 158.51 96.85 194.7 17.93 66.38 18.11 69.24c.28 4.47 5.84 8.75 21.15 8.75 7.91 0 11.78-3.17 13.67-6.24a8.91 8.91 0 0 0 .34-8.64c-4.83-9.79-20.17-41.05-25.85-55.23-6.79-16.93-21.38-93.65-29.38-120.32s-17-55.61-51.89-82.26c0 0-23.92-23.43-43 0z" fill="url(#W)"/><path d="m1786.31 969.84c-21.55-91.34 30-144.53 30-144.53-34.45-33.08-94.13-46.59-94.13-46.59s-59.9 43.79-52.8 78.07c4.17 20.09 42.11 120.35 42.11 120.35s35.03 16.6 74.82-7.3z" fill="url(#X)"/><path d="m1834.1 1015.06c-8.77-26.43-47.79-45.22-47.79-45.22-39.79 23.9-74.87 7.3-74.87 7.3s-7.87 30.07-2.44 58 39.5 207.56 39.5 207.56c53.69 10.88 136.25-10.94 136.25-10.94-34.19-60.69-41.87-190.27-50.65-216.7z" fill="url(#Y)"/><path d="m1745.38 716c.76 3.15 1.41 6.33 2.11 9.5q4.35 19.5 8.69 39 2.07 9.33 4.16 18.68c1 4.7 4.7 12.47-2.33 13.62-10 1.64-27.33 1.71-35.37-5.68-3.14-2.88-2.94-6.33-3.51-10.45l-7.53-54.59a9.82 9.82 0 0 1 5.74-10.3l14.53-6.45a9.81 9.81 0 0 1 13.51 6.67z" fill="url(#Z)"/><path d="m1696.51 652.78s-14.34 17.38-13 50.5 17.14 40.51 29.75 36.06 30-13.88 39.61-40.75-37.27-67.52-56.36-45.81z" fill="url(#aa)"/><path d="m1733 690.92s-6.45-46.14-41.17-28.58l-5.15 9.91s-23.92-14.94-8.54-36.09 44.13-25.35 67.59-2 34.75 41.29 27 62.36-21.7 9.06-21.7 9.06 1.47-16.71-5.29-21.7-10 7-10 7z" fill="url(#ab)"/><path d="m1739.16 693.23s-3.46-23.7 10.07-20.61 2.07 22.48-2.79 29.36z" fill="url(#ac)"/><path d="m1777.8 990.9a46 46 0 0 1 -25 29.85c-21.06 10-61.57 23.57-88.9-2.75a44.17 44.17 0 0 1 -11.9-19.72 41.46 41.46 0 0 1 -1.58-12.44c.26-9.56 3.8-20.45 16.32-27.44a37.51 37.51 0 0 1 37.11.71 37.29 37.29 0 0 0 17.43 5.22c16.27.5 26.62-16.1 48.69 0a22.47 22.47 0 0 1 5.54 5.68c4.23 6.32 4.11 13.88 2.29 20.89z" fill="#32a6fc"/><path d="m1757.32 967.88 1 1.15a1.6 1.6 0 0 0 1.82.39l1.41-.64a1.58 1.58 0 0 1 2 2.23l-.77 1.34a1.6 1.6 0 0 0 .19 1.85l1 1.15a1.57 1.57 0 0 1 -1.49 2.6l-1.52-.31a1.56 1.56 0 0 0 -1.69.75l-.78 1.35a1.58 1.58 0 0 1 -2.94-.62l-.16-1.54a1.58 1.58 0 0 0 -1.25-1.38l-1.51-.32a1.57 1.57 0 0 1 -.32-3l1.41-.64a1.58 1.58 0 0 0 .93-1.61l-.17-1.54a1.58 1.58 0 0 1 2.84-1.21z" fill="#fff"/><path d="m1693.08 1002.56v1.55a1.58 1.58 0 0 0 1 1.54l1.46.52a1.58 1.58 0 0 1 -.09 3l-1.49.44a1.57 1.57 0 0 0 -1.14 1.47v1.55a1.58 1.58 0 0 1 -2.89.84l-.87-1.28a1.58 1.58 0 0 0 -1.75-.63l-1.49.43a1.58 1.58 0 0 1 -1.69-2.48l1-1.22a1.59 1.59 0 0 0 .06-1.86l-.88-1.28a1.58 1.58 0 0 1 1.84-2.38l1.46.53a1.58 1.58 0 0 0 1.78-.52l1-1.23a1.58 1.58 0 0 1 2.69 1.01z" fill="#fff"/><path d="m1713.29 969.29.39.79a.89.89 0 0 0 .92.49l.87-.12a.9.9 0 0 1 .74 1.53l-.64.61a.9.9 0 0 0 -.18 1l.38.79a.89.89 0 0 1 -1.22 1.17l-.78-.41a.88.88 0 0 0 -1 .14l-.64.61a.89.89 0 0 1 -1.49-.8l.15-.87a.88.88 0 0 0 -.45-.94l-.78-.41a.89.89 0 0 1 .3-1.67l.87-.12a.91.91 0 0 0 .76-.73l.15-.86a.89.89 0 0 1 1.65-.2z" fill="#fff"/><path d="m1744.86 994 .17.86a.89.89 0 0 0 .77.71l.87.1a.89.89 0 0 1 .34 1.66l-.76.43a.91.91 0 0 0 -.44 1l.18.86a.89.89 0 0 1 -1.48.83l-.65-.59a.89.89 0 0 0 -1-.12l-.76.43a.89.89 0 0 1 -1.25-1.15l.36-.8a.89.89 0 0 0 -.2-1l-.65-.6a.89.89 0 0 1 .64-1.62l.87.1a.88.88 0 0 0 .91-.51l.36-.8a.9.9 0 0 1 1.72.21z" fill="#fff"/><path d="m1704.27 955s7.59 8.35-4.65 27.86a2.32 2.32 0 0 0 -.14 2.24 26.64 26.64 0 0 1 1.69 4.55 23.86 23.86 0 0 0 -11-1.9s16.24-17.91 14.1-32.75z" fill="#000072" opacity=".3"/><path d="m1777.8 990.9a46 46 0 0 1 -25 29.85c-21.06 10-61.57 23.57-88.9-2.75a44.17 44.17 0 0 1 -11.9-19.72l23.27 2.65a68.21 68.21 0 0 1 8.52 10.61 2.61 2.61 0 0 0 3.72.83c4.77-3.25 16.14-9.55 29.61-7.15 0 0 6.06-10.52 1.41-19.23a21.6 21.6 0 0 1 4.1 6.14 2.17 2.17 0 0 0 4-.3c1.1-3.73 3-8 6.27-10.94 0 0-.17 1.77-.19 4.49a10.3 10.3 0 0 0 16.59 8.2 33.57 33.57 0 0 1 13.45-6.33 16.39 16.39 0 0 0 12.73-17c0-.08 0-.16 0-.25 4.26 6.33 4.14 13.89 2.32 20.9z" fill="#000072" opacity=".3"/><path d="m1666.75 962.66a37.49 37.49 0 0 1 37.11.7 37.18 37.18 0 0 0 17.43 5.22c16.27.51 26.62-16.09 48.69 0a22.34 22.34 0 0 1 5.54 5.69 20.88 20.88 0 0 1 3.4 10.1 21.32 21.32 0 0 0 -8.94-20c-22.07-16.1-32.42.5-48.69 0a37.29 37.29 0 0 1 -17.43-5.22 37.51 37.51 0 0 0 -37.11-.71c-12.52 7-16.06 17.88-16.32 27.44v3.21c.57-9.34 4.26-19.7 16.32-26.43z" fill="#fff" opacity=".7"/><path d="m1670.13 935.05s4.81-4.87 10.43.36 4.68 12.49 2.58 15.12-13.01-15.48-13.01-15.48z" fill="url(#ad)"/><path d="m1622 982.83s-4.91 4.77.29 10.43 12.45 4.77 15.09 2.69-15.38-13.12-15.38-13.12z" fill="url(#ae)"/><path d="m1673.42 986.49s-26.83 28.27-43.41 5.54c0 0-14.61-10.32-17.06-25.59-1.36-8.47 1-18.46 11.71-29.07 29.95-29.74 54.61 5.75 54.61 5.75 4.38 3.24 6.85 6.85 8 10.57 4.66 15.48-13.85 32.8-13.85 32.8z" fill="url(#af)"/><path d="m1673.42 986.49s-26.83 28.27-43.41 5.54c0 0-14.61-10.32-17.06-25.59.37.54 20.64 29.94 57 11.44 11.85-6 16.47-14.92 17.3-24.19 4.68 15.48-13.83 32.8-13.83 32.8z" fill="#000072" opacity=".3"/><circle cx="1664.87" cy="977.87" fill="#00dbff" r="10.11"/><path d="m1674 973.47a10.1 10.1 0 0 1 -19.19 3.84 10.11 10.11 0 1 0 19.19-3.84z" fill="#000072" opacity=".3"/><path d="m1658.08 973.35a10.11 10.11 0 0 1 14.29 0 10 10 0 0 1 2.63 4.65 10.11 10.11 0 1 0 -19.88 2.48 10.08 10.08 0 0 1 2.96-7.13z" fill="#fff" opacity=".7"/><path d="m1669.94 991.58a8.58 8.58 0 0 1 -6.1-2.54 8.6 8.6 0 0 1 6.1-14.65 8.6 8.6 0 0 1 0 17.19zm0-15.67a7.07 7.07 0 0 0 -5 12.06 7.09 7.09 0 0 0 10 0 7.08 7.08 0 0 0 -5-12.1z" fill="#000072"/><circle cx="1664.87" cy="977.87" fill="#ffe448" r="4.4"/><path d="m1668.27 975.08a4.4 4.4 0 0 1 -7.52 3.24l-.28-.3a4.4 4.4 0 1 0 7.8-2.94z" fill="#000072" opacity=".3"/><path d="m1737.08 1007.75a182.41 182.41 0 0 1 -25.73 20.46c-9.15 6-17.82 6.21-27.92 1.43-6.86-3.24-12.87-8-19.16-12.23-1.63-1.09-3.87-2.15-5.41-.93-5.12 4.07 9.17 25.1 12.09 28.63a41.45 41.45 0 0 0 6.72 6.78c18 13.73 51.29-6.69 68.08-16.37a177.09 177.09 0 0 0 22.23-15.16 100.53 100.53 0 0 0 -19.32-25 154.31 154.31 0 0 1 -11.58 12.39z" fill="url(#ag)"/><path d="m1822 842.55c-.24-1.2-4.44-17.12-5.78-17.24-43.22-4-41.81 53.69-41.81 53.69 4.74 19.36 6 39.64 2.15 59.28-4.16 21.24-14.22 40.58-27.94 57.05a100.53 100.53 0 0 1 19.32 25 155.12 155.12 0 0 0 21.87-21.31c26.61-31.78 37.46-73 36.77-113.95a239.48 239.48 0 0 0 -4.58-42.52z" fill="url(#ah)"/><path d="m995.23 835.54s-66.65-2.31-65.5 61.65 67.43 63.19 85.92 41.61c0 0 11.76 57.8 77.64 57.8s84.38-50.28 84.38-50.28 65.31 38.14 97.68-26-27.74-105.57-64.73-86.69c0 0-40.46-64.74-100.18-21.58 0 0-16.7-10.28-34.42 8-.02-.05-48.02-38.45-80.79 15.49z" fill="#fff"/><path d="m929.79 892.28c2.28 62.25 67.53 61.31 85.86 39.93 0 0 11.76 57.79 77.64 57.79s84.38-50.28 84.38-50.28 65.31 38.15 97.68-26c5.81-11.52 8.64-22.31 9.15-32.15a55.36 55.36 0 0 0 -6.3-23.08c1.19 11.77-1.18 25.28-8.63 40-24.49 48.54-68.51 36.43-86.42 28.91a9.4 9.4 0 0 0 -11.74 3.89c-8.06 13.69-30 40.87-77.64 40.87-45 0-63.86-28-71-44.29a9.4 9.4 0 0 0 -13-4.5c-24.38 12.94-72.91 6.51-73.88-47.21a76.7 76.7 0 0 1 .48-10.38c-3.75 7.09-6.17 15.79-6.58 26.5z" fill="#000072" opacity=".3"/><path d="m1225.33 875.35a64.77 64.77 0 0 1 -35.17 42c-29.67 14.09-86.74 33.21-125.24-3.86a62.31 62.31 0 0 1 -16.8-27.78 58.16 58.16 0 0 1 -2.22-17.53c.36-13.47 5.35-28.81 23-38.65 16.28-9.09 36.15-8.37 52.28 1a52.35 52.35 0 0 0 24.55 7.35c22.93.72 37.51-22.67 68.59 0a31.57 31.57 0 0 1 7.81 8c5.92 8.94 5.76 19.59 3.2 29.47z" fill="#32a6fc"/><path d="m1196.47 842.92 1.47 1.62a2.21 2.21 0 0 0 2.56.54l2-.89a2.23 2.23 0 0 1 2.84 3.14l-1.09 1.89a2.22 2.22 0 0 0 .28 2.6l1.46 1.62a2.22 2.22 0 0 1 -2.1 3.67l-2.14-.45a2.24 2.24 0 0 0 -2.39 1.07l-1.09 1.89a2.22 2.22 0 0 1 -4.14-.87l-.23-2.17a2.22 2.22 0 0 0 -1.75-1.94l-2.14-.45a2.23 2.23 0 0 1 -.45-4.21l2-.89a2.21 2.21 0 0 0 1.3-2.27l-.23-2.17a2.23 2.23 0 0 1 3.84-1.73z" fill="#fff"/><path d="m1106 891.78-.06 2.18a2.21 2.21 0 0 0 1.47 2.16l2.06.74a2.22 2.22 0 0 1 -.13 4.23l-2.1.61a2.24 2.24 0 0 0 -1.6 2.07l-.06 2.18a2.23 2.23 0 0 1 -4.07 1.19l-1.23-1.8a2.22 2.22 0 0 0 -2.46-.89l-2.09.61a2.22 2.22 0 0 1 -2.39-3.49l1.34-1.73a2.22 2.22 0 0 0 .08-2.61l-1.23-1.81a2.23 2.23 0 0 1 2.59-3.35l2.05.74a2.22 2.22 0 0 0 2.51-.73l1.34-1.73a2.22 2.22 0 0 1 3.98 1.43z" fill="#fff"/><path d="m1134.45 844.9.55 1.1a1.26 1.26 0 0 0 1.3.7l1.22-.17a1.26 1.26 0 0 1 1 2.16l-.89.85a1.25 1.25 0 0 0 -.26 1.45l.54 1.11a1.26 1.26 0 0 1 -1.73 1.66l-1.08-.58a1.26 1.26 0 0 0 -1.47.2l-.89.85a1.25 1.25 0 0 1 -2.1-1.13l.21-1.21a1.25 1.25 0 0 0 -.64-1.33l-1.09-.58a1.26 1.26 0 0 1 .43-2.36l1.22-.17a1.23 1.23 0 0 0 1.06-1l.22-1.21a1.26 1.26 0 0 1 2.4-.34z" fill="#fff"/><path d="m1178.92 879.69.24 1.21a1.26 1.26 0 0 0 1.09 1l1.22.14a1.26 1.26 0 0 1 .48 2.34l-1.08.61a1.26 1.26 0 0 0 -.61 1.34l.24 1.21a1.26 1.26 0 0 1 -2.08 1.18l-.91-.84a1.25 1.25 0 0 0 -1.46-.17l-1.08.61a1.26 1.26 0 0 1 -1.76-1.62l.51-1.12a1.26 1.26 0 0 0 -.29-1.45l-.91-.83a1.26 1.26 0 0 1 1-2.18l1.22.15a1.28 1.28 0 0 0 1.29-.73l.51-1.12a1.26 1.26 0 0 1 2.38.27z" fill="#fff"/><path d="m1121.74 824.81s10.68 11.77-6.56 39.26a3.3 3.3 0 0 0 -.19 3.15 37.24 37.24 0 0 1 2.38 6.4 33.83 33.83 0 0 0 -15.5-2.67s22.89-25.27 19.87-46.14z" fill="#000072" opacity=".3"/><path d="m1225.33 875.35a64.77 64.77 0 0 1 -35.17 42c-29.67 14.09-86.74 33.21-125.24-3.86a62.31 62.31 0 0 1 -16.8-27.78l32.77 3.73s7.85 7.92 12 14.94a3.69 3.69 0 0 0 5.24 1.17c6.73-4.58 22.73-13.46 41.71-10.07 0 0 8.54-14.81 2-27.09a30.39 30.39 0 0 1 5.78 8.65 3.05 3.05 0 0 0 5.69-.43c1.57-5.25 4.25-11.2 8.84-15.4 0 0-.24 2.49-.26 6.32a14.51 14.51 0 0 0 23.37 11.55 47.36 47.36 0 0 1 19-8.92 23.09 23.09 0 0 0 17.93-23.92v-.35c5.86 8.93 5.7 19.58 3.14 29.46z" fill="#000072" opacity=".3"/><path d="m1068.88 835.56c16.28-9.09 36.15-8.37 52.28 1a52.36 52.36 0 0 0 24.55 7.36c22.93.71 37.51-22.68 68.59 0a31.54 31.54 0 0 1 7.81 8 29.32 29.32 0 0 1 4.78 14.22c.52-7-.66-14-4.78-20.21a31.57 31.57 0 0 0 -7.81-8c-31.08-22.67-45.66.72-68.59 0a52.35 52.35 0 0 1 -24.55-7.35c-16.13-9.36-36-10.08-52.28-1-17.63 9.84-22.62 25.18-23 38.65q-.06 2.28.06 4.53c.7-13.12 5.95-27.71 22.94-37.2z" fill="#fff" opacity=".7"/><path d="m1091 783s8.69-8.82 18.86.65 8.48 22.59 4.67 27.34-23.53-27.99-23.53-27.99z" fill="url(#ai)"/><path d="m1004 869.44s-8.88 8.62.51 18.86 22.53 8.64 27.3 4.86-27.81-23.72-27.81-23.72z" fill="url(#aj)"/><path d="m1097 876.05s-48.54 51.15-78.52 10c0 0-26.43-18.66-30.86-46.29-2.47-15.32 1.84-33.39 21.17-52.59 54.18-53.79 98.8 10.41 98.8 10.41 7.92 5.86 12.38 12.4 14.42 19.13 8.46 28.02-25.01 59.34-25.01 59.34z" fill="url(#ak)"/><path d="m1097 876.05s-48.54 51.15-78.52 10c0 0-26.43-18.66-30.86-46.29.67 1 37.34 54.17 103.1 20.69 21.43-10.91 29.79-27 31.29-43.74 8.46 28.02-25.01 59.34-25.01 59.34z" fill="#000072" opacity=".3"/><path d="m1082.77 805.05a14.44 14.44 0 0 1 -.47 7.7 17.49 17.49 0 0 1 -4.07 6.8c-.46.49-1 .93-1.47 1.37a18.6 18.6 0 0 1 -1.62 1.18 19.83 19.83 0 0 1 -1.72 1c-.6.27-1.19.57-1.81.78a17.31 17.31 0 0 1 -7.61 1.12.18.18 0 0 1 -.16-.19.19.19 0 0 1 .09-.14c2.24-1.22 4.34-2.33 6.27-3.59a6.84 6.84 0 0 0 .72-.47l.7-.48c.44-.36.92-.66 1.34-1a26.39 26.39 0 0 0 2.47-2.24 28 28 0 0 0 4.08-5.33 42.54 42.54 0 0 0 3.12-6.46.07.07 0 0 1 .1 0 .07.07 0 0 1 .04-.05z" fill="#000072"/><path d="m1026.09 861.18a43.15 43.15 0 0 0 6.48-3.07 28.42 28.42 0 0 0 5.36-4 25.15 25.15 0 0 0 2.26-2.46c.37-.41.67-.89 1-1.33l.48-.7c.17-.23.33-.46.48-.71 1.28-1.92 2.4-4 3.64-6.25a.16.16 0 0 1 .23-.06.18.18 0 0 1 .09.13 17.16 17.16 0 0 1 -1.14 7.61 18 18 0 0 1 -.8 1.8 19.83 19.83 0 0 1 -1 1.72 18.53 18.53 0 0 1 -1.2 1.6 19 19 0 0 1 -1.38 1.46 17.53 17.53 0 0 1 -6.83 4 14.43 14.43 0 0 1 -7.7.41.08.08 0 0 1 -.06-.09v-.05z" fill="#000072"/><path d="m1069.29 838a34.47 34.47 0 0 0 -3.5 1.48 10.52 10.52 0 0 0 -2.69 1.83 9.39 9.39 0 0 0 -1.79 2.55c-.49 1-.89 2.18-1.4 3.5a.13.13 0 0 1 -.16.07.13.13 0 0 1 -.07-.06 6.8 6.8 0 0 1 1.44-8.18 7.6 7.6 0 0 1 4-1.85 7.34 7.34 0 0 1 4.15.53.07.07 0 0 1 0 .09z" fill="#000072"/><circle cx="1081.52" cy="860.47" fill="#00dbff" r="18.29"/><path d="m1098 852.5a18.28 18.28 0 0 1 -34.71 7 18.28 18.28 0 1 0 34.71-7z" fill="#000072" opacity=".3"/><path d="m1069.23 852.29a18.28 18.28 0 0 1 30.57 8.33 18.29 18.29 0 1 0 -36 4.49 18.22 18.22 0 0 1 5.43-12.82z" fill="#fff" opacity=".7"/><path d="m1090.7 885.26a15.51 15.51 0 0 1 -11-4.59 15.55 15.55 0 0 1 11-26.5 15.55 15.55 0 0 1 0 31.09zm0-28.35a12.81 12.81 0 0 0 -9.09 21.83 12.81 12.81 0 1 0 9.13-21.83z" fill="#000072"/><circle cx="1081.52" cy="860.47" fill="#ffe448" r="7.96"/><path d="m1087.66 855.42a7.94 7.94 0 0 1 -13.59 5.86c-.18-.18-.34-.36-.5-.55a8 8 0 1 0 14.09-5.31z" fill="#000072" opacity=".3"/><path d="m1014.41 795.34a95.18 95.18 0 0 1 -8.21-5.07 63.44 63.44 0 0 1 -7.67-6.07 25.47 25.47 0 0 1 -3.39-3.91 12 12 0 0 1 -1.34-2.57 6.49 6.49 0 0 1 -.33-3.45 5.75 5.75 0 0 1 1.79-3.15 8.85 8.85 0 0 1 2.64-1.65 7.3 7.3 0 0 1 3.19-.52 7.71 7.71 0 0 1 3 .87 10.43 10.43 0 0 1 4 4 11.1 11.1 0 0 1 1.57 5.37 7.33 7.33 0 0 1 -.56 3 5.92 5.92 0 0 1 -2 2.53 7 7 0 0 1 -2.81 1.13 11.52 11.52 0 0 1 -2.73.13 21.43 21.43 0 0 1 -5-1.06 39.74 39.74 0 0 1 -4.51-1.83 34.38 34.38 0 0 1 -4.23-2.28 15.17 15.17 0 0 1 -3.62-3.23s0-.06 0-.07 0 0 0 0a21.84 21.84 0 0 1 4.58 1.41c1.44.59 2.81 1.29 4.24 1.85a38.27 38.27 0 0 0 4.3 1.47 18.12 18.12 0 0 0 4.28.67 5.65 5.65 0 0 0 3.45-.87 3.06 3.06 0 0 0 1-2.74 7.66 7.66 0 0 0 -3.88-6 3.26 3.26 0 0 0 -2.87-.07 4.65 4.65 0 0 0 -1.3.88 1.45 1.45 0 0 0 -.48.87 2.35 2.35 0 0 0 .2 1.18 8.23 8.23 0 0 0 .89 1.57 21.11 21.11 0 0 0 2.86 3.11 86 86 0 0 0 15 10.31h.06a2.36 2.36 0 0 1 -2.3 4.11z" fill="#000072"/><path d="m986.59 887.56c75.51-38.53 107 32.88 107 32.88 35.71-38.53 77.06-7.45 77.06-7.45 19.27-55.23 71.15-34.22 71.15-34.22s-5.89 38.07-66 50.4a17.55 17.55 0 0 1 -3.44 2.05c-60.2 17-123.09 3.31-173.15-34.22z" fill="#fff"/></svg>