<svg viewBox="0 0 1052 757" xmlns="http://www.w3.org/2000/svg" xmlns:xlink="http://www.w3.org/1999/xlink"><linearGradient id="a" gradientTransform="matrix(-1 0 0 1 -248 0)" gradientUnits="userSpaceOnUse" x1="-1252.69" x2="-268.12" y1="385.91" y2="385.91"><stop offset="0" stop-color="#b37cff"/><stop offset="1" stop-color="#f895e7"/></linearGradient><linearGradient id="b" x1="-1232.3" x2="-288.19" xlink:href="#a" y1="392.05" y2="392.05"/><g opacity=".7"><path d="m919.24 343.63c25.71-46.9 82.46-88.73 69.12-147.45-12.58-55.38-98.47-106.62-153.06-74.18-34.77 20.66-50.48 52-94.94 56.88-34 3.74-78.11 1.64-105-21.47-20.67-17.76-33.66-37.44-59.25-50.49-44.33-22.61-97.77-25.07-146.9-20.58-71.49 6.52-100 78.59-161.92 101.3-38 13.92-81.23 8.18-119.89.07-35.86-7.53-83.83-29.59-111.08 6.09-26.16 34.25-17.16 103.49 2.49 139.2 13.43 24.34 45.64 33.92 57.19 60 11.85 26.7-6.73 51-24.74 70.71-41.4 45.34-34.19 181.29 46.98 185.56 38.86 2.05 77.79-16.72 116.46-7.38 31.69 7.66 52.26 36.55 85.82 39.79 31.88 3.08 62.64-3 91.59-15.24 32.87-13.92 63.6-31.34 100.07-35.28 34.56-3.73 72.29-.9 106.76 2.85 29.25 3.17 58.13 9.3 85.54 19.62 25.93 9.77 50.34 27.44 78.69 30.11 66 6.21 151.75 10.52 199.45-42.32 29.43-32.62 28.17-82 3.62-116.8-14.79-21-44.31-26-57.66-44.79-21.19-29.83-27.1-103.83-9.34-136.2z" fill="url(#a)" opacity=".5"/><path d="m902.36 352.45c19.93-35.51 57.49-64.75 66.15-105.25 8.11-37.94-15.46-71.44-48.92-91.84-31.6-19.26-66.74-25.65-100.88-7.93-30.88 16-49.93 46.59-87.87 50.67-32.64 3.51-74.91 1.54-100.71-20.11-19.82-16.64-32.27-35.08-56.81-47.31-42.5-21.18-93.75-23.48-140.86-19.28-68.55 6.12-95.86 73.64-155.27 94.91-36.41 13-77.89 7.67-115 .07-34.39-7.06-80.38-27.72-106.52 5.7-25.03 32.08-16.4 96.92 2.44 130.36 12.89 22.85 43.77 31.83 54.89 56.29 11.35 25-6.46 47.79-23.73 66.24-39.73 42.45-32.81 169.8 45 173.82 37.26 1.93 74.59-15.66 111.67-6.91 30.4 7.17 50.11 34.25 82.3 37.28 30.57 2.88 60.06-2.78 87.83-14.28 31.51-13 61-29.36 95.95-33 33.14-3.5 69.32-.84 102.37 2.66 28.05 3 55.75 8.72 82 18.39 24.87 9.16 48.27 25.71 75.47 28.21 63.3 5.82 145.5 9.86 191.24-39.65 28.23-30.56 27-76.83 3.48-109.43-14.19-19.64-42.49-24.37-55.29-42-20.29-27.96-25.96-97.27-8.93-127.61z" fill="url(#b)" opacity=".5"/></g><path d="m169.89 585.21h699a18.07 18.07 0 0 1 18.11 18.08v5.37a0 0 0 0 1 0 0h-735.19a0 0 0 0 1 0 0v-5.37a18.07 18.07 0 0 1 18.08-18.08z" fill="#a19de3"/><rect fill="#23257d" height="42.85" rx="8.15" width="89.89" x="354.02" y="296.88"/><rect fill="#23257d" height="42.85" rx="8.15" width="89.89" x="601.44" y="294.08"/><path d="m745.54 408.66c-24.84-80.73-73.9-93.15-113-90.67s-58.38 13.66-104.95 13.66h-5.1c-46.57 0-65.82-11.17-105-13.66s-88.18 9.94-113 90.67-22.35 181.34 34.79 175.74 56.51-71.4 139.1-71.4h93.28c82.59 0 82 65.82 139.1 71.41s59.62-95.02 34.78-175.75z" fill="#4b4eba"/><path d="m595.66 358.12v-35c-19.75 4-38.35 8.5-68.09 8.5h-5.1c-29.74 0-48.34-4.55-68.09-8.49v35a8.15 8.15 0 0 0 8.15 8.15h125a8.15 8.15 0 0 0 8.13-8.16z" fill="#23257d"/><path d="m579.61 330.83-36.3 21a3.14 3.14 0 0 0 -1.15 4.3 3.14 3.14 0 0 0 4.29 1.15l36.3-21a3.14 3.14 0 0 0 1.15-4.3 3.14 3.14 0 0 0 -4.29-1.15z" fill="#4b4eba"/><path d="m533.5 334.79-14.17 8.21a3.15 3.15 0 0 0 -1.15 4.3 3.15 3.15 0 0 0 4.3 1.15l14.16-8.18a3.15 3.15 0 0 0 1.16-4.3 3.15 3.15 0 0 0 -4.3-1.18z" fill="#4b4eba"/><path d="m582.4 346.67-14.16 8.18a3.14 3.14 0 0 0 -1.16 4.29 3.14 3.14 0 0 0 4.3 1.15l14.17-8.18a3.14 3.14 0 0 0 1.15-4.29 3.15 3.15 0 0 0 -4.3-1.15z" fill="#4b4eba"/><circle cx="413.95" cy="456.01" fill="#2d30a1" r="43.47" transform="matrix(.70710678 -.70710678 .70710678 .70710678 -201.2 426.27)"/><path d="m435.07 446.54h-11.49v-11.49a5.74 5.74 0 0 0 -5.75-5.74h-6.83a5.74 5.74 0 0 0 -5.74 5.74v11.49h-11.49a5.75 5.75 0 0 0 -5.75 5.74v6.83a5.75 5.75 0 0 0 5.75 5.75h11.49v11.49a5.74 5.74 0 0 0 5.74 5.74h6.83a5.74 5.74 0 0 0 5.75-5.74v-11.49h11.49a5.74 5.74 0 0 0 5.74-5.75v-6.83a5.74 5.74 0 0 0 -5.74-5.74z" fill="#23257d"/><circle cx="629.39" cy="456.01" fill="#2d30a1" r="43.47" transform="matrix(.22971002 -.97325912 .97325912 .22971002 40.97 963.79)"/><circle cx="629.39" cy="456.01" fill="#23257d" r="27.38" transform="matrix(.22971002 -.97325912 .97325912 .22971002 40.97 963.79)"/><circle cx="374.47" cy="371.4" fill="#2d30a1" r="22.82"/><circle cx="374.47" cy="371.4" fill="#23257d" r="14.37" transform="matrix(.70710678 -.70710678 .70710678 .70710678 -152.94 373.57)"/><circle cx="665.15" cy="347.64" fill="#e85454" r="8.38" transform="matrix(.92 -.38 .38 .92 -82.41 281)"/><circle cx="665.15" cy="384.54" fill="#faaa5a" r="8.38"/><circle cx="683.6" cy="366.09" fill="#7ecc85" r="8.38"/><circle cx="646.7" cy="366.09" fill="#f0d1ff" r="8.38"/><circle cx="485.99" cy="395.15" fill="#696bc9" r="6.52"/><circle cx="558.59" cy="395.15" fill="#696bc9" r="6.52"/><circle cx="772.43" cy="512.83" fill="#faaa5a" r="73.59"/><path d="m778.82 474.73 5.37 16.51a5.75 5.75 0 0 0 5.47 4h17.34a5.75 5.75 0 0 1 3.38 10.4l-14 10.21a5.75 5.75 0 0 0 -2.08 6.43l5.36 16.51a5.75 5.75 0 0 1 -8.85 6.43l-14-10.21a5.76 5.76 0 0 0 -6.76 0l-14.05 10.21a5.75 5.75 0 0 1 -8.85-6.43l5.37-16.51a5.76 5.76 0 0 0 -2.09-6.43l-14.05-10.21a5.75 5.75 0 0 1 3.38-10.4h17.36a5.74 5.74 0 0 0 5.47-4l5.37-16.51a5.74 5.74 0 0 1 10.86 0z" fill="#fae56e"/><path d="m739.59 254.46 7.75-16.85a11.29 11.29 0 0 0 -20.51-9.45l-7.76 16.84-16.84-7.75a11.29 11.29 0 1 0 -9.45 20.51l16.85 7.76-7.76 16.85a11.29 11.29 0 0 0 20.51 9.44l7.76-16.81 16.86 7.73a11.29 11.29 0 0 0 9.45-20.51z" fill="#ffeed6"/><circle cx="224.7" cy="539.84" fill="#2b1710" r="44.71"/><path d="m328.1 336.47h23.29v7.14h-23.29z" fill="#2b1710"/><path d="m256 519.66h-3.57v-84.07a18.34 18.34 0 0 1 18.32-18.32 14.76 14.76 0 0 0 14.75-14.74v-46.53a18.34 18.34 0 0 1 18.32-18.32h27.25v3.57h-27.27a14.77 14.77 0 0 0 -14.75 14.75v46.58a18.33 18.33 0 0 1 -18.32 18.31 14.77 14.77 0 0 0 -14.73 14.7z" fill="#2b1710"/><path d="m387.94 216.44-30.03-42.27 48.53-18.26z" fill="#e85454"/><path d="m374.05 184.21h64.5v9.4h-64.5z" fill="#e85454" transform="matrix(.29220479 -.95635577 .95635577 .29220479 106.89 522.26)"/><path d="m778.58 424.54-7.18 10.71s-1.75 13.67 12.05 15.54 47.25-2.44 47.25-2.44l-.78 17.23s13.56-1 17.32-6.72l-.32-9.23a15.7 15.7 0 0 0 -9.92-10.87 73.13 73.13 0 0 0 -7.21-2.45c-4.67-1.12-17.76-3.56-22.56-4.28a18.64 18.64 0 0 1 -4.39-1.24l-3.62-1.23a11.35 11.35 0 0 1 -4.17-2.55c-.58-.57-1.11-1.09-1.37-1.31-1.42-1.19-2.41.36-4 .17z" fill="#2a033e"/><path d="m829.74 384.19-6.58 10a1.06 1.06 0 0 1 -.67.45 1 1 0 0 1 -.79-.17l-5-3.5a1 1 0 0 1 -.29-1.39l6.19-10.12a1.06 1.06 0 0 1 .54-.44 1 1 0 0 1 .92.12l5.39 3.59a1.05 1.05 0 0 1 .46.71 1.1 1.1 0 0 1 -.17.75z" fill="#4a175c"/><path d="m828.25 384.39-4.73 7.17a.68.68 0 0 1 -.94.18l-3.89-2.64a.67.67 0 0 1 -.19-.91l4.61-7.19a.68.68 0 0 1 .94-.19l4 2.65a.67.67 0 0 1 .2.93z" fill="#9537bf"/><path d="m841.57 465 3.92 4.14-4 26.24s1.66 11.47 2.31 13.91 4.06 4.73 2.81 6.2-3.43.47-4.46-.8-4.55-2.77-5.77-5.86a22 22 0 0 0 -4.82-7.2c-2-2.2-2.15-4.13-1.28-5.44a11.66 11.66 0 0 1 3.44-2.66l-.83-30.36z" fill="#ffb589"/><path d="m844.42 471.38.49 1.54-3.38 22.44s1.66 11.47 2.31 13.91c.59 2.22 3.45 4.31 3 5.78a14.5 14.5 0 0 0 -2.92-4.4c-.92-.62-3.19-15.17-3.19-15.17s3.4-24.05 3.69-24.1z" fill="#ffcfb6"/><path d="m837.09 464.81-.12 29s-4.11 2.86-3.41 5.12 2.87 2.67 4.07 6.87 5.55 4.86 5.75 7.42c.14 1.81 1.11 2.53 3.2 2.31-1.25 1.36-3.38.37-4.39-.88s-4.55-2.77-5.77-5.86a22 22 0 0 0 -4.82-7.2c-2-2.2-2.15-4.13-1.28-5.44a11.66 11.66 0 0 1 3.44-2.66l-.83-30.32z" fill="#ff9663"/><path d="m839 458.66 5.71.09 16 21.17s9.36 6.84 11.56 8.08 6.22.4 6.4 2.32-2.07 2.78-3.67 2.68-5.16 1.31-8.22 0a22 22 0 0 0 -8.53-1.59c-3-.1-4.45-1.35-4.78-2.88a11.74 11.74 0 0 1 .51-4.32l-22.29-20.63z" fill="#ffb589"/><path d="m842.55 458.72h2.17l16 21.17s9.36 6.84 11.56 8.08c1.69.95 4.43.68 5.71 1.37-2.16-.41-5.21-.14-5.94-.59-1-.59-11.8-8.16-11.8-8.16z" fill="#ffcfb6"/><path d="m857.62 488.72c2.08.82 6.54-.27 8.91 1.6s5.91-.4 8 .36a5.2 5.2 0 0 0 4.13.13c-.2 1.58-2.2 2.28-3.68 2.15s-5.16 1.31-8.22 0a22 22 0 0 0 -8.53-1.59c-3-.1-4.45-1.35-4.78-2.88a11.74 11.74 0 0 1 .51-4.32l-22.29-20.63 4.35-2.91 20 21.79s-.48 5.48 1.6 6.3z" fill="#ff9663"/><path d="m772.22 425.35-8 10.14s-2.77 13.51 10.85 16.41 47.3 1.18 47.3 1.18l8.94 14.8s10.47-3.54 14.65-9l-13.38-16.78s-1.84-2.5-8.43-3.06-24.15-5-24.15-5l-18.63-12.9z" fill="#4a175c"/><path d="m800 434.05s17.56 4.44 24.15 5 8.43 3.06 8.43 3.06l13.42 16.77a15.2 15.2 0 0 1 -1.55 1.69l-12.49-16.49a9.37 9.37 0 0 0 -6.77-3c-4.63-.25-25.75-4.18-30.24-7.24-1.88-1.28-3-3.59-3.69-5.84z" fill="#7d31a9"/><path d="m769.79 428.44 21.53 1.74 5 10.14a19.34 19.34 0 0 0 -6.29-3.5 35.31 35.31 0 0 0 -7.46-1.38s-10.3 5.45-6.36 9.09 24.27 4.56 30.26 4.87 21.92-2 21.92-2l-3.15 3.54s6.93 8.29 11.93 14.47a50.25 50.25 0 0 1 -5.85 2.5l-8.94-14.8s-33.67 1.74-47.3-1.18-10.83-16.41-10.83-16.41z" fill="#3a114c"/><path d="m792.27 386.89c-2.9-4.24-.42-9.45-2.83-13.11s1-5.9-1.91-9.84c-2.23-3-1-8.48-2.77-11a12.2 12.2 0 0 0 -9.62-5.64c-5.49-.6-11.43 1-12.45 5.06 0 0-5.6 1.68-5.52 9.79.07 6.63 3.2 9.21.94 13.09s.66 6.79-.5 10.83-4.21 6.37-2.16 11.88c1.18 3.19 5.8 3.29 4.46 9.1s.52 7.52 3.79 10.84c5.42 5.53 13.25 4.45 13.25 4.45z" fill="#4a175c"/><path d="m763.7 417.86c-3.27-3.32-5.14-5-3.79-10.84s-3.28-5.91-4.46-9.1c-2.05-5.51 1-7.84 2.16-11.88s-1.77-7 .5-10.83-.87-6.46-.94-13.09a11.2 11.2 0 0 1 2.14-7.25 8.06 8.06 0 0 0 0 5.31c1.56 4.5 5.62.45 5.62.45s.44 4.44-.93 6.64 7.23 5.86 7.23 5.86l9-7.3 2.77-3.33h1.8a5.52 5.52 0 0 1 1.9 6.74c-1.82 4.24 3.63 7 1.74 11.78s-14.1 13.62-14.1 13.62l3.66 25.36-1 2.3s-7.88 1.09-13.3-4.44z" fill="#3a114c"/><path d="m772.15 387.62 3.43-4.4c.44-1.9 1.42-2.56 3.38-2.73l11.21.47c1.32 0 2.85.19 3.55 1.32.29.46 1.43 2 1.43 2l9.42 22.87 9.3-13.27.69-1.52s0-3.57.08-4.86 3.6-2.94 4.78-3.47 1.93-1.25 2.17-.95.31 1.66-1.31 2.84c-1.23.89-2.09 1.53-2.09 1.53a5.27 5.27 0 0 1 .17 3.6l2.08 2.48a1.24 1.24 0 0 0 .81.42 1.19 1.19 0 0 0 .92-.33c1-.95 1.66-2.31-1-4.14-.82-.56 1.61-2.74 2.19-3.28s1.9.28 1.9.28.11-.16-.2-.71-1.2-.79-.81-1.26.77-.83 2.27-.18 2.1 4.18 2 5.36-2.22 1.87-2.61 3.4-3.85 2.21-3.85 2.21l-2.78 1.21c-2.47 4.67-7.09 13.47-8.7 17-2.23 4.89-5.13 7.54-7.3 7.13-3.11-.59-5.28-5.08-5.28-5.08l-13-22.89-21.1 13.63c.48-1.92-5.44-13-4.95-15.28 1-2.33 6-2.4 6.91-4.76 1-2.62 5.83 3.78 6.83 1.15z" fill="#ffb589"/><path d="m789.42 381.38a.66.66 0 0 1 .65-.45l1.69.1a3.07 3.07 0 0 1 1.69.7 3.73 3.73 0 0 1 1.24 1.41l9.58 23.28s-8.62-20.13-10.16-22.15c-1.18-1.53-2.18-1.19-4.09-2-.4-.22-.74-.48-.6-.89z" fill="#ffcfb6"/><g fill="#ff9663"><path d="m819.7 383.89a29.85 29.85 0 0 0 -4 3.37c-.39.3.17 4.22.29 5s-1.07 2.11-1.07 2.11a121.11 121.11 0 0 1 -7.23 10.6 31.46 31.46 0 0 0 -4.2 6.79c-.72-1.67 1.09-4.62 1.09-4.62l9.3-13.27.69-1.52s0-3.57.08-4.86 3.62-3.05 5.05-3.6z"/><path d="m785 392.65-3.75-.19 4.91-5s14.41 27.2 16 29.93c1.17 2 4 1.45 5.39 1-1.48 1.66-3 2.46-4.25 2.22-3.11-.59-5.28-5.08-5.28-5.08z"/><path d="m765.17 392.16s.79 11.29-1.27 14.14l.77 1.69 3.26-2-.4-9.82z"/><path d="m760.2 389.45a9.15 9.15 0 0 0 -.32-2.27l1.5-.91 4-1.1.47 1.09-4.41 4.36z"/></g><path d="m785 380.77 3.5.12c.78 9.79 6.07 15.88 4.66 22.49-1.17 5.52-2.52 5.44-2.88 11s5.23 12.62 5.23 12.62-7.23 1.18-12.11 5.31-7.84 12.45-17.75 14.42a32 32 0 0 1 -.89-19.33c2.88-10.51 1.08-12.74-1.14-17.45 0 0 7.22-10-2.24-23.65l3.29-2.08 7.37.7z" fill="#9537bf"/><path d="m790.58 405.68c2.28-3.13 1.36-9.32-.4-13.87a24.45 24.45 0 0 1 -1.41-8.44c1.35 8.37 5.65 14 4.36 20-1.17 5.52-2.52 5.44-2.88 11s5.26 12.63 5.26 12.63a24.26 24.26 0 0 0 -2.53.59c-.93-2.41-2.24-5.77-3.32-8.58a16.6 16.6 0 0 1 -.79-9.34c-1.78 1.15-3.71-.37-3.71-.37a8.93 8.93 0 0 0 5.42-3.62z" fill="#d259ee"/><path d="m763.62 409.92s7.22-10-2.24-23.65l3.29-2.08 1.53.15c.26.76.44 1.32.44 1.32s-1.78.88-1.93 2.21 4.86 8.25 4.29 13 2.92 9.65 5.4 9.28a5.89 5.89 0 0 1 -3.26 2.74c-2.25.7-3.92 16.53-1.57 19.08 1.72 1.88 8 2.68 11.28 3-3.65 4.34-7.8 10.54-15.9 12.15 0 0-7.57-7.27-2.82-19.25 4.03-10.19 3.71-13.24 1.49-17.95z" fill="#73269f"/><path d="m783 362.5s3.91 13.25-4.5 16l1 2.76 5.49-.49s.5 4.76-6.53 7.5-13.77-4.08-13.77-4.08l4.68.58-.72-8a36 36 0 0 1 -3.4-5.78 4.69 4.69 0 0 1 -2.21-3.58c-.35-2.63 1.87-2.07 2.43-.9 0 0 4.32-3.61 3.94-7 0 0 4.7 2.15 6.8.36s4.7 3.89 6.79 2.63z" fill="#ffb589"/><path d="m773.06 379.38a14.16 14.16 0 0 1 -.33 3.31c-.11.43-3.53 2.89-6.09 3a4.86 4.86 0 0 1 -2-1.47l4.39-2.66-.43-4.79a36 36 0 0 1 -3.4-5.78 4.69 4.69 0 0 1 -2.21-3.58c-.35-2.63 1.87-2.07 2.43-.9 0 0 .15-.12.39-.35 1.47 5.39 4.52 11.15 9.43 11.39 5.52.27 7.39-2.63 7.48-2.77a7 7 0 0 1 -4.29 3.75 9.42 9.42 0 0 1 -5.37.85z" fill="#ff9663"/><path d="m746.84 421.15 9.47-29c.83-2.18 1.23-3.62 3.57-4.94 1.42-.8 1.49 5.6 2 5.89 2 1.22-.89 4.47 1.12 5.63 1.16.67.63 2.52 1.47 3.57 1.12 1.38-.93 2.79-.48 3.06l-7.31 18.36s10.56 3.21 20.46 5.07c2.36-1.81 9.56-5.31 11.33-4.9 2 .46 2 2.23 3.76 3.54a5.27 5.27 0 0 1 2 3.29c1.65.86 2.24 2.47 1.46 3.49s-2-1.84-4.4-1.68c-2 .13-8.14 2-10.48 2.69a8.27 8.27 0 0 1 -1.12.25c-.25 0-.51.06-.78.07-5.83.19-25.76-3.08-29.76-5.38-4.72-2.71-2.31-9.01-2.31-9.01z" fill="#ffb589"/><path d="m746.84 421.16 9.47-29c.84-2.18 1.23-3.63 3.57-4.95.85-.48 1.22 1.64 1.48 3.47a12.32 12.32 0 0 0 -2.65 4.69c-1.36 4.76-7.85 24.2-8.22 27.38s-.79 5.13 3 6c3.11.74 22.71 5.68 25 5.19s9.33-3.37 11.89-3c1.86.24 4.12 2.25 5.24 3.35-.79.81-2-1.9-4.34-1.74-2 .13-8.14 2-10.48 2.68a6.14 6.14 0 0 1 -1.11.25 6.85 6.85 0 0 1 -.78.07c-5.84.2-25.76-3.08-29.77-5.37-4.71-2.73-2.3-9.02-2.3-9.02z" fill="#ff9663"/><path d="m782.89 374.43a35.54 35.54 0 0 0 .39-4 33.75 33.75 0 0 0 -.93-7.79 1.19 1.19 0 0 0 .61-.18s2.04 7.09-.07 11.97z" fill="#ffcfb6"/><path d="m788.54 370.33s.23-3.62-.91-5.19a11.74 11.74 0 0 1 -2.52-5.85c-.09-2.09-.2-5.48-2.25-7.32a14.86 14.86 0 0 0 -11.65-3.88c-5.49.64-7.34 3.79-7.52 4.64a4 4 0 0 1 2.08 1.74 5.93 5.93 0 0 0 -5.23-.88 6.8 6.8 0 0 1 2.15-1.26c1-4.06 7-5.66 12.45-5.06a12.2 12.2 0 0 1 9.62 5.64c1.81 2.55.54 8 2.77 11 1.92 2.6 1.13 4.44 1.01 6.42z" fill="#7d31a9"/><path d="m769.45 378.67a1 1 0 0 0 .63-.53.91.91 0 0 0 0-.61l-.36-1.42a1 1 0 0 0 -.85-.7h-.3a1 1 0 0 0 -.63.54 1 1 0 0 0 0 .6l.37 1.42a.88.88 0 0 0 .12.28.94.94 0 0 0 1.02.42z" fill="#ff669c"/><path d="m768 376a.55.55 0 0 0 0 .18l.36 1.42a.9.9 0 0 0 .13.28 1 1 0 0 0 1 .39 1 1 0 0 0 .62-.53 1 1 0 0 1 -.06.43 1 1 0 0 1 -.63.53.94.94 0 0 1 -1-.39.88.88 0 0 1 -.12-.28l-.37-1.42a1 1 0 0 1 .07-.61z" fill="#ff4570"/><path d="m765 410.75s7.62 3.61 9.35 3.15 8.32-1.61 9.24-1.2c0 0 1 1.67.26 2.77s-7.19 4.07-9.51 4.18-11.09-1.48-13-2.94z" fill="#e8945b"/><path d="m782.25 413.51s.67-3.11 2.33-3.13a6 6 0 0 1 3.63.81c.51.5-.37 2.3-1.26 2.65s-3.29 1.65-3.29 1.65z" fill="#e8945b"/><path d="m756.39 396.06a0 0 0 0 1 0 0z" fill="#ffb27d"/><path d="m785.71 464.2a8.6 8.6 0 0 1 -4.94 1.58s-3-3.3-5.52-6.5c-1.64-2.06-3.08-4.09-3.37-5.14-.75-2.67-14.85-3.43-16.58-5.31s7-6.61 7-6.61 14.31 2.19 16.46 5a39.37 39.37 0 0 1 3.36 7.15c1.85 4.69 3.58 9.83 3.58 9.83z" fill="#e8945b"/><path d="m774.17 461.22a79.54 79.54 0 0 1 -4.63 9.23v.06c-.46 0-4.38-.09-4.77-1.67 0 0-.12-5.46.09-9.8a23.65 23.65 0 0 1 .54-4.56s-21.31-.14-20.94-6.17 11.52-9.21 17.93-6.09c0 0 8.49 3.09 13 7.16 2.19 2 .84 7.14-1.1 11.84z" fill="#ffb27d"/><path d="m745 439.86s-2.84 4.17-2.18 8.06 8.76 6 14.43 6.22c0 0 16.21-3.71 13.69-10.17-.57-1.47-25.94-4.11-25.94-4.11z" fill="#2b478b"/><path d="m750.9 388.6s-2.57-5.26-8.79-2.05-.16 15.37-3.42 18.4 1.18 5 .51 7.19 1.23 4.65 5.59 4.36 8.93-.05 10.89-3.86 1.52-12.18.76-13.36-5.54-10.68-5.54-10.68z" fill="#aa443e"/><path d="m761 417.48-10.6-6.38c.06 0 .28-.34 1.07-2.63a13.49 13.49 0 0 0 .6-2.49 1.36 1.36 0 0 0 0-.2 6.66 6.66 0 0 0 0-1.53l2.32.83 4.28 1.56a5.15 5.15 0 0 0 .34 2.37 1.9 1.9 0 0 0 1.62 1.28z" fill="#ffb27d"/><path d="m759.06 409a8 8 0 0 1 -7-3 1 1 0 0 1 -.11-.16h.13l2.35-.7 4.28 1.55a5.17 5.17 0 0 0 .34 2.38z" fill="#ed985f"/><path d="m759.26 407.52s-9.19 1-9.38-5.2-1.55-9.07 4.81-9.62 7.87 1.74 8.24 3.84c1.17 6.57-1.08 10.7-3.67 11z" fill="#ffb27d"/><path d="m755.19 395.73c-3.26-.82-2 4.95-2.83 4.55s-2.51-.43-2.26.67a20.92 20.92 0 0 0 .8 2.21c.19.69 0 2.07-.76 1.79s-7.79-8.31-2.82-14.57 19.78-2.41 15.12 4.14c-.82 1.15-4.93 1.8-7.25 1.21z" fill="#aa443e"/><path d="m767 442.22a15.93 15.93 0 0 1 -7.12 1.39 49.24 49.24 0 0 1 -12.44-2.61c-2.15-.78-3.63-1.6-3.45-2.3.26-1 2.1-8.71 3.81-15.84l3-12.57s4.31 3.06 6.82 2 2.19-2.3 2.19-2.3a29.68 29.68 0 0 1 3.76-.26 49.21 49.21 0 0 1 5.8 1.79s.59 1.67-1 4.28a5.69 5.69 0 0 1 -2.58 2.58s3.7 11.65 1.19 23.86z" fill="#acd29a"/><path d="m747.44 441c-2.15-.78-3.63-1.61-3.45-2.3.26-1 2.1-8.71 3.81-15.85.5-.92.82-1.47.82-1.47s3.24 14.8-1.18 19.62z" fill="#88b374"/><path d="m750.91 411.12s-8.18 1.74-11.41 14.45a3.87 3.87 0 0 0 .87 3.53c1.49 1.64 4.76 4 12.36 4.93.83.1.94-2 .94-2a54.55 54.55 0 0 1 -7.33-5.14 1.2 1.2 0 0 1 -.09-1.47 33.17 33.17 0 0 0 2.37-4c.6-1.44 4.58-9.59 2.29-10.25z" fill="#ffb27d"/><path d="m750.8 410.29s-4.81.34-8.73 5.57c0 0 1.33 4.81 7.56 6.1 0 0 3.84-8.66 1.17-11.67z" fill="#acd29a"/><path d="m774.17 461.22a79.54 79.54 0 0 1 -4.63 9.23l-.08.06c-.46 0-4.38-.09-4.77-1.67 0 0-.12-5.46.09-9.8.63.6 3 2.39 9.39 2.18z" fill="#ebf2f9"/><path d="m785.71 464.2a8.6 8.6 0 0 1 -4.94 1.58s-3-3.3-5.52-6.5a27.61 27.61 0 0 0 6.88-4.91c1.85 4.69 3.58 9.83 3.58 9.83z" fill="#ebf2f9"/><path d="m775.57 476.4a.9.9 0 0 1 -1.07.72 42.54 42.54 0 0 1 -4.2-1c-1.25-.45-3.65-1.87-4.9-2.33l-2.14-.84a.76.76 0 0 1 -.43-.91 15.9 15.9 0 0 1 1.26-3.15 1.12 1.12 0 0 1 .52-.46 4.91 4.91 0 0 0 3 1.1 6.48 6.48 0 0 0 2.74-.58c.09.17 1.8 3.62 3 4.06a3 3 0 0 1 2.16 3.41z" fill="#6488d3"/><path d="m793.45 464.24a.91.91 0 0 1 -.4 1.23 40.49 40.49 0 0 1 -3.92 1.79c-1.26.42-4 .8-5.29 1.21-.44.15-1.51.46-2.21.66a.73.73 0 0 1 -.89-.44 15.86 15.86 0 0 1 -1-3.26 1.2 1.2 0 0 1 .13-.68 4.87 4.87 0 0 0 3.07-1 6.7 6.7 0 0 0 1.8-2.16c.17.09 3.65 1.73 4.87 1.33a3 3 0 0 1 3.81 1.34z" fill="#6488d3"/><path d="m753.37 431.81s2.65-.49 3.69.19 1.35 1.74.6 2.18a4.84 4.84 0 0 1 -4.72-.15z" fill="#ffb27d"/></svg>