<svg viewBox="0 0 1092.77 1121.36" xmlns="http://www.w3.org/2000/svg"><rect fill="#bbd5f9" height="1121.36" rx="249.19" width="1092.77"/><path d="m846.38 348.4a177 177 0 0 0 -131.75-84.75 183.76 183.76 0 0 0 -64.5 7 290.44 290.44 0 0 0 -95.5 51.25l-8.25 7.25-3-2.5a321.73 321.73 0 0 0 -47-32.25 207.3 207.3 0 0 0 -118.25-30.75 153.9 153.9 0 0 0 -35.5 7 171.54 171.54 0 0 0 -68.5 44.75 262.63 262.63 0 0 0 -27.75 33c-95.75 136.75 97.5 344 211.75 448 14 12.75 26.75 25 37.75 33.25 16.25 14 28.5 23.75 34.5 28.5h31c42.75-33.25 410-331.25 285-509.75z" fill="#a30f36"/><path d="m543.63 427.4-45.5 2-25 59.25-20 50h-31.75v50h50l23.25-15.75 9.75-25 19.5-50 19.5 40.75 5.75-11.25 22.25-13.75h15.5zm302.75-79a177 177 0 0 0 -131.75-84.75 183.76 183.76 0 0 0 -64.5 7 290.44 290.44 0 0 0 -95.5 51.25l-8.25 7.25-3-2.5a321.73 321.73 0 0 0 -47-32.25 207.3 207.3 0 0 0 -118.25-30.75 153.9 153.9 0 0 0 -35.5 7 171.54 171.54 0 0 0 -68.5 44.75 262.63 262.63 0 0 0 -27.75 33c-95.75 136.75 97.5 344 211.75 448 14 12.75 26.75 25 37.75 33.25 16.25 14 28.5 23.75 34.5 28.5h31c42.75-33.25 410-331.25 285-509.75zm-46.5 165.25h-128.5l-22.25 13.75-18.25 36.25-9.5 19-34.5-69-43.25-86.25-45.5 2-25 59.25-20 50h-31.75v50h50l23.25-15.75 9.75-25 19.5-50 19.5 40.75 28 56 27.75 55.25h44.5l43.25-86.25h84.5a1195.68 1195.68 0 0 1 -225 242.75l-12-10.25c-11.75-9.75-25-21-38-33.25a1161.47 1161.47 0 0 1 -158.75-175c-5.75-8-11.25-15.75-16.25-23.75-45.25-70.25-67.5-139.25-33.5-187.75a158.5 158.5 0 0 1 56.5-52.5 100 100 0 0 1 37.75-10.25 57.14 57.14 0 0 1 9.25 0 133.72 133.72 0 0 1 46.5 8.75l11.5 4.25a258.82 258.82 0 0 1 47 27 268.32 268.32 0 0 1 32.25 26.5h35.75a272.52 272.52 0 0 1 84-55.5 137.8 137.8 0 0 1 62-11 44.53 44.53 0 0 1 8 0 133 133 0 0 1 86.5 62c25.75 38 19.25 86.25-5 138zm-256.25-86.25-45.5 2-25 59.25-20 50h-31.75v50h50l23.25-15.75 9.75-25 19.5-50 19.5 40.75 5.75-11.25 22.25-13.75h15.5z"/></svg>