<svg viewBox="0 0 1092.77 1121.36" xmlns="http://www.w3.org/2000/svg"><rect fill="#eefff1" height="1121.36" rx="249.19" width="1092.77"/><path d="m606 258.35c26-28.46 82.49-49.53 110.94-23.58 15.33 14 11.21 53.1 10.25 73.82a69.73 69.73 0 0 0 66.15 73.15 68.1 68.1 0 0 0 7 0c38.48-1.79 88.44 13.31 90.23 51.78 1 20.72-24.67 55.43-40 69.41a69.63 69.63 0 0 0 0 103.34c28.46 26 51 81.27 25 109.73-14 15.33-54.53 12.42-75.25 11.46a69.73 69.73 0 0 0 -73.15 66.15 68.1 68.1 0 0 0 0 7c1.83 38.48-6.17 91.64-44.62 93.39-20.72 1-62.55-27.83-76.55-43.15a69.63 69.63 0 0 0 -103.34 0c-25.95 28.46-83.37 61.21-111.82 35.25-15.33-14-10.33-64.77-9.37-85.49a69.73 69.73 0 0 0 -66.14-73.15 68.3 68.3 0 0 0 -7 0c-38.48 1.79-104.31-17.94-106.1-56.41-1-20.72 40.54-50.8 55.86-64.78a69.63 69.63 0 0 0 0-103.34c-28.46-25.95-63.3-81.05-37.35-109.51 14-15.32 66.87-12.64 87.59-11.68a69.74 69.74 0 0 0 73.05-66.26 68.84 68.84 0 0 0 0-6.89c-1.79-38.47 8-84.36 46.49-86.15 20.72-1 60.72 20.59 74.7 35.91a69.63 69.63 0 0 0 98.34 5.12 70.52 70.52 0 0 0 5.09-5.12z" fill="#fcc854" stroke="#000" stroke-miterlimit="10" stroke-width="16"/><circle cx="554.31" cy="554.71" fill="#fff35f" r="242.38" stroke="#000" stroke-miterlimit="10" stroke-width="10"/><path d="m554.31 731a242.36 242.36 0 0 1 -240.06-209.34 251.89 251.89 0 0 0 -2.32 33.05c0 133.86 108.52 242.38 242.38 242.38s242.38-108.52 242.38-242.38a251.89 251.89 0 0 0 -2.32-33.05 242.36 242.36 0 0 1 -240.06 209.34z" fill="#54596e" opacity=".15"/><circle cx="433.12" cy="503.15" r="22.03"/><circle cx="675.5" cy="503.15" r="22.03"/><path d="m631.43 593.27c0-17.3-154.24-17.3-154.24 0 0 29.53 34.48 53.1 77.12 53.1s77.12-23.57 77.12-52.77z"/><ellipse cx="554.31" cy="613.32" fill="#ff927d" rx="33.05" ry="11.02"/></svg>