<svg viewBox="0 0 1200 800" xmlns="http://www.w3.org/2000/svg" xmlns:xlink="http://www.w3.org/1999/xlink"><clipPath id="a"><path d="m0 0h1200v800h-1200z"/></clipPath><linearGradient id="b" gradientTransform="matrix(-1 0 0 1 -524 0)" gradientUnits="userSpaceOnUse" x1="-1616.28" x2="-631.72" y1="424.79" y2="424.79"><stop offset="0" stop-color="#b37cff"/><stop offset="1" stop-color="#f895e7"/></linearGradient><linearGradient id="c" x1="-1595.89" x2="-651.79" xlink:href="#b" y1="431.44" y2="431.44"/><linearGradient id="d" gradientUnits="userSpaceOnUse" x1="511.23" x2="643.94" y1="755.43" y2="596.32"><stop offset="0" stop-color="#2b3582"/><stop offset="1" stop-color="#150e42"/></linearGradient><linearGradient id="e" gradientTransform="matrix(-1 0 0 1 -1354.22 0)" x1="-2006.59" x2="-1875.09" xlink:href="#d" y1="608.58" y2="214.07"/><linearGradient id="f" gradientUnits="userSpaceOnUse" x1="598.88" x2="580.88" y1="378.87" y2="810.91"><stop offset="0" stop-color="#2c50ff"/><stop offset="1" stop-color="#1a1b80"/></linearGradient><linearGradient id="g" x1="598.93" x2="600.89" xlink:href="#d" y1="658.12" y2="703.13"/><linearGradient id="h" gradientUnits="userSpaceOnUse" x1="598.69" x2="594.69" y1="385.9" y2="999.9"><stop offset="0" stop-color="#53d8ff"/><stop offset="1" stop-color="#3840f7"/></linearGradient><linearGradient id="i" gradientUnits="userSpaceOnUse" x1="597.59" x2="598.23" y1="446.39" y2="513.97"><stop offset="0" stop-color="#cb236d"/><stop offset="1" stop-color="#4c246d"/></linearGradient><linearGradient id="j" x1="617.65" x2="351.63" xlink:href="#h" y1="474.72" y2="588.57"/><linearGradient id="k" gradientTransform="matrix(-.49 .87 -.87 -.49 -2233.83 -1799.36)" x1="879.32" x2="898.53" xlink:href="#i" y1="-3392" y2="-3392"/><linearGradient id="l" gradientUnits="userSpaceOnUse" x1="299.09" x2="301.12" y1="652.26" y2="602.73"><stop offset="0" stop-color="#f9b776"/><stop offset="1" stop-color="#f47960"/></linearGradient><linearGradient id="m" gradientTransform="matrix(-.88989456 .45616628 -.45616628 -.88989456 -1764.81 -2884.06)" x1="-276.07" x2="-269.49" xlink:href="#l" y1="-3930.74" y2="-3990.73"/><linearGradient id="n" gradientTransform="matrix(-.88989456 .45616628 -.45616628 -.88989456 -1764.81 -2884.06)" x1="-271.62" x2="-264.68" xlink:href="#l" y1="-3929.47" y2="-3992.76"/><linearGradient id="o" gradientTransform="matrix(.89 .46 .46 -.89 559.65 -2884.06)" x1="1374.09" x2="1381.02" xlink:href="#l" y1="-3081.17" y2="-3144.46"/><linearGradient id="p" gradientTransform="matrix(.89 .46 .46 -.89 559.65 -2884.06)" x1="1378.2" x2="1385.14" xlink:href="#l" y1="-3080.72" y2="-3144.01"/><linearGradient id="q" gradientTransform="matrix(.9999889 -.00471237 .00471237 .9999889 3.39 -1.85)" x1="316.7" x2="335.92" xlink:href="#i" y1="696.69" y2="696.69"/><linearGradient id="r" gradientTransform="matrix(.99764853 .06853767 -.06853767 .99764853 -110.73 35.05)" x1="482.26" x2="485.9" xlink:href="#l" y1="610.41" y2="521.66"/><linearGradient id="s" gradientTransform="matrix(.99764853 .06853767 -.06853767 .99764853 -110.73 35.05)" gradientUnits="userSpaceOnUse" x1="454.64" x2="493.58" y1="543.23" y2="543.23"><stop offset="0" stop-color="#fdf53f"/><stop offset="1" stop-color="#d93c65"/></linearGradient><linearGradient id="t" x1="454.23" x2="465.02" xlink:href="#s" y1="518.11" y2="532.82"/><linearGradient id="u" gradientTransform="matrix(.94022871 -.34054366 .34054366 .94022871 560.41 -296.22)" x1="-471.49" x2="-477.16" xlink:href="#l" y1="704.79" y2="659.45"/><linearGradient id="v" x1="329.65" x2="316.75" xlink:href="#h" y1="535.17" y2="615.24"/><linearGradient id="w" x1="317.43" x2="331.6" xlink:href="#l" y1="566.09" y2="512.97"/><linearGradient id="x" gradientTransform="matrix(.9 -.43 .43 .9 653.02 -351.77)" x1="-661.47" x2="-680.81" xlink:href="#d" y1="646.14" y2="609.17"/><linearGradient id="y" gradientTransform="matrix(.94022871 -.34054366 .34054366 .94022871 560.41 -296.22)" x1="-489.36" x2="-495.12" xlink:href="#l" y1="707.58" y2="661.52"/><linearGradient id="z" gradientTransform="matrix(.94022871 -.34054366 .34054366 .94022871 560.41 -296.22)" x1="-487.45" x2="-505.66" xlink:href="#d" y1="688.03" y2="653.22"/><linearGradient id="A" gradientTransform="matrix(.94022871 -.34054366 .34054366 .94022871 560.41 -296.22)" x1="-506.38" x2="-512.05" xlink:href="#l" y1="709.15" y2="663.81"/><linearGradient id="B" gradientTransform="matrix(.97756319 -.21064238 .21064238 .97756319 3582.66 -410.42)" x1="-2877.63" x2="-2856.94" xlink:href="#l" y1="360.53" y2="407.61"/><linearGradient id="C" gradientTransform="matrix(.97756319 -.21064238 .21064238 .97756319 3582.66 -410.42)" x1="-2877.08" x2="-2854.56" xlink:href="#l" y1="364.1" y2="415.36"/><linearGradient id="D" gradientTransform="matrix(-1 0 0 1 -120.66 0)" x1="-958.45" x2="-952.07" xlink:href="#l" y1="534.83" y2="534.83"/><linearGradient id="E" gradientTransform="matrix(-1 0 0 1 -120.66 0)" x1="-971.35" x2="-995.05" xlink:href="#i" y1="506.17" y2="527.09"/><linearGradient id="F" gradientTransform="matrix(-.98 -.18 -.18 .98 -665.03 -198.4)" x1="-1688.45" x2="-1669.22" xlink:href="#i" y1="436.02" y2="436.02"/><linearGradient id="G" gradientTransform="matrix(-.98 -.18 -.18 .98 -665.03 -198.4)" x1="-1634.42" x2="-1651.69" xlink:href="#i" y1="418.44" y2="444.67"/><linearGradient id="H" gradientTransform="matrix(-1 0 0 1 -120.66 0)" x1="-992.3" x2="-973.88" xlink:href="#i" y1="686.02" y2="686.02"/><linearGradient id="I" gradientTransform="matrix(-1 0 0 1 -120.66 0)" x1="-1015.62" x2="-1005.37" xlink:href="#i" y1="691.99" y2="691.99"/><linearGradient id="J" gradientTransform="matrix(-1 0 0 1 -120.66 0)" x1="-1003.84" x2="-1002.36" xlink:href="#l" y1="575.7" y2="560.63"/><linearGradient id="K" gradientTransform="matrix(-1 0 0 1 -120.66 0)" x1="-1021.36" x2="-1006.15" xlink:href="#l" y1="659.05" y2="659.05"/><linearGradient id="L" gradientTransform="matrix(-1 0 0 1 -120.66 0)" x1="-1003.53" x2="-985.67" xlink:href="#l" y1="657.56" y2="657.56"/><linearGradient id="M" gradientTransform="matrix(-1 0 0 1 -120.66 0)" x1="-1060.96" x2="-1011.22" xlink:href="#l" y1="636.67" y2="568.32"/><linearGradient id="N" gradientTransform="matrix(-1 0 0 1 -120.66 0)" x1="-993.95" x2="-1029.49" xlink:href="#s" y1="556.74" y2="616.94"/><linearGradient id="O" gradientTransform="matrix(-.99 .1 .1 .99 -435.97 77.47)" x1="-1255.45" x2="-1262.93" xlink:href="#s" y1="696.91" y2="632"/><linearGradient id="P" gradientTransform="matrix(-1 0 0 1 -120.66 0)" x1="-993.27" x2="-999.14" xlink:href="#s" y1="565.19" y2="577.92"/><linearGradient id="Q" gradientTransform="matrix(-.99 -.17 -.19 1.03 -706.69 -38.47)" x1="-1664.17" x2="-1662.19" xlink:href="#l" y1="295.61" y2="266.25"/><linearGradient id="R" gradientTransform="matrix(-.98 -.18 -.18 .98 -665.03 -198.4)" x1="-1636.48" x2="-1634.51" xlink:href="#l" y1="468.23" y2="438.83"/><linearGradient id="S" gradientTransform="matrix(-.98 -.18 -.18 .98 -665.03 -198.4)" x1="-1664.21" x2="-1662.24" xlink:href="#l" y1="466.36" y2="436.97"/><linearGradient id="T" gradientTransform="matrix(-.98 -.18 -.18 .98 -665.03 -198.4)" x1="-1634.55" x2="-1651.82" xlink:href="#i" y1="418.35" y2="444.58"/><g clip-path="url(#a)"><g opacity=".7"><path d="m1006.84 379c25.71-50.76 82.46-96 69.12-159.58-12.58-59.93-98.48-115.39-153.07-80.27-34.76 22.36-50.47 56.26-94.93 61.55-34 4.06-78.11 1.79-105-23.23-20.67-19.21-33.65-40.52-59.25-54.65-44.34-24.42-97.79-27.08-146.91-22.23-71.49 7.07-100 85.06-161.92 109.64-38 15.06-81.23 8.86-119.89.07-35.86-8.14-83.83-32-111.09 6.6-26.14 37-17.14 112 2.5 150.58 13.44 26.4 45.65 36.76 57.23 65 11.85 28.9-6.73 55.2-24.75 76.52-41.43 49-34.21 196.14 47 200.79 38.85 2.23 77.79-18.09 116.46-8 31.69 8.29 52.26 39.56 85.82 43.07 31.88 3.33 62.63-3.22 91.59-16.5 32.86-15.07 63.6-33.92 100.07-38.19 34.56-4 72.29-1 106.75 3.09 29.26 3.44 58.14 10.06 85.54 21.24 25.94 10.57 50.34 29.69 78.7 32.58 66 6.72 151.75 11.39 199.44-45.8 29.44-35.3 28.18-88.76 3.63-126.41-14.79-22.69-44.31-28.15-57.66-48.47-21.22-32.24-27.14-112.31-9.38-147.4z" fill="url(#b)" opacity=".5"/><path d="m990 388.58c19.92-38.43 57.49-70.07 66.15-113.91 8.11-41.05-15.46-77.32-48.92-99.39-31.6-20.84-66.74-27.76-100.88-8.58-30.88 17.35-49.94 50.42-87.87 54.84-32.64 3.8-74.91 1.67-100.71-21.77-19.82-18-32.27-38-56.81-51.2-42.51-22.92-93.75-25.41-140.86-20.86-68.55 6.61-95.86 79.69-155.27 102.71-36.42 14.11-77.89 8.3-115 .07-34.39-7.63-80.38-30-106.52 6.18-25.07 34.71-16.44 104.92 2.4 141.08 12.89 24.73 43.77 34.44 54.88 60.92 11.35 27.07-6.46 51.71-23.74 71.69-39.72 45.94-32.8 183.76 45 188.12 37.26 2.08 74.59-17 111.67-7.48 30.39 7.76 50.11 37.06 82.3 40.34 30.57 3.12 60.06-3 87.83-15.45 31.51-14.12 61-31.78 95.95-35.78 33.14-3.78 69.32-.9 102.37 2.89 28 3.22 55.75 9.43 82 19.9 24.87 9.91 48.27 27.82 75.46 30.53 63.31 6.29 145.51 10.67 191.25-42.91 28.23-33.07 27-83.15 3.48-118.43-14.19-21.26-42.49-26.37-55.29-45.41-20.28-30.25-25.94-105.27-8.87-138.1z" fill="url(#c)" opacity=".5"/></g><path d="m1059.13 185.66c-3.24-15.39-11.31-10.11-24.83-14.85s-9.56-21.63-17.94-26.84c-11.18-6.95-21.45-.5-28.41 8.62-11.55 15.16-19.46 2.83-33.28 9-7.91 3.52-4.54 8.45-15.24 10.44-7.48 1.38-15.58-1.88-22.95.11-5.46 1.48-9.42 4.07-10.63 9.36 1.54.73 3.14 1.38 4.78 2 20.64 7.44 48.8 5 69.66 6.05 7.12.32 81.14 7.02 78.84-3.89z" fill="#fff" opacity=".65"/><path d="m945.39 233.64a20.89 20.89 0 0 0 -21.51-7.39c-8.67 2.17-13.57 10.45-21.64 13.77-14.07 5.78-33.54-5.64-44.23 9.26-13.07 18.22-23.18 4.55-23.18 16.92s90.34 3.26 134.91 3.91c6.44.09 34.4-.38 22.37-13.75-3.74-4.15-9.07-4.84-14-5.81-6.49-1.27-21.9-2-26.59-7-2.53-2.71-3.5-6.61-5.78-9.52z" fill="#fff" opacity=".65"/><path d="m574 623h52v52h-52z" fill="url(#d)"/><path d="m312.81 622.89a10.33 10.33 0 0 0 10.3 10.29h556.8a10.33 10.33 0 0 0 10.3-10.29l4.63-320c0-5.65-6.66-16.7-18.88-15.87l-544.17-14.02a25.94 25.94 0 0 0 -26.62 26.54z" fill="url(#e)"/><path d="m323 607.14a9.69 9.69 0 0 0 9.74 9.58h533.74a9.69 9.69 0 0 0 9.74-9.58l4.38-285.63c-.52-17.19-15.84-23.37-25.13-23l-521.55-13.76a18.34 18.34 0 0 0 -13.36 5.25 17.8 17.8 0 0 0 -5.34 13.13z" fill="url(#f)"/><path d="m870.46 474.92a1.32 1.32 0 0 1 -1.3-1.34l.34-23.56a1.35 1.35 0 0 1 1.34-1.3 1.32 1.32 0 0 1 1.3 1.34l-.34 23.56a1.32 1.32 0 0 1 -1.34 1.3z" fill="#fff"/><path d="m871.3 417.19a1.33 1.33 0 0 1 -1.3-1.34l1.33-90.23c0-5.39-1.66-9.69-4.87-12.76-6-5.73-15.45-5.43-15.86-5.42l-166.7-4.44a1.32 1.32 0 0 1 0-2.64l166.59 4.47c1-.05 11.05-.23 17.71 6.15 3.74 3.59 5.65 8.53 5.68 14.69l-1.33 90.25a1.32 1.32 0 0 1 -1.25 1.27z" fill="#fff"/><path d="m724.26 666h-247.2a8.69 8.69 0 0 0 -8.82 8.66 7.37 7.37 0 0 0 7.5 7.34h248.52c4.14 0 6.74-3.34 6.74-7.49v-1.32c0-4.14-2.6-7.19-6.74-7.19z" fill="url(#g)"/><path d="m792.46 546.67-388.76-9.46a12.32 12.32 0 0 1 -12-12.31v-192.61a12.31 12.31 0 0 1 12.3-12.29h383.24a12.31 12.31 0 0 1 12.31 12l5.52 202a12.32 12.32 0 0 1 -12.61 12.67z" fill="url(#h)"/><path d="m391.69 495.54v29.36a12.32 12.32 0 0 0 12 12.31l388.76 9.46a12.32 12.32 0 0 0 12.62-12.67l-1.07-38.46z" fill="url(#i)"/><path d="m403.27 517.11.35 3.55a6.36 6.36 0 0 0 6.32 5.72h343.34a6.35 6.35 0 0 0 6.35-6.36 6.35 6.35 0 0 0 -6.29-6.35l-343.69-3.54a6.35 6.35 0 0 0 -6.38 6.98z" fill="#fff" opacity=".69"/><path d="m623 522.31c-.4-3.3-.89-6.64-1.37-10l-212-2.18a6.35 6.35 0 0 0 -6.38 7l.35 3.55a6.36 6.36 0 0 0 6.32 5.72h213.66c-.22-1.4-.43-2.82-.58-4.09z" fill="url(#j)"/><path d="m636.18 519a11.49 11.49 0 1 1 -11.49-11.49 11.49 11.49 0 0 1 11.49 11.49z" fill="#fff"/><path d="m767.53 510.63h6.86v15.59h-6.86z" fill="#fff" opacity=".69"/><path d="m786.24 506.27h6.86v19.95h-6.86z" fill="#fff" opacity=".69"/><path d="m777.51 502.52h6.24v23.7h-6.24z" fill="#fff" opacity=".69"/><path d="m391.54 561.69.32 33a8.54 8.54 0 0 0 8.63 8.45l392-3.79a8.55 8.55 0 0 0 8.46-8.63l-.22-22.35a8.53 8.53 0 0 0 -8.39-8.45l-392.08-6.82a8.55 8.55 0 0 0 -8.72 8.59z" fill="#fff" opacity=".69"/><rect fill="#fff" height="7.67" opacity=".69" rx="2.23" width="298.28" x="403.63" y="565.42"/><rect fill="#fff" height="5.97" opacity=".69" rx="2.23" width="210.5" x="403.63" y="576.5"/><rect fill="#fff" height="4.26" opacity=".69" rx="2.05" width="114.2" x="403.63" y="587.58"/><path d="m627.79 416.49-46.39-26.78a1.56 1.56 0 0 0 -1.64 0 1.66 1.66 0 0 0 -.76 1.52v53.56a1.62 1.62 0 0 0 2.46 1.51l46.36-26.78a1.73 1.73 0 0 0 .86-1.51 1.78 1.78 0 0 0 -.89-1.52z" fill="#fff"/><path d="m598.21 467.46a49.46 49.46 0 1 1 49.46-49.46 49.5 49.5 0 0 1 -49.46 49.46zm0-96.15a46.7 46.7 0 1 0 46.7 46.7 46.75 46.75 0 0 0 -46.7-46.7z" fill="#fff"/><g fill-rule="evenodd"><path d="m285.38 640.94a26.47 26.47 0 0 0 -4.59-3.42 1 1 0 0 0 -1.24.26c-1.73 2.24-7.51 10-8.79 15.33a1 1 0 0 0 .52 1.11c1.49.77 5.41 1.61 11-6.18l3.36-4.75a1.76 1.76 0 0 0 -.26-2.35z" fill="url(#k)"/><path d="m319.5 623.53s-1.88 25.39-12.23 33.86c-9.06 7.41-23.16-6.09-26.53-9.56a2.18 2.18 0 0 1 -.59-1.92 5.34 5.34 0 0 1 2.57-3.78 2.66 2.66 0 0 1 3.11.34c2.81 2.6 10.16 8.9 13.92 7.39 4.7-1.88 7.52-26.33 7.52-26.33z" fill="url(#l)"/><path d="m295.05 546.41s-14.11-6.58-21.86-42.67l3.86-2s15 29.46 22.7 36.18-4.7 8.49-4.7 8.49z" fill="url(#m)"/><path d="m276.17 506.11-3-2.37s-4.07-3.95-5.5-7.31 2.76-6.38 4.35-7.1 2.45.79 2.13 4.17a15 15 0 0 1 3.09 10.3z" fill="url(#n)"/><path d="m358.11 546.41s15.95-24.85 18.83-45.49l-3.86-2s-15.95 33.41-23.68 40.12 8.71 7.37 8.71 7.37z" fill="url(#o)"/><path d="m374 503.29 3-2.37s4.07-3.95 5.5-7.31-2.77-6.39-4.35-7.1-2.45.79-2.14 4.17a15 15 0 0 0 -3.08 10.3z" fill="url(#p)"/><path d="m324.42 688.84a31.6 31.6 0 0 0 -1.05 7.23 1 1 0 0 0 .85 1c2.81.38 12.4 1.53 17.67 0a1 1 0 0 0 .7-1c0-1.66-1.21-5.54-10.83-6.53z" fill="url(#q)"/><path d="m341 625.2c1.19.77-7.75 63.5-9.91 63.95 0 0-2.48 2.3-6.3-.32 2.21-20.44 3.55-41.18 2.37-62.37z" fill="url(#r)"/><path d="m309.64 587.13s29.13 1.33 36.07 3.76c0 0-.85 23.69-3.7 38.24a1.45 1.45 0 0 1 -1.1 1.14c-1.87.44-6.57 1.06-14-1a1.48 1.48 0 0 1 -1.06-1.5l.77-9.44a1.14 1.14 0 0 0 -1.07-1.22l-.78-.12a1.13 1.13 0 0 0 -1.22 1.14l-1.55 9.53a1.46 1.46 0 0 1 -1 1.37 25.52 25.52 0 0 1 -15.41-.16 1.48 1.48 0 0 1 -1-1.38c-.04-11.61 2.04-25.49 5.05-40.36z" fill="url(#s)"/><path d="m320.56 589.17s-3.68 10.24-12.57 11l2-11.68a67 67 0 0 1 10.57.68z" fill="url(#t)"/><path d="m348.23 513.73s-1.12-3.17 1.74-3.73.13 7.83.13 7.83z" fill="url(#u)"/><path d="m296 533.25s13.16 8.46 29.15 7.52c13.33-.78 21.43-4.18 25.94-8a4.76 4.76 0 0 1 5.68-.45 39.91 39.91 0 0 1 7.26 6.05 2.16 2.16 0 0 1 .3 2.64c-3.88 6.28-8 10.67-12.41 13.22a8.58 8.58 0 0 0 -2.23 6l.81 30.82a1.73 1.73 0 0 1 -1.41 1.76c-5.84 1.11-28 5-41.81 2.54v-33.27a6.77 6.77 0 0 0 -3.53-5.92 36.61 36.61 0 0 1 -11.52-10.69z" fill="url(#v)"/><path d="m318.82 526.14-1.44 15.86s8.37 4.89 15.58.61l-1.28-13.86z" fill="url(#w)"/><path d="m349.76 514.86s3.67-6.29-1-9.59c0 0 2.51-5.54-2.24-9.54 0 0-7.55-17.68-23.41-5.27 0 0-13.65-4.06-18.05 12.92 0 0-4.54 2.54-2.46 8.89 0 0-.51 23.53 20.1 15.6z" fill="url(#x)"/><path d="m343 501.71s17.47 26.33-.58 34.39c-17 7.61-24.22-9.87-24.22-9.87s-7.49-7.76-5-13.74 25.52-14.05 29.8-10.78z" fill="url(#y)"/><path d="m316.48 522.08s17.1-5.41 15.63-15.51c0 0 3 .3 3.88-3.19 0 0 8.39 7.55 10.6 2.27 0 0-1.47-13.07-11.72-8.83s-19.62 8.54-22.36 11.55-5.03 10.32 3.97 13.71z" fill="url(#z)"/><path d="m320.42 528.58-3-8.35s-5.87-2.7-5.1 1.85 6.02 7.05 8.1 6.5z" fill="url(#A)"/></g><path d="m346.59 503.09a.38.38 0 0 1 -.38-.37 15.14 15.14 0 0 1 .1-1.55c.21-2.22.37-4-4-6a.34.34 0 0 1 -.18-.19 8.84 8.84 0 0 0 -10.37-5.44.38.38 0 0 1 -.46-.27.37.37 0 0 1 .26-.46 9.71 9.71 0 0 1 11.19 5.74c4.75 2.25 4.55 4.42 4.33 6.71 0 .48-.09 1-.09 1.48a.37.37 0 0 1 -.4.35z" fill="#fff"/><path d="m836.67 533s12.68 34.16 32 30c0 0 2 11.62-1.26 13 0 0-28.92.84-31.79-38.88z" fill="url(#B)"/><path d="m837.22 541c-.06.6 2.14 1 2.84-1.52-.19-1.09-.53-5.89-1.37-6.64-4.48-4-12.45-8.44-12.45-8.44a1.62 1.62 0 0 0 .27 2.26l4 2.69a15.59 15.59 0 0 0 -1.09 4.17 4.6 4.6 0 0 0 1.17 3.25 41 41 0 0 0 2.83 3 4.58 4.58 0 0 0 3.8 1.23z" fill="url(#C)"/><path d="m834.9 539.06a32.25 32.25 0 0 0 -2.75-5.55 2.11 2.11 0 0 1 -.74-1.56 1.61 1.61 0 0 1 .67-1.14l.25-.21 3.92 2.09 1.54 2.41-.84.54-1.4-2.19-3.06-1.64a.39.39 0 0 0 -.08.21 1.31 1.31 0 0 0 .46.8c.93 1 2.75 5.36 3 5.86z" fill="url(#D)"/><path d="m868.45 518.67s6.12-5.52-1.75-11.52c-7.4-5.63-12.8 1.93-10.35 6.79a.6.6 0 0 1 -.4.85c-.65.14-1.21.78-.19 3.05a.59.59 0 0 1 -.07.6c-.9 1.21-3.93 6.09 5.19 6.83a.6.6 0 0 0 .45-.15z" fill="url(#E)" fill-rule="evenodd"/><path d="m900.6 526.79s.59-7.06 4.37-9.36 11.1-4.25 14.18 3.42c1.46 3.66 1 5.4.07 6.22a2.3 2.3 0 0 0 -.38 2.89c.63 1.11.71 2.48-1.17 3.73a2.4 2.4 0 0 0 -1 1.52c-.49 2.56-3.11 8.7-17.1 2z" fill="url(#F)" fill-rule="evenodd"/><path d="m884.43 514.1c2.75-1.18 8.58-2.38 13.12 5.56a3.49 3.49 0 0 0 1.33 1.31c2.71 1.5 10.53 6.91 3.41 16.69a3.2 3.2 0 0 0 -.62 1.51c-.24 1.65-1 5.32-3.4 6.23a3.43 3.43 0 0 0 -1.7 1.42c-1.59 2.62-6.13 8.13-13.77 2.37a3.5 3.5 0 0 0 -1.31-.61l-10.55-2.32a3.45 3.45 0 0 0 -1.69.06c-1.29.38-3.9.71-4.87-2.32a3.44 3.44 0 0 0 -1.06-1.59c-1.77-1.51-5.52-5.58-2.68-11.3a3.44 3.44 0 0 0 .36-2.11c-.33-2.14-.5-6.89 3.94-8.94a3.3 3.3 0 0 0 1.56-1.46c1.48-2.86 6.31-10.16 14.82-4.8a3.42 3.42 0 0 0 3.11.3z" fill="url(#G)" fill-rule="evenodd"/><path d="m870.1 681.75 1.54 1.77-1.06 3.85a2.71 2.71 0 0 1 -2.13 2c-3.43.63-11.21 1.77-15.21 0 0 0-1.24-8.33 12.54-5.85z" fill="url(#H)" fill-rule="evenodd"/><path d="m894.14 686.17.81 2-.33 7.23a2.22 2.22 0 0 1 -2 2 25.78 25.78 0 0 1 -5.76.31 2.16 2.16 0 0 1 -2-3l2.43-5.21a3.17 3.17 0 0 1 1.84-1.66z" fill="url(#I)" fill-rule="evenodd"/><path d="m887.14 545.34 1.57 15.54s-8.45 2.86-14-.37l1.5-15.61z" fill="url(#J)" fill-rule="evenodd"/><path d="m900.69 630.43s-4 44.72-6.66 58.4c0 0-2 1.44-4.94-.42l-3.6-59.67z" fill="url(#K)" fill-rule="evenodd"/><path d="m882.87 633.12-11 50.07s-3 3.1-6.87 0l1.89-52.64z" fill="url(#L)" fill-rule="evenodd"/><path d="m896.77 562.05 2.75.31c5.32 5.7 15.08 44.92 18.61 53.26l14.32-2.34a.71.71 0 0 1 .81 1c-.64 1.56-3 6-12.33 6-4.34 0 2.44 3.37-.16 4.53 0 0-5.71-2.06-5.72-5.67 0 0-16.37-37.29-19.73-41.22s1.45-15.87 1.45-15.87z" fill="url(#M)" fill-rule="evenodd"/><path d="m899.52 562.36s-14.56-5.4-32.74.19c0 0-2 13.76-1 20.31l31.33 1.14z" fill="url(#N)" fill-rule="evenodd"/><path d="m866.22 587.16s-10 32.14-11.5 53.55a2 2 0 0 0 1.85 2.13 44.33 44.33 0 0 1 10.75 2.33c8.1 2.69 14.8 1.8 20.85.07 4.75-1.37 16.63-2.56 21.52-3a2 2 0 0 0 1.78-2.34c-1.43-7.92-6.83-36-15-55.16z" fill="url(#O)" fill-rule="evenodd"/><path d="m865.69 582.12.53 5s9.63 0 30.91-.68l.11-3.65s-23.58.51-31.55-.67z" fill="url(#P)" fill-rule="evenodd"/><path d="m865.76 530.27c-2.42 9.34-1.72 20.08 9.28 22.49 7.61 1.67 15.6-6.08 18-15.43s-1.72-16.46-9.26-18.41-15.61 2-18.02 11.35z" fill="url(#Q)" fill-rule="evenodd"/><path d="m866.58 533.15s-.36-5.65-3.18-3.91 1.09 8.52 2.84 8.91.34-5 .34-5z" fill="url(#R)" fill-rule="evenodd"/><path d="m890.69 539.67s.85-4.31 3.9-2.32-2.77 9-6.36 7.47z" fill="url(#S)" fill-rule="evenodd"/><path d="m895.21 536.24s-8.74 9.47-13.28-10.18c0 0-4.53 5.87-6.6.68 0 0-9 3.09-10-.7s12.21-14.09 22.82-6.7 7.06 16.9 7.06 16.9z" fill="url(#T)" fill-rule="evenodd"/><path d="m862.6 526.17h-.07a.38.38 0 0 1 -.3-.44c.5-2.78 1.36-3.44 3.88-5.4l1.57-1.24c.82-3.52 5.91-4.22 6.13-4.25a.38.38 0 0 1 .42.32.37.37 0 0 1 -.33.42s-4.9.68-5.51 3.79a.36.36 0 0 1 -.13.22l-1.69 1.33c-2.48 1.93-3.15 2.45-3.6 5a.37.37 0 0 1 -.37.25z" fill="#fff"/></g></svg>