<svg viewBox="0 0 800 800" xmlns="http://www.w3.org/2000/svg"><path d="m529 492.82c-31.49 88.87-89.19 177.6-155.19 177.6a179.74 179.74 0 0 1 -79.42-18.42 17.88 17.88 0 0 0 -15.7 0 179.77 179.77 0 0 1 -79.38 18.38c-99.72 0-180.56-202.55-180.56-302.06s80.84-180.15 180.55-180.15a179.92 179.92 0 0 1 79.39 18.38 17.8 17.8 0 0 0 15.69 0 179.92 179.92 0 0 1 79.39-18.38c2.8 0 5.59.07 8.36.19 78.28 3.57 142.76 63.43 157.84 141.4 8.03 41.24 9.79 97.24-10.97 163.06z" fill="#df2b2b"/><path d="m295.61 65.41a105.51 105.51 0 0 0 -9.7 95.5c34.09-4.53 65.81-22.91 84.92-52.91a105.57 105.57 0 0 0 9.69-95.5c-34.09 4.5-65.81 22.93-84.91 52.91z" fill="#286f0d"/><path d="m288.47 214.3a12.5 12.5 0 0 1 -12.47-12.5v-18.65a81.22 81.22 0 0 0 -36.31-68 12.5 12.5 0 1 1 13.78-20.85 106.16 106.16 0 0 1 47.53 88.86v18.65a12.5 12.5 0 0 1 -12.53 12.49z" fill="#63271d"/><path d="m146.9 368.36c0-76.95 48.36-142.6 116.38-168.43a180 180 0 0 0 -64-11.76c-99.7 0-180.54 80.67-180.54 180.19s80.85 302.06 180.56 302.06a179.84 179.84 0 0 0 77.34-17.42c-74.96-51.16-129.74-202.74-129.74-284.64z" fill="#d1262c"/><path d="m82.82 368.36c0-88.62 64.12-162.24 148.57-177.31a181.43 181.43 0 0 0 -32.09-2.87c-99.71 0-180.55 80.66-180.55 180.18s80.84 302.06 180.55 302.06a181.09 181.09 0 0 0 39.1-4.31c-87.89-29.5-155.58-206.7-155.58-297.75z" fill="#b7252c"/><ellipse cx="184" cy="253.77" fill="#eda07a" rx="12.81" ry="12.92"/><ellipse cx="128.58" cy="368.79" fill="#fcbebe" rx="12.81" ry="12.92"/><path d="m656.74 782.47c68.56-13.62 121.26-71.87 124.34-142.58q.17-3.75.17-7.55a166 166 0 0 0 -16.16-71.71 16.42 16.42 0 0 1 -1.4-5.34h-389a12.16 12.16 0 0 1 -1.41 5.34c-13.93 22.18-13.93 46-13.93 71.8 0 59.61 75.81 111.65 154 140.1 57.84 18.78 107.11 17.14 143.39 9.94z" fill="#fff5ca"/><path d="m567 640c47.57 0 86.13-37.93 86.13-84.73h-172.23c0 46.81 38.56 84.73 86.1 84.73z" fill="#ead991"/><path d="m575.9 610.16h-17.76a12.5 12.5 0 0 1 0-25h17.76a12.5 12.5 0 0 1 0 25z" fill="#582612"/><path d="m656.74 737.26c-36.28 7.2-85.55 8.84-143.41-10-70.33-25.55-139.91-70.6-153.24-122.77-1.5 9-2.94 18.43-2.94 27.85 0 59.62 78 111.73 156.18 140.18 57.85 18.79 107.12 17.15 143.41 10 68.56-13.67 121.26-71.92 124.34-142.63q.17-3.75.17-7.55a167.84 167.84 0 0 0 -1.62-22.9c-9.25 63.93-59.17 115.16-122.89 127.82z" fill="#d1262c"/></svg>