<svg viewBox="0 0 800 800" xmlns="http://www.w3.org/2000/svg"><path d="m127.25 121.44c-134.77 109.33-124.42 365.87-26.25 495.04 116.8 153.65 427.47 259.47 663.31 0 21.76-24 0-49.65-22.4-40-304.58 131.2-577.43-242.67-547.14-427.48 11.23-68.41 39.9-118.23-18.77-118.23s-48.75 90.67-48.75 90.67z" fill="#e8b207" stroke="#000" stroke-miterlimit="53.33" stroke-width="21.33"/><path d="m167.36 121a63.11 63.11 0 0 1 -30-6.56c-.7-13.38 0-45.7 13.28-61.49a30.43 30.43 0 0 1 22.77-11.68c10.67 0 20.21 1.07 24.48 6.35 6.4 7.84.69 33.17-5.07 57.81-1 4-1.86 8.85-2.82 13.07a81.3 81.3 0 0 1 -22.64 2.5z" fill="#84910c"/><g stroke="#000" stroke-miterlimit="53.33" stroke-width="10.67"><path d="m129.65 115.52c12.32 12.16 58.67 10.19 68.48 6.67" fill="none"/><path d="m195.57 127.57c-96.42-20.9-106.66 257.12-11.57 380 131.79 170.24 370.67 217.76 581.33 75.2-6.24-7.14-10.66-16.32-22.61-11.94-72.72 26.66-247.57 78.08-423.47-114.94-136.37-149.6-123.68-280.8-123.68-328.32z" fill="#f1f206"/></g></svg>