<svg viewBox="0 0 800 800" xmlns="http://www.w3.org/2000/svg"><path d="m262.12 224.87s-54.43-16.56-99.43 33.82c-52.32 58.62-26.38 148.12-2.63 214.5s34.63 90.18 46.5 146.5c8.94 42.12 18.88 117.12 94.31 141.5 52.75 17 107.07-21.44 107.07-21.44s22.31 24.94 71.56 30.88c53.31 6.37 109.87-10.19 129.56-56.69 10.31-24.31 20.31-102.25 27.38-151.81 9.25-65 42.31-135.57 50.56-191.5 7-47.75-4.75-158.19-152.94-161.13-51.81-1-110.06 19.56-110.06 19.56s-45.63-23.93-80.44-27.81c-67-7.5-81.44 23.63-81.44 23.63z" fill="#7cb342"/><path d="m606.06 222.31c-19.12-8.37-42-16.12-82.94-18.69-58-3.62-99.06 25.38-99.06 25.38s-45.62-23.94-80.44-27.81c-67.06-7.5-87.68 22.31-87.68 22.31s10.94 1.87 28.56 8.37c14.31 5.25 9 18-2.81 19.19-23.19 2.31-42.13 17.56-44.44 25.81 0 0 37.06-15.93 75.69-3.74 51.37 16.24 65.25 54.37 65.25 54.37s28.93-33.75 97.68-49.38c65.38-14.87 112.38 13.32 112.38 13.32-3.81-16.5-13.25-24.75-21.69-32.63-15.19-14.19-10.19-26.62 5.31-31 12.88-3.62 34.19-5.5 34.19-5.5z" fill="#558b2f"/><path d="m252.75 69.81c.56 29.88 23.31 43.75 33.75 44.38 21.13 1.19 36.81-24.44 76.19 13.37 16 15.38 22.25 37.25 21.75 59-.19 7.19 1.56 34.06-11.07 40.06-3.93 1.88-6.56 3.32-18.81-1.37-13.68-5.25-25.87 7.75-25.87 7.75l23.5 26.81 58.18 18.88 58.38-11.63 33.75-29.69s-15.69-12.18-29.31-7.31c-7.38 2.63-21.63-1.68-21.69-10.31-.25-18.19.5-35.5-2.88-53.63-5.62-29.93-18.37-58.56-38.81-81.31-29.31-32.62-71.25-49.56-113.81-56.44-34.94-5.56-43.81 11.94-43.25 41.44z" fill="#e0e080"/><path d="m389.19 65.94c-26.82-20.5-59.81-32.19-93.25-37.57-11.25-1.81-19.75-1.18-26.13 1.38 13 .31 38.19 6.69 78.88 34.75 25.62 17.62 76.25 80.94 34.12 146.37-1.12 5.44-3.12 10.38-6.5 13.5 10.44-4.68 30.81-20.75 35.44-63.5 4.87-45.25-5.88-75.12-22.56-94.93z" fill="#c4c451"/><path d="m360.19 477.12c-.5 23.69 3.31 76.57 18.06 151.88 12.56 64.13-.19 110.69-16.88 131.5a168.87 168.87 0 0 0 46.51-20.69s6.93-25.75 7.37-52.06c.56-31.62-12.62-95.13-28.06-145.5-10.88-35.37-14.13-88.75-14.63-118.75 0-.06-11.5 10.81-12.37 53.63z" fill="#33691e" opacity=".6"/><g fill="#bbe68b"><path d="m324.06 395.37c-6.62.75-12.62-3.43-17.62-7.5-18.25-14.93-28.63-27.43-49.13-39.87-15.87-9.63-47.19-16.13-36.69-40.69 5.07-11.81 24.51-13.31 37.69-11.06 45.94 7.75 66.38 34.75 76.07 68.5 1.68 5.87 3.93 11.81 2.62 17.87s-6.13 11.82-12.63 12.75z" opacity=".75"/><path d="m467.81 328.69c30.25-18 74.88-17.63 112.25 1.5 9.25 4.75 18.13 10.94 23.5 19.87 4.07 6.75 5.13 16.88-1.31 21.44-5.37 3.75-12.75 1.5-19-.5a144.64 144.64 0 0 0 -114.06 12.19c-12.88 7.37-40.5 34.69-48.63 15.56-8.06-19.31 9.63-47.69 47.25-70.06z" opacity=".75"/></g></svg>