<svg viewBox="0 0 800 800" xmlns="http://www.w3.org/2000/svg"><path d="m333.25 117.5a80.38 80.38 0 1 1 80.38 80.37 80.48 80.48 0 0 1 -80.38-80.37zm46.75 0a33.63 33.63 0 1 0 33.63-33.63 33.64 33.64 0 0 0 -33.63 33.63z" fill="#e2a610"/><path d="m482.75 76.75s3.56 14.19-12.87 21.94-27.32 2-27.32 2a33 33 0 0 1 4.69 16.87 33.63 33.63 0 1 1 -67.25 0 36.7 36.7 0 0 1 3.44-14.81c-27.88 13.25-49.06 1.94-49.06 1.94a79.26 79.26 0 0 0 -1.13 12.87 80.38 80.38 0 1 0 160.75-.06 79.33 79.33 0 0 0 -11.25-40.75z" fill="#9e740b"/><path d="m65.38 611.25c42.31-41.56 68.68-55.56 79.43-115.81s2.13-187.19 49.5-270.31c43.25-76.13 122.63-107.63 200.06-107.63 1.88 0 3.75.12 5.63.12s3.75-.12 5.63-.12c77.43 0 156.81 31.5 200.06 107.56 47.31 83.19 38.75 210.13 49.5 270.31s37.12 74.25 79.44 115.82c18.24 17.93 40.31 46.5 40.37 64.87s-9.31 25.06-31.62 34.44c-63.13 26.56-147.5 52.31-343.38 52.31s-280.25-25.75-343.37-52.31c-22.32-9.38-31.69-16-31.63-34.44s22.13-46.87 40.38-64.81z" fill="#ffca28"/><path d="m710.62 677.37c0-27.68-139.06-50.12-310.62-50.12s-310.63 22.44-310.63 50.13 139.07 60.75 310.63 60.75 310.62-33.07 310.62-60.75z" fill="#4e342e"/><path d="m586.5 279.94c2.31 8.81 4.25 17.62 5.81 26.25 7.94 44.12 6.5 89.37 10.06 134.06 4.82 59.81 15.44 91.31 39.63 119.44a5.29 5.29 0 0 1 -4.87 8.62c-32.32-4.94-58.25-9.87-87.82-29.37-44.12-29.06-55-83.75-55.31-132.88-.5-73.12.88-143.93-4.94-170.81-8.06-37.44-15.56-57.38-27.81-75.56-18.69-27.75 53.88 10.75 65.25 19.31 31.69 23.94 49.88 62.44 60 100.94z" fill="#e2a610"/><path d="m193.06 377c-.75-47.38-.37-96.37 18.5-139.87 11.31-26 30.5-49.44 55-64 19.25-11.44 58.38-24.07 72.44 1.87 2.81 5.19 3.94 11.25 4.12 17.19.5 20.69-10.25 39.81-20.68 57.69-30.88 53-43.19 110.93-59.5 169.68-6.69 24.25-15.19 48.44-29.75 68.94-10 14.06-65.69 64.06-52.94 18.88 12.25-43.69 13.5-84.88 12.81-130.38z" fill="#fff59d"/><path d="m456.81 667.62c-.06-10.75-5.87-16.93-19.25-21.56-27.75-9.56-62.5-7.81-82.75 3.07-21.25 11.37-6.5 74.43 45.19 74.43s56.87-47.75 56.81-55.93z" fill="#e2a610"/><g fill="#fff59d"><path d="m207.81 573.69c-54.87 9.62-94.62 30.44-111.81 47.31-13.62 13.31-13.62 23.81 10.38 12.87 18.06-8.25 75.93-25 126.62-30.06 87.06-8.75 140.81-8.93 149.75-8.75 20.94.44 22.69-15.69-19.63-21.37s-100.43-9.56-155.31 0z"/><path d="m377.87 711.37c7.25 5 16.88 7.44 25 4.07s13.38-13.69 9.38-21.5c-1.56-3.06-4.25-5.38-6.94-7.5a99.78 99.78 0 0 0 -24.44-14.06c-3.43-1.38-7.06-2.63-10.81-2.38s-7.56 2.13-9 5.56c-6.19 14.07 6.19 28.57 16.81 35.82z"/></g></svg>