<svg enable-background="new 0 0 800 800" viewBox="0 0 800 800" xmlns="http://www.w3.org/2000/svg"><g transform="translate(-68.52 -1183.639)"><path d="m861.5 1441.5c-.3-.9-.6-1.7-.9-2.6-13.8-37.7-64.3-42.8-64.3-16.1s18.6 31.1 40.2 48.2c12.3 9.8 15.8 26.6 16.5 39.3 10.9-21.1 13.9-45.6 8.5-68.8z" fill="#333"/><path d="m615.3 1352.5c-1.4 2.9-3 5.6-4.9 8.2 1.9-2.6 3.5-5.4 4.9-8.2z" fill="none"/><path d="m620.2 1338.6c-.7 2.7-1.5 5.4-2.4 8 .9-2.6 1.7-5.2 2.4-8z" fill="none"/><path d="m860.5 1438.9c.3.8.6 1.7.9 2.6-5.5-19.9-17.1-37.7-33.1-50.8-56.7-49.1-128.8-88.1-207.3-95.3 1.5 9.3 2 18.7 1.5 28-.3 5.1-1.1 10.2-2.3 15.2-.7 2.7-1.5 5.4-2.4 8-.8 2.1-1.6 4-2.4 5.8-1.4 2.9-3 5.6-4.9 8.2-1.4 2.1-3 4-4.8 5.9-.6.7-1.3 1.3-1.9 1.9.3.2.6.4.8.6 133.3 20.7 199.6 77.9 199.6 77.9s-66.3-57.2-199.6-77.9c10.2 7.9 18.7 17.7 25 28.9.7 1.3 1.4 2.6 2.1 3.8 1.3 2.5 2.5 5.1 3.5 7.5.5 1.2 1 2.4 1.5 3.6.9 2.4 1.7 4.6 2.4 6.8s1.3 4.2 1.8 6.1c19.5 4.4 43.1 9.2 66.9 13.1 85.7 13.9 135.6 50.7 144.7 72.3 0 0 .2-.3.5-.8-.7-12.7-4.2-29.6-16.5-39.3-21.6-17.2-40.2-21.5-40.2-48.2s50.4-21.5 64.2 16.1z" fill="#fda654"/><g fill="#7a7a7a"><path d="m635.3 1413.6c-1.7 0-3.2-1-3.9-2.6-1-2.5-2.2-4.9-3.4-7.2-1.1-2.1-.4-4.6 1.7-5.8 2.1-1.1 4.6-.4 5.8 1.7 0 .1.1.1.1.2 1.3 2.5 2.5 5.1 3.7 7.8.9 2.2-.1 4.7-2.2 5.6-.7.2-1.2.3-1.8.3z"/><path d="m620.2 1342.9c-.3 0-.7 0-1-.1-1.9-.5-3.2-2.2-3.2-4.1 0-.3 0-.7.1-1 1.2-4.7 1.9-9.6 2.2-14.5.1-2.3 2-4.2 4.4-4.1 2.3.1 4.2 2 4.1 4.4v.3c-.3 5.4-1.2 10.7-2.4 15.9-.5 1.9-2.2 3.2-4.2 3.2z"/><path d="m639.2 1424c-1.8 0-3.5-1.2-4-3-.7-2.2-1.5-4.4-2.3-6.6-.9-2.2.2-4.7 2.4-5.5 2.2-.9 4.7.2 5.5 2.4.9 2.3 1.7 4.7 2.5 7.1.7 2.2-.5 4.6-2.8 5.3-.5.3-.9.3-1.3.3z"/><path d="m605.7 1370.8c-2.3 0-4.3-1.9-4.3-4.3 0-1.1.4-2.1 1.2-2.9 1.6-1.7 3-3.5 4.4-5.4s4.1-2.3 5.9-.9 2.3 3.9 1 5.8c-1.6 2.2-3.3 4.3-5.1 6.3-.8.9-1.9 1.4-3.1 1.4z"/><path d="m615.3 1356.7c-2.3 0-4.3-1.9-4.3-4.3 0-.6.1-1.3.4-1.9.7-1.5 1.5-3.3 2.3-5.4.8-2.2 3.3-3.3 5.5-2.5s3.3 3.3 2.5 5.5c-.9 2.4-1.7 4.4-2.6 6.2-.7 1.5-2.1 2.4-3.8 2.4z"/><path d="m604.6 1373.3c-.9 0-1.8-.3-2.6-.9l-.8-.6c-1.9-1.4-2.3-4.1-.9-6 .1-.2.3-.4.5-.5.5-.5 1.1-1 1.6-1.6l.1-.1c1.7-1.6 4.4-1.5 6 .2 1.5 1.5 1.6 3.9.2 5.6 0 2.2-1.9 4-4.1 3.9z"/><path d="m629.7 1402.3c-1.5 0-2.9-.8-3.7-2.1-6-10.7-14.2-20.2-23.9-27.7-1.9-1.4-2.3-4-.9-5.9s4-2.3 5.9-.9c.1 0 .1.1.2.1 10.7 8.2 19.5 18.5 26.1 30.2 1.2 2 .4 4.6-1.6 5.8-.7.3-1.4.5-2.1.5z"/></g><path d="m639.2 1419.8c-.7-2.2-1.5-4.4-2.4-6.8-.5-1.2-.9-2.4-1.5-3.6-1-2.4-2.2-5-3.5-7.5-.7-1.3-1.4-2.6-2.1-3.8-6.3-11.2-14.8-21.1-25-28.9-.3-.2-.5-.4-.8-.6.6-.6 1.2-1.2 1.9-1.9 1.7-1.8 3.3-3.8 4.8-5.9 1.8-2.6 3.5-5.3 4.9-8.2.9-1.8 1.7-3.7 2.4-5.8 1-2.6 1.8-5.3 2.4-8 1.2-5 2-10.1 2.3-15.2.5-9.4 0-18.8-1.5-28-3.2-.3-6.5-.5-9.7-.7-5.3-.3-10.7-.5-16.1-.5 0 0 7.6 49.4-8 64.3s8 56.3 8 56.3 18.9 5 45.7 11c-.6-2-1.1-4.1-1.8-6.2z" fill="#333"/><path d="m258.8 1622.1c-9.9 1.3-19.1 2.3-27.7 3-15.9 8.6-31.2 18.2-45.8 28.9-20.7 15.5-37.9 33.1-40.2 50.2 0 0 15.5-4.1 40.2-11.6 16.4-5 36.8-11.5 59.5-19.4 70.3-24.5 162.2-62.2 221.3-108.1-86.4 34.5-155.9 50.2-207.3 57z" fill="#666"/><path d="m418.4 1382.7s-93.1 23.4-120.6 88.4c0 0-120.4 61.8-144.7 152.7 6.3 1.1 12.7 1.8 19.1 2.1 3.8.2 8.1.5 13 .6 15.3.3 30.6-.2 45.8-1.5 8.5-.7 17.8-1.7 27.7-3 51.4-6.7 120.9-22.5 207.3-57 10.7-4.3 21.6-8.8 32.7-13.6 0 0 64.3-24.9 64.3-80.4.1-55.4-144.6-88.3-144.6-88.3z" fill="#333"/><path d="m257.7 1700.4h-16.1c-2.3 0-4.2-1.9-4.2-4.3 0-2.1 1.6-3.9 3.7-4.2.1 0 6.3-.8 15.9-2.9 2.3-.5 4.6.9 5.1 3.2 0 .2.1.4.1.6.1.9.1 1.8.2 2.8.2 2.3-1.5 4.4-3.9 4.6-.1 0-.2 0-.4 0z" fill="#7a7a7a"/><path d="m265.7 1720.3h40.2c7.8-8.7 14.2-18.5 19-29.2-22.1 3.3-44.4 5-66.8 5.1.7 8.1 2.6 20 7.6 24.1z" fill="#333"/><path d="m244.8 1673.2c-1.3 5.4-2.4 10.5-3.2 15-.5 2.7-1.2 5.4-2.2 8h2.2s8.2-1 20.6-3.9l.7-.2c1.3-.3 2.7-.7 4.2-1l.7-.2c1.6-.4 3.3-.9 5-1.3h.1c7.3-2 15.4-4.6 23.8-7.9 2.1-.8 4.2-1.7 6.4-2.6 25.9-10.9 53.2-28.2 67.3-55.3.4-.8.8-1.5 1.2-2.2-41.4 19.5-83.7 36.7-126.8 51.6z" fill="#f95b67"/><path d="m185.3 1692.6c-24.7 7.5-40.2 11.6-40.2 11.6 2.3-17.1 19.5-34.7 40.2-50.2 14.6-10.7 29.9-20.3 45.8-28.9-15.2 1.3-30.5 1.8-45.8 1.5-4.9-.1-9.2-.3-13-.6-9.8 20.9-31.1 70.6-35.2 118.4h40.2s26.2-2.1 32.2-24.1c13.5-1.8 24.9-10.8 29.7-23.5.1-.2.2-.4.3-.6 1-2.6 1.7-5.3 2.2-8 .8-4.5 1.9-9.5 3.2-15-22.8 7.8-43.2 14.4-59.6 19.4z" fill="#e5e5e5"/><path d="m587.8 1357.9c14.7-15.6 7.4-63.7 7.4-63.7-56.4 0-56.3 40.2-56.3 40.2s5.4 19.7 48.9 23.5z" fill="#fda654"/><path d="m595.3 1414.8s-23.6-41.4-8-56.3c.2-.2.4-.4.6-.7-43.5-3.8-48.8-23.5-48.8-23.5-23.8 0-40.2 14.1-40.2 32.2s8.2 43.4 56.3 72.3c31.2 18.8 38.8 50.5 40.3 70.4 13.5-33.7 14.3-67-.2-94.4z" fill="#e5e5e5"/></g><circle cx="502.68" cy="142.761" fill="#689fca" r="16.1"/><g transform="translate(-68.52 -1183.639)"><path d="m239.1 1696.8c-4.8 12.7-16.2 21.7-29.7 23.5-6 22-32.1 24.1-32.2 24.1h-40.2s-10.5 21.4-40.2 72.3c-3 5.1-5.4 10.5-7.2 16.1-12.9 41 23.3 64.3 23.3 64.3 64.9 0 80.4-40.2 80.4-40.2l7.2-24.1 26.5-88.4 14.5-48.2z" fill="#333"/><path d="m338 1728.3h-24.1l-8-8h-32.2l32.2 24.1s-37.1 8.8-24.1 48.2c0 0 7.8-33.8 40.2-40.2l40.2-8h16.1c-.1 0-11.7-16.1-40.3-16.1z" fill="#b3b3b3"/><path d="m418.4 1744.4c-19.9 14.8-24 42.9-9.2 62.8.4.5.8 1 1.1 1.5 0 0-3-38 16.1-48.2l32.2-16.1h40.2s-2.1-16.1-40.2-16.1h-40.2l-21.1-12.6c-5.9 3.1-12.5 4.6-19.1 4.6z" fill="#b3b3b3"/><path d="m555.1 1438.9c-48.1-29-56.3-54.3-56.3-72.3s16.4-32.2 40.2-32.2c0 0-.1-40.2 56.3-40.2-3.9-5.5-8.8-10.2-14.5-13.9-10-6.7-21.7-10.3-33.8-10.2-32.8 0-83.3 6.2-128.6 112.5 0 0 144.7 33 144.7 88.4s-64.3 80.4-64.3 80.4c-11.2 4.8-22 9.4-32.7 13.6-29.6 22-61.3 40.9-94.8 56.5-.4.7-.8 1.5-1.2 2.2-14.1 27-41.4 44.4-67.3 55.3-14.6 6.1-29.6 10.8-45 14.1.1.9.1 1.9.2 3 22.4 0 44.7-1.7 66.8-5.1 7.7-1.1 15.2-2.5 22.6-4 2.9 11.5 11.1 33.2 30.7 33.2 6.7 0 13.2-1.5 19.1-4.6 14.6-7.6 25.4-24.8 28.3-52.6 85.7-35.8 146.5-95.7 169.7-153.7-1.3-19.8-8.9-51.5-40.1-70.4z" fill="#333"/><g fill="#1a1a1a"><path d="m855 1494.7c-.1-.2-.1-.4-.2-.7s-.2-.6-.3-1c-.4-1.5-.9-3-1.4-4.5-.1-.3-.2-.6-.3-.8-.6-1.7-1.3-3.3-2.1-4.9-.2-.4-.4-.7-.6-1.1-.8-1.5-1.6-2.9-2.5-4.3-.1-.2-.2-.3-.3-.5-1-1.5-2.1-3-3.3-4.3-.3-.3-.6-.6-.9-1-1.3-1.4-2.7-2.7-4.2-3.9-5.2-4.2-10.3-7.6-14.9-10.7-14.3-9.7-23.7-16.1-23.7-34.2-.1-6.4 4.9-11.8 11.3-12.1 1.3-.2 2.6-.3 3.9-.3h.9c1.5 0 3 .2 4.5.4l1 .2c1.6.3 3.2.7 4.8 1.1.3.1.6.2.8.3 1.8.6 3.5 1.2 5.2 2l.3.2c1.7.8 3.4 1.8 5 2.8.2.1.4.3.7.4 1.7 1.1 3.2 2.3 4.7 3.6l.8.7c1.5 1.4 2.9 2.9 4.3 4.5.2.3.5.6.7.9 1.4 1.7 2.6 3.5 3.7 5.5.1.2.3.5.4.7 1.2 2.2 2.3 4.4 3.1 6.7l.9 2.3c4.2 17.3 3.4 35.3-2.3 52zm-29.4-100.8c5.1 4.4 9.7 9.1 14 14.3-.6-.3-1.2-.6-1.9-.9-.3-.2-.7-.4-1-.5-1-.5-1.9-.9-2.9-1.3-.3-.1-.6-.3-.9-.4-1-.4-2-.7-3-1-.3-.1-.6-.2-.9-.3-1-.3-2-.6-3-.8-.3-.1-.6-.2-.9-.2-1-.2-2-.4-3-.5-.3 0-.6-.1-.9-.1-1-.1-2-.2-2.9-.2-.3 0-.6-.1-.8-.1-1 0-2 0-3 .1-.2 0-.5 0-.7 0-1.2.1-2.4.2-3.5.4-10.5 1-18.5 9.9-18.3 20.5 0 1.7.1 3.4.2 5 0 .5.1.9.2 1.3.1 1.2.3 2.3.6 3.4.1.3.1.6.1.8-25.4-17.3-85.3-51.4-181.2-67.4.6-.8 1.3-1.7 1.9-2.5l.2-.3c2-2.8 3.7-5.7 5.2-8.8.8-1.8 1.7-3.8 2.6-6.2 1-2.8 1.9-5.6 2.6-8.5 1.3-5.2 2.1-10.5 2.4-15.9.2-3.3.2-6.7.2-10.3 0-.7 0-1.3-.1-2-.1-3.4-.4-6.9-.8-10.5 0-.2 0-.5-.1-.7 86.4 9.4 156 55.9 199.6 93.6zm-214.5-94.9c2.1.1 4.1.2 6.2.4 0 .3.1.7.1 1 .5 3.7.8 7.3.9 10.7v1.5c.1 3.6.1 7.2-.1 10.5-.3 4.9-1 9.7-2.2 14.5-.6 2.6-1.4 5.1-2.3 7.5-.8 2.1-1.5 3.9-2.3 5.4-1.3 2.7-2.8 5.2-4.5 7.6-1.3 1.9-2.8 3.7-4.4 5.4-.6.6-1.1 1.2-1.7 1.7-.8.8-1.2 1.8-1.3 2.9 0 .1-.1.3-.1.4 0 .5.2.9.4 1.3.1.1.1.3.1.4.2.4.6.8.9 1.1.1.1.2.2.3.3l.4.3.2.2.1.1c1.2.9 2.3 1.9 3.4 2.9s2.4 1.9 3.5 3c.9.9 1.8 1.9 2.7 2.8 5.6 5.7 10.4 12.1 14.3 19 .7 1.2 1.4 2.5 2 3.7 1.2 2.3 2.4 4.8 3.4 7.2.5 1.2 1 2.3 1.4 3.5.7 1.8 1.4 3.7 2 5.6-18.3-4.2-32-7.7-36.7-8.9l-.1-.2c-5.7-10.7-16.5-36.1-9.5-47.3.4-.6.8-1.1 1.3-1.6.1-.1.2-.3.4-.5s.4-.4.8-.8c.1-.1.2-.3.3-.4.7-.8 1.4-1.7 2.1-2.6l.6-.9c.6-1 1.2-2 1.7-3 .2-.3.3-.6.4-.9.5-1.1 1-2.4 1.4-3.6.1-.2.2-.4.2-.7 1.5-4.8 2.6-9.8 3-14.9 0-.2 0-.5.1-.7.1-1.5.3-3 .4-4.4l.1-1c.1-1.4.1-2.8.2-4.2v-1c0-1.5 0-2.9 0-4.3v-.6c-.1-5-.4-9.6-.7-13.5v-.3c-.1-1.1-.2-2.2-.3-3.2 0-.2-.1-.4-.1-.6 0-.4-.1-.9-.1-1.3 3.5.1 7.1.3 11.1.5zm-30.5 53.8c-1.5-.2-2.9-.5-4.3-.7-.5-.1-1.1-.2-1.6-.3-1.9-.4-3.6-.8-5.2-1.2-.3-.1-.6-.2-.9-.3-1.3-.4-2.6-.7-3.7-1.1-.5-.2-1-.4-1.5-.6-.9-.3-1.8-.6-2.6-1-.5-.2-1-.4-1.5-.7-.7-.3-1.4-.6-2.1-1-.5-.2-.9-.5-1.3-.7-.6-.3-1.2-.6-1.7-1-.4-.2-.8-.5-1.2-.7-.5-.3-1-.7-1.5-1-.3-.2-.7-.5-1-.7-.4-.3-.9-.7-1.3-1-.2-.2-.5-.4-.8-.6-.4-.4-.8-.7-1.1-1-.2-.2-.4-.3-.5-.5-.5-.5-.9-1-1.3-1.4-.1-.1-.2-.3-.3-.4-.2-.3-.5-.6-.7-.9-.1-.2-.2-.3-.3-.5s-.3-.4-.4-.6-.2-.3-.3-.4-.2-.3-.2-.4c-.1-.1-.1-.2-.2-.3l-.1-.1c0-.3.1-.8.1-1.4 0-.1.1-.3.1-.5.1-.5.2-1 .3-1.7.1-.3.1-.6.2-.9.1-.6.3-1.1.4-1.8.1-.4.2-.8.4-1.2.2-.6.4-1.3.7-2 .2-.4.4-.9.6-1.4.3-.7.7-1.4 1-2.2.2-.5.5-.9.7-1.4.5-.8 1-1.6 1.6-2.4.3-.4.5-.8.8-1.2 1-1.3 2-2.5 3.1-3.6s2.3-2.1 3.5-3.1c.4-.3.9-.6 1.3-.9.9-.6 1.7-1.2 2.6-1.8.6-.3 1.1-.6 1.7-.9.9-.5 1.7-.9 2.7-1.4.6-.3 1.3-.6 2-.8.9-.4 1.8-.7 2.8-1.1.7-.2 1.5-.5 2.3-.7 1-.3 2-.6 3-.8.8-.2 1.7-.4 2.5-.5 1-.2 2.1-.4 3.2-.6.9-.1 1.8-.2 2.7-.4 1.1-.1 2.3-.2 3.4-.3.9-.1 1.9-.1 2.9-.2.6 0 1.1 0 1.6-.1 0 .4.1.7.1 1.1.1.5.1 1 .2 1.5 0 .4.1.8.1 1.2.3 2.8.5 5.8.7 9.1.1 1.1.1 2.3.1 3.5v.3c0 1.2.1 2.4.1 3.6v.4 3.7.1c-.1 6.2-.7 12.5-2 18.6l-.1.3c-.2 1-.5 1.9-.8 2.8-.1.2-.1.4-.2.7-.3.9-.6 1.7-.9 2.5-.1.2-.2.5-.3.7-.3.8-.7 1.5-1 2.2-.1.2-.2.4-.4.6-.4.7-.8 1.3-1.2 1.9-1-.1-2-.2-3-.3-.4.1-1.2 0-2-.1zm-33.6-78.4c11.2-.1 22.1 3.2 31.4 9.4 2.8 1.9 5.5 4.1 7.9 6.5-1.8.1-3.6.4-5.4.6-.2 0-.4 0-.6.1-2.2.3-4.3.7-6.3 1.2-.6.1-1.2.3-1.8.5-1.4.4-2.7.7-4.1 1.1-.7.2-1.4.5-2.1.7-1.2.4-2.3.9-3.4 1.3-.7.3-1.4.6-2 .9-1.1.5-2.1 1.1-3.1 1.6-.6.3-1.2.7-1.8 1.1-1 .6-2 1.3-3 2.1-.5.3-1 .7-1.4 1-1.4 1.1-2.7 2.3-4 3.5-1 1-1.8 2-2.7 3-.2.3-.5.6-.7.9-.6.8-1.2 1.6-1.7 2.3-.2.2-.4.5-.5.7-.6 1-1.2 2-1.8 2.9-.1.2-.2.5-.4.7-.4.8-.8 1.5-1.1 2.3-.1.3-.3.6-.4.9-.4.8-.7 1.7-1 2.5 0 .1-.1.2-.1.3-.3.9-.6 1.7-.8 2.6-.1.2-.1.5-.2.7-.2.6-.3 1.2-.4 1.8 0 .2-.1.4-.1.6-.1.7-.3 1.4-.4 2v.1c-.1 0-.3 0-.4 0-.7 0-1.4.1-2.1.2-.8.1-1.6.2-2.4.3-.7.1-1.3.2-2 .3-.8.1-1.5.3-2.3.4-.7.1-1.3.3-1.9.5-.7.2-1.5.4-2.2.6-.6.2-1.2.4-1.8.6-.7.2-1.4.5-2 .8-.6.2-1.1.5-1.7.7-.7.3-1.3.6-1.9.9s-1.1.6-1.6.9-1.2.7-1.8 1.1-1 .6-1.5 1-1.1.8-1.6 1.2-.9.7-1.3 1.1-1 .9-1.5 1.3-.8.8-1.2 1.2-.9 1-1.3 1.5c-.4.4-.7.8-1 1.3-.4.5-.8 1.1-1.2 1.6-.3.4-.6.9-.9 1.3-.4.6-.7 1.1-1 1.7-.2.5-.5.9-.7 1.4-.3.6-.6 1.3-.8 1.9-.2.5-.4.9-.6 1.4-.2.7-.4 1.4-.6 2.1-.1.5-.3.9-.4 1.4-.2.8-.3 1.6-.4 2.4-.1.4-.1.8-.2 1.2-.1 1.3-.2 2.5-.2 3.8 0 1.9.1 3.7.3 5.6.1.6.2 1.2.2 1.8.2 1.2.3 2.5.6 3.7.1.7.3 1.4.5 2.1.3 1.1.6 2.3.9 3.4.2.7.4 1.4.7 2.1.4 1.1.8 2.3 1.3 3.4.3.7.6 1.4.8 2 .6 1.2 1.1 2.4 1.8 3.6.3.6.6 1.1.9 1.7 1 1.7 2 3.4 3.1 5.1l.1.1c1.1 1.7 2.4 3.5 3.7 5.2.4.6.9 1.1 1.3 1.7 1 1.2 1.9 2.3 3 3.5.2.2.4.5.6.7-.9-.5-1.9-.9-2.8-1.3-2.2-1.1-4.4-2.2-6.6-3.2-.5-.2-1-.5-1.5-.7-25.5-11.4-52-20.5-79.1-27.3 46.4-105.2 97.8-105.2 122.7-105.2zm-247.2 200.5c.9-.5 1.6-1.2 2-2.1 24.9-58.8 106.8-83 116.7-85.7l.2.1.9.2.9.2 1.1.3 1.3.3 1.3.3 2.1.6 1 .3 3.5.9.3.1c1.3.4 2.8.8 4.3 1.2l.6.2c1.3.4 2.6.8 4 1.1l1.4.4c1.2.3 2.4.7 3.6 1.1l1.8.5 3.6 1.1 2 .6 3.6 1.1 2.3.7 3.6 1.2c.8.3 1.6.6 2.4.8 1.2.4 2.4.8 3.7 1.3l2.5.9c1.2.4 2.5.9 3.7 1.4l2.6 1c1.3.5 2.7 1 4 1.6.8.3 1.5.6 2.3.9 2.1.8 4.2 1.7 6.3 2.6 1.7.7 3.3 1.4 5 2.1l1 .4c1.2.5 2.5 1.1 3.7 1.7.8.4 1.6.7 2.5 1.1s1.8.9 2.7 1.3c1.1.6 2.3 1.1 3.4 1.6.8.4 1.6.8 2.4 1.2 1.2.6 2.5 1.3 3.7 1.9.6.3 1.1.6 1.6.9 1.5.8 2.9 1.6 4.3 2.4.3.2.6.4.9.5 1.7 1 3.3 1.9 4.9 2.9.4.2.7.5 1.1.7 1.5 1 3 1.9 4.5 2.9.3.2.6.4.9.6 1.5 1 2.9 2.1 4.3 3.2.1.1.2.2.4.3l4.5 3.6c.2.2.4.3.6.5 1.3 1.2 2.6 2.4 3.9 3.6.2.2.4.4.6.7 1.1 1.2 2.3 2.4 3.3 3.6.2.2.3.4.5.7 1 1.2 2 2.5 2.8 3.7.1.2.2.4.4.6.9 1.3 1.6 2.6 2.4 3.9.4.7.6 1.4.9 2.1.4.9.8 1.7 1.1 2.6.4 1.1.7 2.3.9 3.5.1.4.3.9.3 1.3.3 1.6.4 3.2.4 4.9 0 51.8-61 76.2-61.7 76.5-10.7 4.6-21.3 9.1-32.6 13.6-66.1 27.4-135.4 46.4-206.3 56.7-9.7 1.3-18.9 2.3-27.4 3-12.1 1-23.7 1.5-34.7 1.6-3.6 0-7.2 0-10.7-.1-4.5-.1-8.8-.3-12.9-.6-6.2-.4-10.9-.9-14-1.3 25.8-85.8 139.6-145 140.8-145.6zm134.5 107.2c-1.6 1-3.2 2-4.8 3-2.1 1.3-4.3 2.7-6.5 4-1.6 1-3.3 2-5 2.9-2.2 1.3-4.4 2.6-6.7 3.9-1.8 1-3.7 2.1-5.6 3.1-2.2 1.2-4.3 2.4-6.5 3.6-2.1 1.1-4.2 2.2-6.2 3.3-2.1 1.1-4.2 2.2-6.3 3.3-2.3 1.2-4.5 2.3-6.8 3.5-2 1-4.1 2-6.1 3-2.5 1.2-4.9 2.4-7.4 3.6-1.8.9-3.6 1.7-5.4 2.6-2.6 1.2-5.2 2.5-7.9 3.7-1.7.8-3.5 1.6-5.3 2.4-9.8 4.4-19.5 8.6-29.2 12.7-1.8.7-3.5 1.5-5.3 2.2-2.7 1.1-5.4 2.2-8 3.2-2.1.9-4.3 1.7-6.4 2.6-2.5 1-5 2-7.5 2.9-3 1.2-6.1 2.4-9.2 3.5-2.4.9-4.9 1.8-7.3 2.8-3.9 1.5-7.8 2.9-11.8 4.3l-4.7 1.7c-4.8 1.7-9.6 3.5-14.5 5.2l-.4.1c-19.6 6.8-39.6 13.4-59.3 19.4-14.7 4.5-26.2 7.8-33 9.6 4.6-12.1 17.1-26.1 36.8-40.8 3.1-2.3 6.4-4.7 9.9-7 .8-.6 1.8-1.1 2.6-1.7 2.7-1.8 5.3-3.6 8.2-5.4 1.3-.8 2.8-1.7 4.1-2.5 2.5-1.5 5-3.1 7.6-4.6 1.9-1.1 3.8-2.2 5.7-3.3 2.1-1.2 4.2-2.4 6.5-3.7 2.8-.2 5.8-.6 8.7-.8 1.4-.1 2.6-.2 4-.4 4.6-.5 9.3-1.1 14.2-1.7 7.5-1 15.1-2.1 22.7-3.4 2.5-.4 5-.9 7.5-1.3 5.2-.9 10.5-1.9 15.8-3 3-.6 5.9-1.2 8.9-1.9 5-1.1 9.9-2.2 14.9-3.3 3.1-.7 6.2-1.5 9.4-2.3 5.1-1.3 10.1-2.6 15.3-3.9 3-.8 6.1-1.6 9.2-2.5 5.7-1.6 11.3-3.2 17-5 2.6-.8 5.1-1.5 7.6-2.3 8.3-2.6 16.6-5.3 25-8.1.7-.3 1.5-.5 2.3-.8 6.8-2.3 13.7-4.7 20.5-7.2zm-78.5 55.6c-1.9 2.3-4 4.6-6.3 6.8-.6.6-1.3 1.2-2 1.9-1.7 1.6-3.3 3.1-5.1 4.6-.9.8-1.9 1.5-2.8 2.3-1.7 1.3-3.4 2.6-5.2 3.9-1.1.8-2.2 1.5-3.3 2.3-1.8 1.2-3.8 2.4-5.7 3.6-1.1.7-2.3 1.4-3.5 2.1-2.2 1.2-4.4 2.4-6.7 3.6-1.1.6-2.1 1.1-3.2 1.7-3.4 1.7-7 3.3-10.7 4.9-2.1.9-4.3 1.8-6.4 2.6-3.5 1.3-7 2.6-10.7 3.8-.4.1-.8.3-1.1.4-3.6 1.2-7.3 2.3-11.1 3.4-2 .6-4 1.1-5.9 1.6h-.1c-1.3.3-2.5.6-3.7.9l-.7.2-.4.1-.6.1c-1.4.3-2.8.7-4.1.9l-.6.1c-1.2.3-2.4.5-3.5.7l-.7.1c-1.1.2-2.2.4-3.1.6l-.3.1c-1.1.2-2.1.4-2.9.5.2-.8.3-1.6.5-2.4.3-1.6.7-3.4 1.1-5.3.1-.2.1-.5.2-.7.4-1.9.9-3.9 1.3-6.1l.1-.4c1.6-.6 3.1-1.1 4.7-1.7 2.6-.9 5.3-1.9 8-2.8 2.7-1 5.4-2 8.1-2.9l5.6-2c3.4-1.3 6.7-2.5 10-3.8l3.5-1.3c3.9-1.5 7.9-3 11.7-4.5l2.1-.8c4.4-1.8 8.8-3.5 13.1-5.3l1.1-.4c4.8-2 9.6-4 14.3-6l.2-.1c10.2-4.4 20.2-8.8 29.7-13.2-1.2 1.7-2.4 3.4-3.8 5-.5.1-.8.5-1.1.9zm-64.7 61.4c1.3-.1 2.6-.2 3.9-.3 3.9-.3 7.8-.7 11.6-1.1l5.4-.6s3.5-.4 5.3-.6c-3.7 7-8.1 13.5-13.2 19.6h-36.6c-2.7-4.8-4.3-10.1-4.6-15.6 3.1 0 6.2-.2 9.4-.3 1.1 0 2.3 0 3.4-.1 5.1-.3 10.2-.6 15.4-1zm89.1 41c-4.1-4.5-17.1-16.1-42.2-16.1h-22.3l-4-4c6.2-7.8 11.6-16.2 15.9-25.1 5.8-.9 11.4-1.9 16.8-2.9 6.1 20.1 17.7 31.7 32.3 32.4l26.2 15.7 4.8 8.9c-.2.3-.5.6-.7.9-.4.5-.8 1-1.2 1.5-.3.4-.5.7-.8 1.1-.4.6-.8 1.1-1.1 1.7-.3.4-.5.8-.8 1.2-.4.6-.7 1.2-1.1 1.8-.2.4-.5.9-.7 1.3-.4.7-.7 1.4-1 2.1-.2.4-.4.9-.6 1.3-.4.8-.7 1.7-1 2.5-.1.4-.3.7-.4 1.1-.4 1.3-.8 2.6-1.2 3.9-.1.2-.1.5-.1.7-.3 1.1-.5 2.3-.7 3.4-.1.5-.1 1-.2 1.5-.1.9-.2 1.9-.2 2.9v1.8c0 .9 0 1.9.1 2.8 0 .7.1 1.3.2 2 .1.9.2 1.9.4 2.9.1.7.2 1.4.4 2.1.2 1 .5 2 .8 3 .2.7.4 1.4.7 2.1.4 1.1.8 2.1 1.2 3.2l.9 2.1c.6 1.2 1.2 2.4 1.9 3.7.3.6.6 1.2 1 1.8 1.1 1.9 2.3 3.7 3.6 5.7.4.5.8.9 1.4 1.2.1.1.3.1.4.2.5.2 1 .4 1.6.4h.1.1c.5 0 1-.1 1.4-.2 1.8-.6 2.9-2.4 2.8-4.3-.8-9.8.2-36.9 13.7-44.1l31.3-15.6h42.6c.2-2.2-.5-8.5-.5-8.5-2.8-5.8-12.2-16.1-43.2-16.1h-39l-14.2-8.5c10.2-7.6 20.8-22 24.2-49.5 81.3-34.6 144.6-92.4 169.8-155.1 13.1-32.8 14.3-63.6 3.5-89.8 8.1 2 21.2 5.3 37.1 8.8 24.2 5.4 46.8 9.8 67.1 13.1 83 13.5 132.7 48.9 141.5 69.8.6 1.5 2 2.5 3.7 2.6h.3c1.5 0 2.9-.8 3.7-2.1 0 0 .2-.3.5-.9 11.5-22.2 14.6-47.7 8.9-72-5.7-20.8-17.8-39.3-34.4-52.9-45.4-39.3-118.6-88-209.7-96.3-3.3-.3-6.6-.5-9.8-.7-5.3-.3-9.8-.5-14.1-.5-4-5.1-8.8-9.6-14.3-13.2-10.7-7.2-23.3-11-36.2-10.9-41 0-88.7 13.5-131.7 113.2-16.9 4.9-33.3 11.5-48.9 19.6-35.2 18.4-60 42.4-71.9 69.3-22.1 12.1-43 26.2-62.6 42-30.7 24.9-70 64.6-82.9 112.7-.6 2.3.7 4.6 3 5.2.1 0 .2 0 .3.1.2 0 4.8.9 13.5 1.7-10 22-28 66.8-32.6 110.4l-3.2 8.5-.2.3-.4.7c-.3.6-.6 1.2-1 1.8-.2.4-.4.7-.6 1.1l-1.5 2.7-.7 1.3-1.2 2.2-.9 1.6-1.7 3.1-1.1 2.1-1.7 3-1.3 2.3-1.7 3.1-1.2 2.1c-.9 1.7-1.9 3.4-2.9 5.2l-1.3 2.3-2.3 4.1-1.3 2.4c-1.2 2.1-2.4 4.2-3.6 6.4-.4.7-.8 1.4-1.2 2.1-1 1.8-2.1 3.6-3.2 5.5l-1.4 2.4-4.7 8c-1.5 2.6-2.8 5.2-4 7.8-.4.8-.7 1.7-1 2.5-.5 1.2-1.1 2.5-1.5 3.7l-2.4 8.5c-8.9 40.1 26 63.4 26.4 63.6.7.4 1.5.7 2.3.7 67 0 83.7-41.2 84.4-42.9 0-.1.1-.2.1-.3l6.3-21.1 2.5-8.5 24-79.9 2.5-8.5 11.9-39.7h9.5c1.4 11.8 4.4 19.6 8.7 23.2.8.6 1.7.9 2.7.9h6.6l20.8 15.6-4.7 8.5-.3.2c-.5.4-.9.8-1.4 1.2-.4.3-.7.6-1.1 1-.5.5-.9 1-1.4 1.4-.3.3-.6.7-.9 1-.5.6-1 1.2-1.5 1.8-.2.3-.5.6-.7.9-.7 1-1.4 2-2 3.1-5.4 10.8-5.9 23.4-1.4 34.6.6 1.7 2.2 2.9 4 2.9h.2c1.9-.1 3.5-1.4 4-3.3.1-.3 7.5-31.1 36.9-37l39.8-7.9h23.5m-177-32.5c-1.8.1-3.3 1.4-3.8 3.1-4.9 18.1-26 20.7-28.2 21h-35.3c1.2-10.8 3.1-21.6 5.7-32.2l2-.5h.1c1.6-.4 3.8-1 6.5-1.8l.4-.1 4.2-1.2.7-.2c3.1-.9 6.6-1.9 10.4-3l1.1-.3 6-1.8.9-.3 6.8-2.1c9.4-2.9 18.8-5.8 28.2-8.9 2.9-1 5.9-2 8.8-2.9 5.1-1.7 10.3-3.4 15.4-5.1l-.1.3c-.2.9-.4 1.7-.5 2.5-.1.5-.2.9-.3 1.4-.2 1.2-.5 2.4-.7 3.5-.4 2.5-1.1 5-2 7.4-.1.2-.2.4-.2.5-4.2 11.2-14.3 19.1-26.1 20.7zm-34.2-85.6h1.1c3 .2 6 .3 9.2.4 2.9.1 5.8.1 8.8.1h2.1c4.6 0 9.2-.1 14-.3.9 0 1.7 0 2.5-.1h.5c-3 1.8-5.9 3.6-8.7 5.3l-1.5 1c-3 1.9-5.8 3.8-8.6 5.6-.9.6-1.7 1.2-2.6 1.7-3.1 2.2-6.2 4.3-9 6.5-2.9 2.1-5.6 4.3-8.2 6.5-.8.7-1.6 1.3-2.4 2-1.8 1.5-3.5 3-5.1 4.5-.8.7-1.6 1.4-2.3 2.2-1.6 1.5-3.1 3-4.5 4.5-.6.6-1.2 1.2-1.7 1.8-.2.2-.4.4-.6.6 6.1-17.9 12.6-32.9 17-42.3zm-60.6 262.5c-5.6-4-31.2-24.7-20.5-58.8 1.7-5.3 4-10.4 6.8-15.2 24-41.1 35.6-63.3 39.1-70.2h37.6.3c1.1-.1 27.2-2.4 35.1-24.6l1.5-.3.6-.1c.4-.1.8-.2 1.2-.3.3-.1.5-.2.8-.2.4-.1.8-.2 1.2-.4l.9-.3c.4-.2.8-.3 1.3-.5.3-.1.7-.3 1-.4.7-.3 1.4-.6 2.2-1 .4-.2.7-.4 1.1-.6s.9-.5 1.3-.7.8-.5 1.2-.7c.4-.3.8-.5 1.2-.8l1.2-.9c.4-.3.8-.6 1.2-1 .3-.2.6-.5.9-.7l-42.2 140.5c-1.1 2.6-16.5 36.6-75 37.2zm247.8-152.7c-.3 0-.6 0-.8.1l-40.2 8c-16.4 3.4-30.4 14.2-37.9 29.2-.1-4.8 1-9.6 3.3-13.9 4.7-7.4 11.9-12.7 20.3-15 .5-.1.9-.3 1.3-.6.1-.1.2-.2.3-.3.3-.2.5-.4.7-.7.3-.4.6-.8.7-1.3.1-.1.1-.2.1-.4v-.1c.1-.4.1-.9.1-1.3 0 0 0 0 0-.1 0 0-.1-.2-.1-.2-.1-.4-.2-.7-.3-1-.1-.1-.1-.3-.2-.4-.2-.3-.4-.5-.6-.7-.1-.1-.2-.2-.3-.3-.1 0-.1-.1-.1-.1l-21.9-16.4h17.6l6.8 6.8c.8.8 1.9 1.2 3 1.2h24.1c10.2-.3 20.2 2.3 28.9 7.6zm56.3-7.6h40.2c19 0 28 4.1 32.3 7.6h-32.3c-.7 0-1.3.2-1.9.4l-32.3 16.1c-1.5.8-3 1.8-4.3 2.9-9.2 7.7-12.5 21.5-13.7 32.5-2.6-7.5-2.8-15.6-.4-23.2 2.8-8.3 8-15.6 14.8-21.1.5-.4.9-.9 1.1-1.4.1-.1.1-.2.2-.4.2-.6.4-1.2.4-1.8 0 0 0 0 0-.1s-.1-.1-.1-.2c0-.3-.1-.6-.1-.9-.1-.2-.2-.4-.3-.6-.1-.1-.1-.2-.2-.3-.3-.5-.8-.9-1.3-1.3 0 0-.1-.1-.1-.1l-29.8-17.9c.4-.1.8-.3 1.2-.4 1.4-.4 2.7-.9 4-1.5.4-.2.7-.2 1.1-.4l19.1 11.5c.9.4 1.6.6 2.4.6zm5.6-73.4c-1.4.6-2.4 1.9-2.6 3.5-2.5 24.7-11.6 41.7-26 49.2-5.3 2.7-11.2 4.2-17.2 4.1-16.4 0-23.7-18.8-26.6-30-.5-1.9-2.2-3.2-4.1-3.2-.3 0-.6 0-.9.1-7.1 1.5-14.7 2.8-22.4 4-6.4 1-12.8 1.7-19.2 2.4-2 .2-3.9.4-5.9.6-4.6.4-9.1.8-13.7 1.1l-3.3.2c.6-.2 1.2-.4 1.9-.6 1.8-.6 3.5-1.1 5.2-1.8 2-.7 4-1.4 6.1-2.2.9-.3 1.8-.6 2.7-1h.1c2.1-.8 4.3-1.7 6.4-2.6 33.7-14.2 57-33.5 69.4-57.2l.5-1c10.2-4.9 19.9-9.9 29.2-14.9l2.5-1.4c3.6-2 7.2-4 10.7-5.9 1.4-.8 2.7-1.6 4.1-2.4 2.9-1.7 5.8-3.4 8.7-5.1 1.5-.9 3.1-1.9 4.6-2.8 2.6-1.6 5.2-3.3 7.8-4.9 1.5-1 3-2 4.5-2.9 2.7-1.8 5.3-3.6 7.9-5.4 1.2-.8 2.4-1.7 3.6-2.5 3.6-2.6 7.1-5.1 10.4-7.7 3.7-1.5 7.3-3 10.9-4.5 1.7-.7 3.5-1.4 5.2-2.1 5.4-2.3 10.7-4.5 15.9-6.8 12-5.1 23.2-11.8 33.3-20.1 22.1-18.1 33.7-40.3 33.7-64.3 0-1.9-.2-3.9-.5-5.8-.1-.9-.4-1.7-.6-2.6-.2-1-.5-2-.8-3-.4-1.1-.8-2.3-1.3-3.4-.3-.6-.5-1.2-.8-1.8-.6-1.3-1.3-2.7-2.1-4-.1-.1-.2-.3-.2-.4-.7-1.2-1.4-2.4-2.3-3.6.9.7 1.7 1.3 2.6 2 .5.4 1 .8 1.5 1.2 1.4 1.2 2.7 2.4 4 3.6.3.3.6.6.9.9 1 1 1.9 1.9 2.8 2.9.5.5.9 1 1.3 1.5.7.8 1.4 1.6 2 2.5.4.6.8 1.1 1.3 1.7.6.8 1.1 1.6 1.7 2.4.4.6.8 1.2 1.2 1.8.5.8 1 1.6 1.4 2.4.4.6.7 1.2 1 1.9.4.8.9 1.6 1.3 2.4.3.6.6 1.3.9 1.9.4.8.7 1.6 1.1 2.5.3.6.5 1.3.8 1.9.3.8.6 1.7 1 2.5.2.6.4 1.2.7 1.8.3.9.6 1.8.8 2.6.2.6.4 1.1.5 1.7.3.9.5 1.9.7 2.8.1.5.3 1 .4 1.4.3 1.3.6 2.5.8 3.8 0 .1.1.3.1.4.3 1.4.5 2.8.7 4.1.1.4.1.8.2 1.3.1.9.3 1.9.4 2.8.1.5.1 1 .1 1.5.1.6.1 1.3.2 1.9-24.9 61-87.3 117.2-167.2 150.6zm173-167.6c-.3-1.2-.6-2.5-1-3.8l-.2-.8c-.3-1.2-.7-2.4-1.1-3.6-.1-.5-.3-.9-.5-1.4-.4-1.2-.8-2.3-1.3-3.5-.1-.4-.3-.7-.4-1.1-.6-1.5-1.2-3-1.9-4.5-.2-.4-.3-.7-.5-1.1-.6-1.2-1.1-2.4-1.8-3.5-.2-.5-.5-.9-.7-1.4-.7-1.2-1.4-2.5-2.2-3.7-.2-.3-.3-.6-.5-.9-.9-1.5-1.9-3-3-4.4-.3-.4-.6-.8-.9-1.1-.8-1.1-1.7-2.2-2.6-3.3-.4-.4-.7-.9-1.1-1.3-1.1-1.3-2.3-2.5-3.5-3.8-.2-.2-.3-.3-.5-.5-1.4-1.4-2.8-2.7-4.3-4-.4-.4-.9-.7-1.3-1.1-1.2-1-2.4-1.9-3.7-2.9-.5-.4-1-.7-1.5-1.1-1.7-1.2-3.5-2.4-5.4-3.6-54.2-32.7-54.2-59.8-54.2-68.7 0-1 .1-1.9.2-2.9 0-.3.1-.6.2-.9.1-.6.2-1.3.3-1.9.1-.4.2-.7.3-1.1.2-.5.3-1.1.5-1.6.1-.4.3-.7.5-1.1.2-.5.4-1 .6-1.4s.4-.7.6-1.1.5-.9.8-1.3.5-.7.7-1 .6-.8.9-1.2.6-.7.9-1 .7-.8 1.1-1.1.7-.6 1-.9.8-.7 1.2-1 .7-.6 1.1-.8.9-.6 1.3-.9.8-.5 1.2-.8.9-.6 1.4-.8.9-.5 1.3-.7 1-.5 1.5-.7.9-.4 1.4-.6 1.1-.4 1.6-.6 1-.3 1.5-.5 1.1-.3 1.7-.5c.6-.1 1-.3 1.6-.4.5-.1 1.2-.2 1.8-.3s1.1-.2 1.6-.3c.6-.1 1.3-.2 1.9-.2.6-.1 1.1-.1 1.7-.1h.6c.1.1.2.3.3.5l.3.4c.3.5.7 1 1.1 1.6l.1.2c.4.5.8 1 1.3 1.6l.5.6c.4.5.9 1 1.4 1.5l.5.5c.7.7 1.4 1.3 2.2 2 .2.1.4.3.6.4.7.6 1.4 1.1 2.2 1.6l.9.6c.9.6 1.9 1.2 3 1.8l.3.2c1.2.7 2.4 1.3 3.8 1.9.4.2.8.3 1.1.5 1.1.5 2.2 1 3.4 1.4.4.2.8.3 1.2.5 1.6.6 3.3 1.1 5.1 1.7l.9.2c1.6.4 3.2.8 4.9 1.2.6.1 1.2.3 1.8.4 1.7.4 3.5.7 5.4 1 .4.1.9.2 1.3.2.2 0 .3.1.5.1-.2.3-.3.7-.4 1s-.2.6-.4.9c-.4 1.1-.7 2.2-1 3.3 0 .2-.1.4-.2.7-.3 1.4-.4 2.8-.5 4.2v1.1 3.1c0 1.1.1 2 .2 3 0 .4.1.7.1 1.1 2.3 13.1 6.8 25.6 13.4 37.1l.1.1c11.6 21.3 13.4 46.9 5.7 74.6zm111.5-56.9c-19.5-3.2-41-7.4-64.1-12.5-.3-1.2-.7-2.4-1.1-3.7v-.1c-.8-2.4-1.6-4.7-2.5-7-.5-1.2-1-2.5-1.5-3.7-1.1-2.6-2.4-5.3-3.7-7.8-.7-1.3-1.4-2.7-2.2-4-1.6-2.9-3.4-5.6-5.3-8.3-.4-.5-.7-1-1.1-1.5-.6-.8-1.2-1.6-1.8-2.4-1-1.3-1.9-2.6-3-3.8-.8-1-1.7-1.9-2.5-2.8-.4-.5-.8-1-1.3-1.5 46.5 8.1 91.5 22.8 133.8 43.7 17.5 8.5 34 18.8 49.3 30.8.3.2.6.4.9.6l.3.3c1 1.1 2.1 2.1 3.2 3.1l.4.4c1.2 1 2.4 2 3.6 2.9l.8.6c1.2.9 2.5 1.8 3.8 2.7l.9.7c1.3.9 2.6 1.8 3.9 2.7 4.6 3.1 9.4 6.3 14.3 10.3 1.5 1.2 2.9 2.6 4.1 4 .4.5.7 1 1.1 1.5.8 1 1.5 2.1 2.2 3.2.4.6.7 1.2 1 1.9.6 1.1 1.1 2.2 1.6 3.3.3.7.6 1.3.8 2 .4 1.2.8 2.4 1.2 3.6.1.4.2.8.3 1.1-19.5-21.3-64.8-48.5-137.4-60.3z"/><path d="m591.5 1326.4c0-11.2-9.1-20.3-20.3-20.3s-20.3 9.1-20.3 20.3 9.1 20.3 20.3 20.3 20.3-9.1 20.3-20.3zm-20.4 11.8c-6.5 0-11.8-5.3-11.8-11.8s5.3-11.8 11.8-11.8 11.8 5.3 11.8 11.8c.1 6.5-5.2 11.8-11.8 11.8z"/></g></g></svg>