<svg viewBox="0 0 800 800" xmlns="http://www.w3.org/2000/svg"><path d="m131.88 148.69c-2.88.69-13-7.69-43.82-4.75-11.68 1.12-15.94 4.12-15.94 4.12s1.13-16.62 15.13-27.81c9.81-7.87 18.81-10.94 25-12.12a8.32 8.32 0 0 0 6.56-9.57c-1.69-10.68-2-28.25 11.44-37.18 12.62-8.44 26.19-2.63 34.5 2.87a8.28 8.28 0 0 0 12-3 61.79 61.79 0 0 1 16.37-19.81c15.69-12.13 30.32-3.88 30.32-3.88s-13.44 11.63-14.07 41.25c-.06 3.25 1.19 11.38-.56 14.25-20.5 14.57-33.62 25.82-54.12 40.44-8.57 6.13-10.94 7.75-19.63 13.69a9.13 9.13 0 0 1 -3.19 1.5z" fill="#3f51b5"/><circle cx="273.94" cy="246.5" fill="#3f51b5" r="188.87"/><path d="m382.31 91.81c9.88 18.94 25.63 31.69 14.25 92.5-8.81 47.13-48.19 96.38-129.06 101.63-68.81 4.43-117.44-33.13-131.38-78.75-13.25-43.38-5.43-80.13 22.07-110-70.13 46.75-73.13 127.56-73.13 149.25 0 104.31 84.56 188.87 188.88 188.87s188.87-84.56 188.87-188.87a188.35 188.35 0 0 0 -80.5-154.63z" fill="#303f9f"/><circle cx="564.94" cy="373.44" fill="#5064c9" r="207"/><path d="m771.69 381.63c-35.57 90.06-117.44 162-244.94 122.5-104.19-32.32-158.81-156.25-128.06-253.44a206.65 206.65 0 0 0 -30.19 59.31c-34.75 108.88 25.12 225.31 133.81 260s225-25.44 259.75-134.31a210 210 0 0 0 9.63-54.06z" fill="#4054b0"/><path d="m627.25 288.56s21.75 50 57 38c21.13-7.19 15.63-42.44 15.63-42.44s56.18-2.56 53.62-27.25c-2.62-25.31-37.94-33.56-37.94-33.56s-3.06-36.56-15.68-46.25c-21.07-16.06-47.25 8.88-47.25 8.88s-20.19-33.81-50.69-27.25c-24.44 5.25-11.06 57.5-11.06 57.5s-35.38-.44-20.69 28.62c16.06 31.88 57.06 43.75 57.06 43.75z" fill="#8092f2"/><ellipse cx="652.58" cy="244.74" fill="#2f3e82" rx="40.31" ry="45.88" transform="matrix(.44947491 -.89329295 .89329295 .44947491 140.67 717.72)"/><ellipse cx="649.21" cy="251.03" fill="#5064c9" rx="34.5" ry="39.75" transform="matrix(.56 -.83 .83 .56 76.81 647.08)"/><circle cx="241.69" cy="551.5" fill="#6678d9" r="213.63"/><path d="m443.63 481.81c1.18 8.25 4.18 220.5-211.19 226.63-88.25 2.5-148.06-55.69-175.81-122.44-28.51-68.56 5.24-149.75 5.24-149.75s-18.06 29.13-22.06 45.56a213 213 0 0 0 -11.69 69.69c0 118 95.63 213.63 213.63 213.63s213.63-95.63 213.63-213.63a215.9 215.9 0 0 0 -11.75-69.69z" fill="#5366cf"/><path d="m221.37 511s-25.31 49.44-71.25 36.06c-21.25-6.18-11.31-39.43-11.31-39.43s-29.69-2.44-40.44-28c-9.62-22.87 41.88-32 41.88-32s-20.38-37.5 1.19-52.62 45.06 18.87 45.06 18.87 19.19-55.37 44.13-37.06c23.87 17.55 17.81 68.18 17.81 68.18s43 7.25 28.5 36.31c-16 32-55.56 29.69-55.56 29.69z" fill="#9aa7ed"/><ellipse cx="188.73" cy="469.76" fill="#2c3f9e" rx="48.56" ry="44.81" transform="matrix(.97711988 -.21268932 .21268932 .97711988 -95.63 50.91)"/><ellipse cx="196.36" cy="473.14" fill="#5366cf" rx="41.06" ry="39.38" transform="matrix(.97711988 -.21268932 .21268932 .97711988 -96.18 52.62)"/></svg>