<svg viewBox="0 0 800 441" xmlns="http://www.w3.org/2000/svg"><path d="m112.5 354.5h-75v-74.2a50 50 0 0 1 37-48.3l102.1-27.5h535.9a50 50 0 0 1 50 50v100h-75" fill="#dd4a43"/><path d="m39.46 292a26.27 26.27 0 0 0 -2 9.5v53h725v-62.5z" fill="#d13e37"/><path d="m675 204.5h-498.41l110-132a50 50 0 0 1 38.41-18h223.24a50 50 0 0 1 41.6 22.26z" fill="#87ced9"/><path d="m425 54.5h25v150h-25z" fill="#5eb3d1"/><circle cx="175" cy="354.5" fill="#575755" r="62.5"/><circle cx="625" cy="354.5" fill="#575755" r="62.5"/><g fill="#ebebe8"><circle cx="175" cy="354.5" r="25"/><circle cx="625" cy="354.5" r="25"/><path d="m350 242h50v25h-50z"/><path d="m550 242h50v25h-50z"/></g><path d="m321.48 87.01h19.53v25h-19.53z" fill="#a7e1eb" transform="matrix(.64 -.77 .77 .64 42.73 290.25)"/><path d="m264.47 132h58.57v25h-58.57z" fill="#a7e1eb" transform="matrix(.64 -.77 .77 .64 -5.32 277.64)"/><path d="m425 204.5h25v150h-25z" fill="#d13e37"/></svg>