<svg viewBox="0 0 800 800" xmlns="http://www.w3.org/2000/svg" xmlns:xlink="http://www.w3.org/1999/xlink"><radialGradient id="a" cx="-160.24" cy="544.58" gradientTransform="matrix(299.87 -209.4 -117 -167.55 112017.5 58150.3)" gradientUnits="userSpaceOnUse" r="1"><stop offset="0" stop-color="#7f226d"/><stop offset=".29" stop-color="#7b2069"/><stop offset=".58" stop-color="#6f195e"/><stop offset=".87" stop-color="#5a0f4b"/><stop offset="1" stop-color="#4f0940"/></radialGradient><radialGradient id="b" cx="-160.23" cy="544.5" gradientTransform="matrix(296.34 -206.93 -133.47 -191.14 120407.47 71332.36)" xlink:href="#a"/><radialGradient id="c" cx="-160.47" cy="544.6" gradientTransform="matrix(431.17 -310.97 -111.43 -154.5 130010.23 34899.99)" gradientUnits="userSpaceOnUse" r="1"><stop offset="0" stop-color="#4f0940"/><stop offset=".25" stop-color="#4e0b3c"/><stop offset=".5" stop-color="#4a0f30"/><stop offset=".75" stop-color="#44171b"/><stop offset="1" stop-color="#3c2200"/></radialGradient><radialGradient id="d" cx="-159.8" cy="546.84" gradientTransform="matrix(191.93 -119.93 -24.55 -39.29 44414.23000000001 2694.33)" gradientUnits="userSpaceOnUse" r="1"><stop offset="0" stop-color="#fff" stop-opacity=".25"/><stop offset="1" stop-color="#fff" stop-opacity="0"/></radialGradient><radialGradient id="e" cx="-160.16" cy="545.08" gradientTransform="matrix(254.28 -237.72 -48.67 -52.06 67643.77 -9126.56)" gradientUnits="userSpaceOnUse" r="1"><stop offset="0" stop-color="#391838" stop-opacity=".25"/><stop offset="1" stop-color="#391838" stop-opacity="0"/></radialGradient><linearGradient id="f" gradientTransform="matrix(33.33 0 0 -33.33 5205.67 18389.33)" gradientUnits="userSpaceOnUse" x1="-133.77" x2="-136.1" y1="546.63" y2="549.68"><stop offset="0" stop-color="#76ab50"/><stop offset="1" stop-color="#d8f88d"/></linearGradient><linearGradient id="g" x1="-134.31" x2="-135.95" xlink:href="#f" y1="547.72" y2="549.07"/><linearGradient id="h" x1="-135.49" x2="-141.83" xlink:href="#f" y1="544.24" y2="552.48"/><linearGradient id="i" gradientTransform="matrix(33.33 0 0 -33.33 5205.67 18389.33)" gradientUnits="userSpaceOnUse" x1="-133.56" x2="-143.59" y1="545.17" y2="545.66"><stop offset="0" stop-color="#4b8c1c"/><stop offset="1" stop-color="#d8f88d"/></linearGradient><linearGradient id="j" gradientTransform="matrix(33.33 0 0 -33.33 5205.67 18389.33)" gradientUnits="userSpaceOnUse" x1="-135.98" x2="-135.42" y1="546.53" y2="540.63"><stop offset="0" stop-color="#4b8c1c"/><stop offset="1" stop-color="#76ab50"/></linearGradient><linearGradient id="k" x1="-135.53" x2="-135.38" xlink:href="#f" y1="547.15" y2="549.72"/><linearGradient id="l" gradientTransform="matrix(33.33 0 0 -33.33 5205.67 18389.33)" gradientUnits="userSpaceOnUse" x1="-135.69" x2="-134.13" y1="547.79" y2="550.61"><stop offset="0" stop-color="#407817"/><stop offset="1" stop-color="#4b8c1c" stop-opacity="0"/></linearGradient><linearGradient id="m" x1="-134.48" x2="-134" xlink:href="#f" y1="548.94" y2="549.63"/><linearGradient id="n" x1="-134.39" x2="-133.91" xlink:href="#f" y1="549.08" y2="549.77"/><linearGradient id="o" x1="-137.13" x2="-140.69" xlink:href="#f" y1="545.34" y2="550.22"/><linearGradient id="p" gradientTransform="matrix(33.33 0 0 -33.33 5205.67 18389.33)" gradientUnits="userSpaceOnUse" x1="-137.77" x2="-139.73" y1="546.1" y2="549.34"><stop offset="0" stop-color="#4b8c1c"/><stop offset="1" stop-color="#b0d55b"/></linearGradient><linearGradient id="q" x1="-130.97" x2="-147.77" xlink:href="#f" y1="545.94" y2="547.54"/><linearGradient id="r" x1="-135.61" x2="-137.44" xlink:href="#j" y1="539.94" y2="545.95"/><linearGradient id="s" x1="-132.21" x2="-141.51" xlink:href="#f" y1="550.9" y2="544.43"/><linearGradient id="t" x1="-137.9" x2="-140.05" xlink:href="#f" y1="545.02" y2="549.57"/><path d="m677.53 123.25-51.62-22.48a72.73 72.73 0 0 0 -83.81 19.23c-53.53 62.28-172.57 180-353.91 247.81a185.16 185.16 0 0 0 -131.04 177.19c0 102.09 82.85 184.95 185 184.95 115 0 281.14-105.71 456.19-504.76z" fill="url(#a)"/><path d="m471.81 416.77c-49.14 181.33-207.24 234.67-275.43 176-49.71-42.86-44.38-146.67-3.23-226.86-1.72.77-3.43 1.34-5.34 2.1a184.89 184.89 0 0 0 -130.66 176.99c0 102.1 82.85 184.95 185 184.95 115 0 281.14-105.71 456.19-504.76l-20.81-101.75c-32.96 21.33-156.53 112-205.72 293.33z" fill="url(#b)"/><path d="m698.29 225-12.19-59.86c-36.57-26.66-68.38-31.43-60 43.62 18.09 161.53-134.67 326.29-248.38 409.72s-273.91 84-318.67-100a173.65 173.65 0 0 0 -1.9 26.52c0 102.1 82.85 185 185 185 115-.09 281.09-105.81 456.14-505z" fill="url(#c)" opacity=".5"/><path d="m677.53 123.25-51.62-22.48a72.73 72.73 0 0 0 -83.81 19.23c-53.53 62.28-172.57 180-353.91 247.81a185.16 185.16 0 0 0 -131.04 177.19c0 102.09 82.85 184.95 185 184.95 115 0 281.14-105.71 456.19-504.76z" fill="url(#d)" opacity=".75"/><path d="m677.53 123.25-51.62-22.48a72.73 72.73 0 0 0 -83.81 19.23c-53.53 62.28-172.57 180-353.91 247.81a185.16 185.16 0 0 0 -131.04 177.19c0 102.09 82.85 184.95 185 184.95 115 0 281.14-105.71 456.19-504.76z" fill="url(#e)" opacity=".75"/><path d="m736 83.82 6.48 9.33s-14.29 30.67-54.67 66.48l-36.38-45.15s47.05-15.62 64.76-43z" fill="url(#f)"/><path d="m716.2 71.44a38.13 38.13 0 0 1 -3.2 4.38c.57 2.66 3 4.57 4.57 7.23 2.67 4.39 8.19 9.53 3.05 18.1s-9 18.67-38.86 21.9l9.91 33c37.52-34.29 50.85-62.86 50.85-62.86l-6.52-9.37z" fill="url(#g)"/><path d="m677.53 123.25-51.62-22.48a72.73 72.73 0 0 0 -83.81 19.23c-13.52 15.81-31.23 35-53 56 3.62 2.28 12.38-.57 14.48-1.34 23.24-6.85 33.14-6.09 53.14-9.52-14.86 25.71-16.57 70.1-19 100.76a1.07 1.07 0 0 0 1.72.95c18.66-17 64.19-29.71 110.85-54.09-4.19 34.67 5.34 70.48 7.05 101.14 13.72-28 27.43-57.52 41.15-89z" fill="#391838"/><path d="m673 152.77c-49.9 55.81-13.9 129.53-23.62 179.43a3.18 3.18 0 0 0 5 3.24c20.19-14.86 75.61-61.53 71.42-124.19-2.93-43.25-43.7-110.86-43.7-110.86z" fill="url(#h)"/><path d="m725.91 211.24c-1.52-23.43-14.28-54.09-25.52-77.14l-.19 41.71c2.66 11.43-8 47.05-15.24 56.38-7.24 9.15 6.67 5.72 20-20.38s-1.52 37.53-19.05 50.67c-13.33 10.09-2.86 16.76 22.67-12 19.62-22.1 1.9 20.76-21.91 38.67-12 9 9.34 5.71 18.86-7 12.95-20.05 22.1-44.05 20.38-70.91z" fill="url(#i)"/><path d="m668.19 275c0-41.9 3-59.24 13.34-75.62 9-14.28 28.57-30.66 29-43.24-1.9-4.38-3.81-8.76-5.71-13-6.29-4.57-17.91-2.28-30.48 2.86l-1.14 6.67c-50.1 56-13.53 130.09-23.62 180a1.47 1.47 0 0 0 2.66 1.14c5.86-9.63 15.95-29.81 15.95-58.81z" fill="url(#j)"/><path d="m666.11 128c34.85-15 44-29.91 47.8-37.53 3.81-7.42-2.85-12.38-8-7-14.66 15.23-26.28 18.28-31.8 20.57-5.53 2.63-8 23.96-8 23.96z" fill="url(#k)"/><path d="m736 83.82 6.48 9.33s-14.29 30.67-54.67 66.48l-36.38-45.15s47.05-15.62 64.76-43z" fill="url(#l)"/><path d="m716 71.43c-2.1 2.67 7 6.29 11.42 10.1 4.58 3.81 13 14.09 15.05 11.43s-5.14-13.14-8.38-16.38c-4.75-4.76-15.99-7.81-18.09-5.15z" fill="url(#m)"/><path d="m716 71.43c-2.1 2.67 7 6.29 11.42 10.1 4.58 3.81 13 14.09 15.05 11.43s-5.14-13.14-8.38-16.38c-4.75-4.76-15.99-7.81-18.09-5.15z" fill="url(#n)"/><path d="m476.2 168.58c1.14 1.14 2.85 1.71 8.19.95a33.68 33.68 0 0 0 7.23-1.91c34.29-12 55.24-6.66 85.91-16.19 26.09-8 53.9-24 71.05-27.81s31.62-24.38 31.62-24.38-71.43-43.24-129.91-7.43c-36.57 22.48-52.57 47.24-59.24 62.86-4.19 9.33-14.85 13.91-14.85 13.91z" fill="url(#o)"/><path d="m648.39 123.82c17.14-3.82 31.61-24.39 31.61-24.39a158.45 158.45 0 0 0 -26.1-12c-49.9 7.43-77.9 30.1-91 44.39a45.31 45.31 0 0 1 -24.38 14.09c-33.14 7.05-54.28 23.81-54.28 23.81a26.16 26.16 0 0 0 7.23-1.9c34.29-11.43 55.24-6.67 85.91-16.19 26.24-8 54.05-24 71.01-27.81z" fill="url(#p)"/><path d="m531.63 242.29a1.07 1.07 0 0 1 -1.71-.95c6.47-55.62 23-106.29 85.71-138.09 41.33-21 83.24-.58 83.24-.58 13.33 7.81 27 56.58-33.91 94.86-49.71 31.47-120.19 35.24-133.33 44.76z" fill="url(#q)"/><path d="m698.87 102.67c23.8 45.9-59.24 99.43-99.43 107.62-31.62 6.47-57.53 22.28-66.1 31.05 16.19-8.77 83.62-13.53 131.81-43.81 60.76-38.29 47.05-87.05 33.72-94.86z" fill="url(#r)"/><path d="m702.29 105.53a11.35 11.35 0 0 0 -3.42-2.85 101.66 101.66 0 0 0 -28.77-8c-64.38 26.32-106.1 78.85-120.19 106.85-17.14 33.91 12.38-8.95 26.48-19.61s36.19-15 51.05-12.77-4.19-8.38-22.29-9.14 20.57-17.52 43.05-11c22.47 6.67 6.86-14.28-20.19-12.57-23.43 1.67 31.81-22.71 74.28-30.91z" fill="url(#s)"/><path d="m550.1 91.81c-33.91 20.76-50.1 43.81-57.72 59.43 1 5.71 3.24 7.62 5.91 0 5.71-16.19 30.09-42.86 27.05-32.19s-5.53 32 .95 15 37.14-49.05 28.57-28.34-7.62 26.67 6.09 5.72 46.1-36.76 36.39-23.43-5.72 18.48 3 8.76c5.19-5.71 14.71-12.76 25.38-16.76-22.86-4.38-50.48-3.62-75.62 11.81z" fill="url(#t)"/><g fill="#4b8c1c" opacity=".24"><path d="m717.91 84.77c-6.29 1.14-8.76 7.81-15.43 6.47 2.86-7.62 6.86-9.52 15.43-6.47z" opacity=".24"/><path d="m642.68 187.43c-2.1-3.81-4.77-7.61-.19-11.81 1.14-1.14 1.14-3.42 1.9-5.52 5.33 6.67-.95 11.62-1.71 17.33z" opacity=".24"/><path d="m575.82 91.81c2.86 1.91 4.95 3.43 6.86 4.76l-5.53 5.53c-2.28-4.19-2.28-4.19-1.33-10.29z" opacity=".24"/><path d="m529 152c-.76.39-1.53 1.15-2.29 1.53-2.28 1.14-4.76 3-6.67.38-1.9-2.48 1.34-3.24 2.48-4.57 2.48-3.05 4.38-1.14 6.1.95a12.11 12.11 0 0 1 .38 1.71z" opacity=".24"/><path d="m549.53 223.43c-2.47 1.53-4 2.29-5.52 3.43-1.33.95-2.29 2.48-3.43 3.62-1.52-.76-3.43-1.91-5-2.86 7.67-4.95 7.67-4.95 13.95-4.19z" opacity=".24"/><path d="m704.39 198.86c1.52-3.24 3.05-6.28 4.38-9.52l1.14.57c-.95 3.81-2.09 7.62-3.24 12.19-2.66-.76-5.33-1.52-8-2.48 0-.38.19-.76.19-1.14 2.14.19 4 .38 5.53.38z" opacity=".24"/><path d="m687.05 275.63c-5.52 4.38 2.1 8.19-.38 12.95-1.33-.95-3.42-1.71-3.81-2.86a18.35 18.35 0 0 1 -.76-6.47c-.19-3.05 1.53-3.81 4.95-3.62z" opacity=".24"/><path d="m671.62 96.19c2.86 2.1 3.62 5 1.53 7-1.91 1.71-5 1.9-7.62-.95 1.9-2.05 4-3.95 6.09-6.05z" opacity=".24"/><path d="m701.34 185.53c1.72-1.34 3.43-2.48 5.53-4 1.71 2.66 3.24 5.14 4.76 7.62.57-.19 1-.58 1.52-.77-1.14.19-2.85 1.15-3.61.58-2.48-1.91-4.77-3.62-8.77-.39.23-.95.38-1.9.57-3.04z" opacity=".24"/><path d="m608 125.15c-1.52 2.28-3 4.38-5 7-1.33-1-2.67-1.91-3.81-2.86 3.49-5.48 3.49-5.48 8.81-4.14z" opacity=".24"/><path d="m675.24 187.24c-2.67-3.43-5.14-7.05-8.76-11.62 4.38.95 7.62.57 7.81 5.33 0 1.72 1.52 3.43 2.28 5.14-.38.19-.76.77-1.33 1.15z" opacity=".24"/><path d="m609.53 149.33c4.57 8.95 4.57 8.95 0 11.24z" opacity=".24"/><path d="m723.82 110.11c-2.48-1.72-4.19-2.29-4.57-3.43a33.71 33.71 0 0 1 -1.72-7.62 5.66 5.66 0 0 1 .38-2.48c1 .57 2.29 1 2.48 1.72 1.14 3.23 1.9 6.7 3.43 11.81z" opacity=".24"/><path d="m597 193.91c3.81-5.9 3.81-5.9 8.95-4.57-1.76 5.53-1.76 5.53-8.95 4.57z" opacity=".24"/><path d="m676 279.82c.38 4-1.72 6.28-4.58 8.19a5.23 5.23 0 0 1 -3.42.38c-.58-.19-1.34-1.91-1-2.48.38-.76 1.72-1.33 2.67-1.71 2.91-.57 2.91-.57 6.33-4.38z" opacity=".24"/><path d="m580 175.62c-4-5.33-3.24-7.24 4-11.43-1.32 3.81-2.47 7.24-4 11.43z" opacity=".24"/><path d="m694.1 247.25c.38-.76.57-1.14.76-1.14 2.86-1.52 5.14-1.14 6.86 1.72a2.5 2.5 0 0 1 -.57 1.9c-3.43 2.1-5.15-.19-7.05-2.48z" opacity=".24"/><path d="m608.58 167.06c-.57 3.43-.57 6.09-4 7a4.48 4.48 0 0 1 -2.48-.19c-.19-1.14-.38-2.85.19-3.23 1.71-1.49 3.62-2.25 6.29-3.58z" opacity=".24"/><path d="m664.39 227.43c-5.53 3.43-6.48 3-8.95-3.62 3.23 1.34 6.09 2.48 8.95 3.62z" opacity=".24"/><path d="m697.15 159.81a28.11 28.11 0 0 1 0 4 11.49 11.49 0 0 1 -1.34 3.62c0 .19-1.71-.19-1.9-.57a8.2 8.2 0 0 1 -.95-4c.38-1.52 1.52-2.86 2.47-4.38a17.49 17.49 0 0 1 1.72 1.33z" opacity=".24"/><path d="m533.72 129.15c1.52 2.86 2.86 5.33 4.19 7.81-5.33.76-6.67-1.52-4.19-7.81z" opacity=".24"/><path d="m626.11 102.48c-.58-1-1.72-2.1-1.53-3 .19-1.14 1.91-3.24 2.1-3.05a25.3 25.3 0 0 1 4.76 3.05c-1.72.9-3.44 1.85-5.33 3z" opacity=".24"/><path d="m691.63 192.57-5.72 2.86c-.95-1.15-2.86-2.67-.38-4.19 2.1-1.15 5.14-3.24 5.9 1.52z" opacity=".24"/><path d="m687.06 141c.76.57 1.9 1.14 2.09 1.91.38 1.14 0 2.66-.19 4-1.14-.19-2.47.19-3.24-.38-2.09-1.15-1.52-2.67 0-4.19a11.61 11.61 0 0 0 1.53-1.53z" opacity=".24"/><path d="m670.67 254.87c1.9 1.9 2.85 3 4.19 4.38-1 .76-1.72 1.71-2.48 1.71-1.14.19-2.28-.38-3.43-.57a57.28 57.28 0 0 1 1.72-5.52z" opacity=".24"/><path d="m657.54 299.06c.76-1.53 1-2.48 1.71-2.86 1.52-.95 3-1.53 4.57-2.29 0 0 .76.95.57 1.15a36.11 36.11 0 0 1 -3.62 4c-.38.19-1.52-.2-3.23 0z" opacity=".24"/><path d="m652.38 158.87c1-4.58 1-4.58 6.29-5.34-2.67 2.47-4.57 3.81-6.29 5.34z" opacity=".24"/><path d="m533.72 113.72c-1.33-1.71-2.48-2.47-2.86-3.62-.19-.38 1.14-2.09 1.91-2.09 1 0 2.85.95 2.85 1.33 0 1.33-.95 2.48-1.9 4.38z" opacity=".24"/><path d="m575.05 185.9c2.86 4.58-.76 6.67-3.61 9 1.14-2.9 2.47-5.76 3.61-9z" opacity=".24"/><path d="m653 198.3c-1.33 1.52-2.29 2.48-3.24 3.43-.76-.76-2.48-1.71-2.29-2.1a4.62 4.62 0 0 1 2.29-3c.34-.23 1.67.91 3.24 1.67z" opacity=".24"/><path d="m687.25 134.66c-.19-3 1.52-3.62 3.62-2.47 1.9 1.14 3.43 3.23 6.29 5.9-4.39-1.52-7.24-2.67-10.1-3.62z" opacity=".24"/><path d="m674.68 199.06c-3.81.57-4.38-2.1-5.91-5.15 4.19.19 6.1 1.72 5.72 5.34z" opacity=".24"/><path d="m583.62 129.15c-4 1.71-4.76-1.15-6.85-4 4.38.95 4.38.95 6.85 4z" opacity=".24"/><path d="m583.82 113c-.76.19-1.53.57-2.1.19a32.62 32.62 0 0 1 -3.43-2.1c-.19 0 .38-1.14.38-1.14a29.35 29.35 0 0 1 4 .76 10.07 10.07 0 0 1 2.1 1c-.38.29-.57.87-.95 1.29z" opacity=".24"/><path d="m558.1 210.09c.57.57.76.76.76.95-.38 1.72-.57 3.43-1 5.34-.38-.19-1.14-.19-1.33-.38-1.29-2.48-1.48-4.39 1.57-5.91z" opacity=".24"/><path d="m711.62 247.05c-1.14 2.1-2.09 4-3.23 6.1-.39-2.86-2.1-6.1 3.23-6.1z" opacity=".24"/><path d="m689.72 236a6.33 6.33 0 0 1 .57-1.14c1.53-1.15 3.24-2.1 4.77-3.05.19.38.76 1.14.57 1.14-1.72 1.53-3.24 2.86-5 4.38a8 8 0 0 0 -.91-1.33z" opacity=".24"/><path d="m677.15 166.86a2 2 0 0 0 -.58.19c-1.33-1.14-2.66-2.1-4-3.43 0 0 .77-1.14.77-1a39.12 39.12 0 0 1 4.76 2.66 11.36 11.36 0 0 0 -.95 1.58z" opacity=".24"/><path d="m683.44 249c-.38.76-.38 1.14-.57 1.14-1.72.38-3.43.76-5 1.14 0-.38-.38-1-.19-1.33 1.38-2.52 3.09-2.9 5.76-.95z" opacity=".24"/><path d="m597.72 216.19c-2.09 1.9-4.19 3.81-7.23 6.47.76-4.76 4-5.52 5.52-8a4.59 4.59 0 0 1 1.71 1.53z" opacity=".24"/><path d="m564.58 139.81c-.19 3.05-.38 5.14-.57 8.76-3.62-4.19-3.81-6.28.57-8.76z" opacity=".24"/><path d="m503.44 149.72c0 1.91.19 4 0 5.91-.2.76-1.53 1.14-2.48 1.71-.38-1-1.52-2.28-1.14-2.85a28.15 28.15 0 0 1 3.81-4.58z" opacity=".24"/><path d="m661.15 214.67 4.57-8-.19.19c.76 1 1.52 1.72 2.29 2.67-2.29 1.71-4.58 3.24-6.67 4.95z" opacity=".24"/><path d="m633.73 209.52c-1.53 1.14-2.67 1.91-3.62 2.67-.38-.76-1.34-1.91-1.15-2.29a6.2 6.2 0 0 1 2.48-2.47c.19-.19 1.14.95 2.29 2.09z" opacity=".24"/><path d="m633.53 134.49c-1.14 1.52-2.1 3-3.81 5.33-1.14-4.38.19-5.72 3.81-5.33z" opacity=".24"/><path d="m566.86 158.48a14.8 14.8 0 0 1 2.29 2.86c.19.19-1.14 1.33-1.14 1.33a31.91 31.91 0 0 1 -3-2.48 13.86 13.86 0 0 0 1.85-1.71z" opacity=".24"/><path d="m619.05 95.05-3.42-4c0-.19.57-.76.76-1.14l4.61 3.43c-.61.57-1.38 1.14-1.95 1.71z" opacity=".24"/><path d="m588 90.87v6.13c-2.66-3.08-2.66-3.08 0-6.13z" opacity=".24"/><path d="m617.72 129c1.71-1.53 3-2.67 4.57-3.81.38.95 1 1.33.76 1.71-.57 2.25-1.33 4.15-5.33 2.1z" opacity=".24"/><path d="m503.63 149.91a16 16 0 0 1 -.77-2.86 8 8 0 0 1 1.34-2.85c.19-.2 1.9.38 1.9.57a6.1 6.1 0 0 1 -.38 3.23c-.38.77-1.52 1.15-2.28 1.72z" opacity=".24"/><path d="m677.15 152.19c-1.14-2.29-2.1-4.38-3.81-8 4.19 2.28 5.52 4.19 5.71 7.05a17.65 17.65 0 0 0 -1.9.95z" opacity=".24"/><path d="m591.24 212.2c1-1.71 1.34-3 2.1-3.43.57-.38 1.71 0 2.67.19a9.87 9.87 0 0 1 -1.34 3.24 18.91 18.91 0 0 1 -3.43 0z" opacity=".24"/><path d="m542.86 197c.57-1.71.76-3 1.34-3.43.95-.57 2.28-.38 3.42-.57-.38 1-.57 2.29-1.33 2.86-.38.52-1.71.52-3.43 1.14z" opacity=".24"/><path d="m718.48 199.05a30 30 0 0 1 -4.38-.76c-.19 0-.19-1.33-.19-1.9h5.14c-.19.95-.38 1.71-.57 2.66z" opacity=".24"/><path d="m690.67 190.49c1-1.33 2.1-2.86 3.05-4 2.28.95 1.72 1.72-3.05 4z" opacity=".24"/><path d="m622.29 148.39c-1.52 3.24-2.28 5-3.42 7.62-.58-4.38-.58-4.38 3.42-7.62z" opacity=".24"/><path d="m593.73 101.91c1.71-1.72 3.42-3.24 5.14-5 .38.38.76.57 1 1-1.71 1.71-3.43 3.43-5 5.14z" opacity=".24"/><path d="m643.63 145.34a34.15 34.15 0 0 1 -1.34 4c0 .19-1.52-.38-2.28-.76l2.28-4c.19.42.76.57 1.34.76z" opacity=".24"/><path d="m548.39 132.77c1.71-2.67 2.86-4.38 4.38-6.86.38 4.57.38 4.57-4.38 6.86z" opacity=".24"/><path d="m714.86 125c4.38 2.67.57 4.19 0 6.48z" opacity=".24"/><path d="m679.25 129.92c1.14 1.14 2.28 2.28 3.43 3.61-.58.39-1.53 1.15-1.72 1a22.31 22.31 0 0 1 -3.05-2.86 5.28 5.28 0 0 1 1.34-1.75z" opacity=".24"/><path d="m645 136.39c-1.14 1.91-2.47 3.81-3.62 5.72-.57-3.81-.57-3.81 3.81-5.53z" opacity=".24"/><path d="m699.43 224.57c2.29-.76 3.81-1.33 5.91-2.09-1.91 3.24-1.91 3.24-5.91 2.09z" opacity=".24"/><path d="m659.81 182.67c1.72 1.14 3.62 2.28 5.91 3.81-4.38 1.33-5.33-1-6.86-2.67a5 5 0 0 0 .95-1.14z" opacity=".24"/><path d="m690.68 103.24c-.76-1.91-6.1-3.43-.57-6.48.19 2.48.38 4.57.57 6.48z" opacity=".24"/><path d="m614.48 173.34c0 1.71-.19 3.43-.19 6.09-2.86-2.66-3.24-4.38.19-6.09z" opacity=".24"/><path d="m618.29 211.81a38.22 38.22 0 0 1 -4 1.91l-.95-1.72a36.75 36.75 0 0 1 3.62-2.28 12.78 12.78 0 0 1 1.33 2.09z" opacity=".24"/><path d="m678.48 272.58c1.15-1.52 2.1-3.23 3.24-4.76a5.47 5.47 0 0 0 1.14.76c-1 1.53-1.9 3.24-2.85 4.77a11.4 11.4 0 0 0 -1.53-.77z" opacity=".24"/><path d="m646.1 126.09c.19-1.52.38-3.23.76-5 2.14 1.96 2.14 1.96-.76 5z" opacity=".24"/><path d="m656.2 113c.38 1.52.95 2.47.76 3-.19.77-1.14 1.15-1.9 1.72-.38-.76-1.34-1.53-1.15-2.29 0-.76 1.15-1.33 2.29-2.43z" opacity=".24"/><path d="m666.1 115.05c-1.72-.19-3.24-.38-5.15-.57 2.48-3.24 2.48-3.24 5 .76z" opacity=".24"/><path d="m717 114.1c-.77-1.71-1.34-3.43-2.1-5.14l1.52-.38c.58 1.71 1.15 3.43 1.72 5.14-.42.19-.8.19-1.14.38z" opacity=".24"/><path d="m604.39 110.67a21.53 21.53 0 0 1 -3.62-1.71 8.94 8.94 0 0 1 .77-1.72c1.33.57 2.47 1.15 3.8 1.72a5.27 5.27 0 0 0 -.95 1.71z" opacity=".24"/><path d="m544 109.52a9.28 9.28 0 0 1 -1.9-1.71 12.81 12.81 0 0 1 1.71-2.67c.57.38 1.53 1 1.53 1.15a19.66 19.66 0 0 1 -1.34 3.23z" opacity=".24"/><path d="m646.86 101.73a29.56 29.56 0 0 0 -2.28 2.09 11.61 11.61 0 0 1 -1.91-2.66c-.19-.39 1-1.15 1.34-1.91.76.75 1.71 1.33 2.85 2.48z" opacity=".24"/><path d="m595.43 196.77c1.53 0 3.24-.19 5.34-.38-2.48 2.85-2.48 2.85-5.34.38z" opacity=".24"/><path d="m582.29 150.85c-2.47.76-4.38 1.34-7 1.91 1.86-3.43 3.76-4.38 7-1.91z" opacity=".24"/><path d="m678.87 241.72c1.52-.38 2.85-.76 4.38-1.14a4.47 4.47 0 0 1 .38 1.52c-1.34.57-2.86 1.14-4.19 1.71-.19-.76-.38-1.52-.57-2.09z" opacity=".24"/><path d="m545.52 215.8c-1.33-.19-2.09-.19-2.85-.38.19-.57.19-1.52.57-1.71a11.42 11.42 0 0 1 2.67-.58c-.19.77-.19 1.53-.39 2.67z" opacity=".24"/><path d="m544.77 151.05c-.57 1-.77 1.53-1 1.72-.76.76-1.71 1.33-2.47 2.09a11.25 11.25 0 0 0 -.76-1.14 21 21 0 0 1 3-2.67c.08-.19.27-.19 1.23 0z" opacity=".24"/><path d="m560.57 105.15c-4 .57-5.52-1.72-6.66-6.29l6.66 6.67z" opacity=".24"/><path d="m677 224.58c-.57 1.71-1.14 3.43-1.91 5.71-.57-1.14-1.14-1.71-.95-2.28a33.7 33.7 0 0 1 1.72-4z" opacity=".24"/><path d="m663.43 315.05c-.76 1.14-1.33 2.09-2.09 3.24a12.17 12.17 0 0 1 -1.53-1.15c.77-.95 1.53-2.09 2.29-3.05a5.55 5.55 0 0 0 1.33.96z" opacity=".24"/><path d="m560.58 105.33c1.71-1.9 3.43-3.42 6.67-1-2.29 1.53-4.38 1.33-6.67.76z" opacity=".24"/><path d="m627.82 183.23c-1.34 1-2.1 1.53-3.05 2.1 0 0-1.14-1.15-.95-1.34a22.62 22.62 0 0 1 1.71-2.85 28.27 28.27 0 0 0 2.29 2.09z" opacity=".24"/><path d="m625 149c.38-2.29.76-4.76 1.14-7.05.57 0 .95.19 1.53.19-.38 2.29-.58 4.76-1 7.05a5.26 5.26 0 0 0 -1.67-.19z" opacity=".24"/><path d="m636.39 192.19c1.33-.38 2.85-.76 4.19-1.14a4.47 4.47 0 0 1 .38 1.52c-1.34.38-2.67 1-4 1.34z" opacity=".24"/><path d="m656 244.58c-1.34.38-2.29.95-2.48.57a13.56 13.56 0 0 1 -1.72-2.67c.58 0 1.53-.38 1.91-.19a8.53 8.53 0 0 1 2.29 2.29z" opacity=".24"/><path d="m706.1 198.09c-.76-1.14-1.72-2.28-2.48-3.43l1.14-.57c1 .95 1.72 1.91 2.67 3a3.41 3.41 0 0 0 -1.33 1z" opacity=".24"/><path d="m599.25 140c-1.33.76-2.48 1.33-3.81 2.1a4 4 0 0 0 -.76-1c1.14-.95 2.28-1.71 3.62-2.66a17.52 17.52 0 0 0 .95 1.56z" opacity=".24"/><path d="m658.67 233.72c.76 2.29 1.34 3.81 2.29 6.48-2.86-1.9-3.81-3.43-2.29-6.48z" opacity=".24"/><path d="m706.1 177.33c.57-1.14 1.34-2.47 1.91-3.62.38.19 1.14.58 1.14.77-.57 1.33-1.14 2.47-1.71 3.81a8.81 8.81 0 0 1 -1.34-.96z" opacity=".24"/><path d="m645.15 136.58v-6.48c.38-.19.76-.19 1.15-.38.38.95 1.33 2.1 1.14 2.86-.38 1.33-1.53 2.47-2.48 3.62z" opacity=".24"/><path d="m517.15 130.1a11 11 0 0 0 -1.91-1.52 21 21 0 0 1 2.86-1.53c.38-.19.76.19 1.33.38-.76.77-1.33 1.72-2.28 2.67z" opacity=".24"/><path d="m665.34 125.15v4.38h-1.14v-4.38z" opacity=".24"/><path d="m674.86 132.19c-1 .77-1.71 1.72-2.09 1.53a25.77 25.77 0 0 1 -2.67-2.1c.38-.38 1.14-1.33 1.33-1.33a20.86 20.86 0 0 1 3.43 1.9z" opacity=".24"/><path d="m685.91 216.58c-.95-1.14-1.91-2.28-3-3.42.57-.58 1.14-1.15 1.72-1.72a44.16 44.16 0 0 0 2.47 4 6.45 6.45 0 0 1 -1.19 1.14z" opacity=".24"/><path d="m631.24 89.33a24.3 24.3 0 0 0 -2.09 1.91c-.57-.76-1.33-1.52-1.33-2.29 0-.38.95-1.14 1.33-1.71z" opacity=".24"/><path d="m668 171.24c-.57.19-1.34.77-1.72.58-.38 0-.57-1-.95-1.34a6.75 6.75 0 0 1 1.9-.38c.4 0 .59.76.77 1.14z" opacity=".24"/><path d="m665.53 170.1c-.76-.76-1.71-1.14-1.71-1.71a3 3 0 0 1 .95-1.9c.19-.2 1.52.57 1.52.76.2.95-.38 1.75-.76 2.85z" opacity=".24"/><path d="m619.06 179.82c.57 1.14 1 2.28 1.52 3.43a6.75 6.75 0 0 0 -1.71.76c-.19-1.34-.57-2.48-.76-3.81.38-.2.57-.2.95-.38z" opacity=".24"/><path d="m662.11 311.43c-1.34.19-2.29.38-2.48.19a7.52 7.52 0 0 1 -1.14-2.48c.57-.19 1.33-.57 1.71-.19.57.38.95 1.34 1.91 2.48z" opacity=".24"/><path d="m594.67 148.19c-1.14.77-1.71 1.34-2.48 1.91-.38-.57-1.14-1.14-1-1.33a4.1 4.1 0 0 1 1.91-1.72c.24-.19.81.57 1.57 1.14z" opacity=".24"/><path d="m514.67 139.44c1 .38 2.1.57 3.05.95a7.47 7.47 0 0 0 -.38 1.14c-1-.19-2.1-.57-3.05-.76a2.75 2.75 0 0 1 .38-1.33z" opacity=".24"/><path d="m698.67 210.09c.57.76 1 1.14 1.33 1.72-.57.38-1.14 1.14-1.71.95-.57 0-.95-.76-1.33-1.34.57-.42.95-.76 1.71-1.33z" opacity=".24"/><path d="m716.58 217.9c.19 1 .57 1.72.38 2.29s-1 .76-1.52 1.14c-.19-.57-.76-1.33-.57-1.9.19-.38.95-.76 1.71-1.53z" opacity=".24"/><path d="m712.58 120.57c-1.15 1-2.29 2.1-3.43 3.05a9.52 9.52 0 0 1 -1.52-1.33c1-1.15 1.9-2.48 2.85-3.62a19 19 0 0 0 2.1 1.9z" opacity=".24"/><path d="m657.15 144c-.38-1.14-.95-2.47-1.33-3.62.57-.19 1.14-.38 1.9-.57.19 1.33.38 2.48.57 3.81a2.7 2.7 0 0 1 -1.14.38z" opacity=".24"/><path d="m721.91 220.2c1-1.15 1.9-2.1 2.85-3.24.2.19.58.38.77.57-.77 1.14-1.72 2.29-2.48 3.62-.19-.38-.76-.57-1.14-.95z" opacity=".24"/><path d="m656.77 276.58c1.33-.38 2.48-.76 3.81-1.14a7.47 7.47 0 0 0 .38 1.14c-1.33.19-2.67.57-4 .76-.19-.19-.19-.34-.19-.76z" opacity=".24"/><path d="m659.44 258.09c1.14 1.33 1.71 1.71 1.71 2.28a12.18 12.18 0 0 1 -.76 2.48c-.38-.57-1.14-1-1.33-1.52 0-.57.19-1.53.38-3.24z" opacity=".24"/><path d="m565.34 184.2a16.06 16.06 0 0 1 1.14-1.91c.57.38 1.34.57 1.34 1a3.34 3.34 0 0 1 -.77 1.72c-.38-.24-.95-.43-1.71-.81z" opacity=".24"/><path d="m604.77 191.63c1 1.34 1.71 2.1 1.71 2.67 0 .76-1 1.52-1.33 2.1a15.68 15.68 0 0 1 -1.15-2.48c-.19-.38.2-.92.77-2.29z" opacity=".24"/><path d="m568.58 122.48-1.52.76a10 10 0 0 1 -1.34-2.48c.38-.19 1-.57 1.15-.38a6.64 6.64 0 0 1 1.71 2.1z" opacity=".24"/><path d="m690.29 127.62v6.48l.19-.19c-3.24-2.86-3.24-3 0-6.1z" opacity=".24"/><path d="m571.44 211.43c.38-.76.57-1.72.95-1.91.57-.19 1.33.19 2.09.39-.19.57-.19 1.71-.57 1.71a5.66 5.66 0 0 1 -2.47-.19z" opacity=".24"/><path d="m682.86 117.9a8.55 8.55 0 0 0 -1.52-.38c.57-.76.95-1.52 1.52-2.28 0-.19.77.19 1.15.38a6.29 6.29 0 0 0 -1.15 2.28z" opacity=".24"/><path d="m562.1 229.9a14.3 14.3 0 0 0 -1.33 1.72c-.38-.57-.95-1.14-.76-1.33a15.92 15.92 0 0 1 1.71-2.1 15.47 15.47 0 0 0 .38 1.71z" opacity=".24"/><path d="m589.15 125.15a14.27 14.27 0 0 0 -1.33-1.52c.57-.57 1.14-1 1.71-1.53.19.38.57.76.57 1.15a3.62 3.62 0 0 1 -.95 1.9z" opacity=".24"/><path d="m598.3 121.34c.38 1 1 1.71.76 1.9-.19.57-.95.76-1.53 1.15-.19-.39-.76-1-.57-1.15.19-.38.76-.95 1.34-1.9z" opacity=".24"/><path d="m633 129.33c-.57.38-.76.76-1.14.95-.19-.57-.57-1.14-.77-1.71 0-.19.2-.38.39-.58a10.14 10.14 0 0 1 1.52 1.34z" opacity=".24"/><path d="m665.91 115.24c1.33.19 2.67.57 4 .76l-.57 1.15c-1.14-.77-2.29-1.53-3.24-2.29z" opacity=".24"/><path d="m674.1 216.77a9.52 9.52 0 0 1 -1.53 1.15c-.19-.57-.76-1.34-.57-1.72a3.11 3.11 0 0 1 1.72-.95 4.47 4.47 0 0 0 .38 1.52z" opacity=".24"/><path d="m643.62 145.34c.77.39 1.53.58 1.53.77a6.75 6.75 0 0 1 -.38 1.9c-.38-.19-1.15-.38-1.15-.57a3.92 3.92 0 0 1 0-2.1z" opacity=".24"/><path d="m690.68 104.39 1.71 2.86c-.19.19-.38.19-.57.38-1-.76-1.72-1.33-2.67-2.09a10.51 10.51 0 0 0 1.53-1.15z" opacity=".24"/><path d="m702.29 107.62c-.95.19-1.71.57-2.47.76 0 0-.57-1.14-.38-1.14a14.17 14.17 0 0 1 2.28-1.33 3.61 3.61 0 0 0 .57 1.71z" opacity=".24"/><path d="m697.91 150.86c-.57.57-1.14.95-1.52 1.33-.38-.57-1.14-.95-1.14-1.33 0-.57.76-1 1.33-1.33a8.58 8.58 0 0 1 1.33 1.33z" opacity=".24"/><path d="m599.81 143.43a9.26 9.26 0 0 0 -1.33.57c-.19-.57-.38-1.33-.57-1.9 0-.19.76-.38 1.14-.38a12 12 0 0 0 .76 1.71z" opacity=".24"/><path d="m552.39 143.63c-.38.58-.76 1-1.14 1.53a6 6 0 0 1 -.57-1.72c0-.38.76-.76 1-1.14a10.9 10.9 0 0 0 .71 1.33z" opacity=".24"/><path d="m679.06 208.77c-1.14-.19-2.48-.38-3.62-.57v-1c1.14 0 2.48.19 3.62.19a1.63 1.63 0 0 1 0 1.38z" opacity=".24"/><path d="m588.2 119.82a19.9 19.9 0 0 1 -2.09 1.52c-.19-.38-.76-1-.57-1.14.38-.76 1.14-1.14 1.71-1.91a5.48 5.48 0 0 1 .95 1.53z" opacity=".24"/><path d="m646.1 107.44a25.09 25.09 0 0 1 .95 3.62c-.38.19-.76.19-.95.38a25.44 25.44 0 0 1 -1-3.62c.24-.19.62-.19 1-.38z" opacity=".24"/><path d="m626.29 112.39c-.57-.38-1.14-.57-1.33-.76a5.54 5.54 0 0 1 .38-1.72 6.33 6.33 0 0 1 1.14.57c0 .57-.19 1.15-.19 1.91z" opacity=".24"/><path d="m636 110.86c1.14.38 2.09.76 3.23 1.14a6.72 6.72 0 0 0 -.19 1.14c-1.14-.38-2.09-1-3.23-1.33.01-.38.19-.57.19-.95z" opacity=".24"/><path d="m563.63 203.44a10.33 10.33 0 0 1 -.76-1.52 5.12 5.12 0 0 1 1.52-1.33c.19.38.76.95.57 1.33-.19.57-.76.95-1.33 1.52z" opacity=".24"/><path d="m559.63 117.15c-.38.76-.77 1.52-1.15 2.47-.38-.19-1.14-.57-1.14-.76.19-1 .38-1.71.57-2.67a16.33 16.33 0 0 1 1.72.96z" opacity=".24"/><path d="m698.49 260.77c.57-.38 1.14-.57 1.71-1 .19.58.76 1.34.57 1.53a4.69 4.69 0 0 1 -1.71.76 2.93 2.93 0 0 1 -.57-1.29z" opacity=".24"/><path d="m565.53 220.39c-.76.76-1.33 1.52-1.9 2.09-.19.19-.77-.19-1.15-.38a21.44 21.44 0 0 1 1.52-2.1c.2-.18.77.2 1.53.39z" opacity=".24"/><path d="m695.06 175.63c-.39-.95-.77-1.52-.58-2.09a4.17 4.17 0 0 1 1.34-1.14c.38.57.95 1.14.76 1.52a4.11 4.11 0 0 1 -1.52 1.71z" opacity=".24"/><path d="m637.15 162.28a11.62 11.62 0 0 1 -2.28.95c-.2 0-.58-.95-.58-.95.77-.57 1.34-.95 2.1-1.52z" opacity=".24"/><path d="m658.29 167.44c-.76-.38-.95-.57-1.33-.76a10.09 10.09 0 0 1 1.33-1.72c.19-.19.76 0 1.14 0-.38.76-.76 1.52-1.14 2.48z" opacity=".24"/><path d="m598.29 167.43a10.9 10.9 0 0 1 -1.33.76 19.62 19.62 0 0 1 -1-1.9c.58-.19 1.15-.57 1.72-.76.23.57.42 1.14.61 1.9z" opacity=".24"/><path d="m560.19 229.53c-1-.38-1.71-.38-2.09-.95-.38-.38-.19-1.33-.19-1.9a11.83 11.83 0 0 1 2.48.57c.38.19 0 1.33-.2 2.28z" opacity=".24"/><path d="m603.43 158.48c.76.76 1.33 1.14 1.72 1.52a9.41 9.41 0 0 1 -1.34 1.34c-.19.19-.95-.38-1.14-.77a7.1 7.1 0 0 1 .76-2.09z" opacity=".24"/><path d="m707.25 230.3c-.58.38-1.15 1-1.15.76a6.82 6.82 0 0 1 -1.33-1.9c.38-.19 1-.57 1.14-.38.57.57.95 1.14 1.34 1.52z" opacity=".24"/><path d="m587.44 159.25a9.13 9.13 0 0 1 -1.34 1.52c-.38-.38-1.14-1.14-1.14-1.33.19-.57.95-.95 1.33-1.33.58.19.77.57 1.15 1.14z" opacity=".24"/><path d="m697.34 124.38c1.71-1.33 2.48-2.1 3.43-2.67-.38.76-.57 1.53-.95 2.29-.2.19-.96 0-2.48.38z" opacity=".24"/><path d="m653.91 180c.38.95 1 1.71.76 2.09a3 3 0 0 1 -1.52.95 6.25 6.25 0 0 1 -.57-1.14c.19-.38.76-.9 1.33-1.9z" opacity=".24"/><path d="m665.91 249.15a24.75 24.75 0 0 0 -2.85 1.9 2.46 2.46 0 0 1 -.58-.76c.77-.76 1.72-1.33 2.48-2.1a4.26 4.26 0 0 1 .95.96z" opacity=".24"/><path d="m664.57 188a11.68 11.68 0 0 0 -2.28 1 3.28 3.28 0 0 1 .19-1.34 13.33 13.33 0 0 1 1.71-1.14 8.62 8.62 0 0 1 .38 1.48z" opacity=".24"/><path d="m559.06 169.34c.38.76 1 1.52.76 1.9-.19.57-1.15.95-1.72.95-.38 0-1.14-1.14-1-1.33.43-.38 1.19-.76 1.96-1.52z" opacity=".24"/><path d="m592 185.15c-.58.38-1 1-1.53 1.15-.38.19-.76-.39-1.14-.58a3 3 0 0 1 1.33-1.33 5.38 5.38 0 0 1 1.34.76z" opacity=".24"/><path d="m602.49 109.72c-.38.38-1 1.14-1 1l-1.72-1.14c.38-.38.95-1.15 1.14-1 .63.42 1.01.76 1.58 1.14z" opacity=".24"/></g></svg>