<svg viewBox="0 0 800 800" xmlns="http://www.w3.org/2000/svg"><path d="m400 285.91a114.59 114.59 0 0 1 22.46 2.22 114.23 114.23 0 0 1 72.54 48.65 113.24 113.24 0 0 1 16.89 40.77 114.73 114.73 0 0 1 0 44.92 114.21 114.21 0 0 1 -89.4 89.4 114.73 114.73 0 0 1 -44.92 0 113.12 113.12 0 0 1 -40.78-16.87 114.05 114.05 0 0 1 0-189.92 113.12 113.12 0 0 1 40.76-16.89 114.59 114.59 0 0 1 22.45-2.28z" fill="#f0c419"/><g fill="#fff3e6"><path d="m336.79 305a113.92 113.92 0 0 0 -31.79 31.77c-29.43-10.88-68.37-30.06-100.68-62.37-60.83-60.82-75.13-145.17-75.13-145.17s84.35 14.3 145.17 75.13c32.31 32.29 51.49 71.25 62.39 100.66z"/><path d="m172.85 350.46c45.69 0 86.79 14 115.28 27.09a114.73 114.73 0 0 0 0 44.92c-28.49 13.09-69.59 27.06-115.28 27.06-86 0-155.77-49.52-155.77-49.52s69.75-49.55 155.77-49.55z"/><path d="m305 463.23a113.92 113.92 0 0 0 31.79 31.77c-10.9 29.43-30.08 68.37-62.39 100.68-60.82 60.81-145.17 75.11-145.17 75.11s14.3-84.33 75.13-145.17c32.31-32.33 71.25-51.51 100.64-62.39z"/><path d="m377.55 511.87a114.73 114.73 0 0 0 44.92 0c13.1 28.5 27.07 69.6 27.07 115.3 0 86-49.53 155.75-49.53 155.75s-49.54-69.73-49.54-155.75c0-45.7 13.97-86.8 27.08-115.3z"/><path d="m495 463.23c29.42 10.88 68.38 30.06 100.69 62.37 60.82 60.84 75.11 145.17 75.11 145.17s-84.33-14.3-145.17-75.11c-32.31-32.31-51.49-71.27-62.37-100.7a114 114 0 0 0 31.74-31.73z"/><path d="m627.17 350.46c86 0 155.75 49.55 155.75 49.55s-69.73 49.52-155.75 49.52c-45.7 0-86.79-14-115.3-27.06a114.73 114.73 0 0 0 0-44.92c28.51-13.12 69.6-27.09 115.3-27.09z"/><path d="m670.77 129.23s-14.29 84.35-75.11 145.17c-32.31 32.31-71.25 51.49-100.68 62.38a113.92 113.92 0 0 0 -31.75-31.78c10.88-29.43 30.06-68.37 62.37-100.68 60.84-60.79 145.17-75.09 145.17-75.09z"/><path d="m422.47 288.13a114.73 114.73 0 0 0 -44.92 0c-13.11-28.49-27.08-69.6-27.08-115.28 0-86 49.54-155.77 49.54-155.77s49.53 69.75 49.53 155.77c0 45.68-13.97 86.79-27.07 115.28z"/></g><path d="m422.46 305.21a17.08 17.08 0 0 1 -15.46-24.21c11.64-25.3 25.51-64.6 25.51-108.14 0-50.7-18.79-96-32.45-122.18-13.67 26.21-32.47 71.48-32.47 122.18 0 43.57 13.88 82.85 25.52 108.14a17.07 17.07 0 1 1 -31 14.28c-13.11-28.4-28.72-72.68-28.72-122.43 0-90.43 50.54-162.63 52.7-165.66a17.07 17.07 0 0 1 13.91-7.19 17.07 17.07 0 0 1 13.92 7.19c2.16 3 52.69 75.23 52.69 165.66 0 49.72-15.57 94-28.64 122.41a17.07 17.07 0 0 1 -15.51 9.95z"/><path d="m305 353.85a17.06 17.06 0 0 1 -5.92-1.06c-29.33-10.85-71.67-31.15-106.83-66.32-64-63.93-79.27-150.72-79.89-154.38a17.07 17.07 0 0 1 19.69-19.69c3.66.62 90.45 15.93 154.38 79.89 35.12 35.09 55.45 77.45 66.33 106.8a17.08 17.08 0 0 1 -32 11.86c-9.69-26.15-27.7-63.78-58.45-94.51-36-36-81.22-54.69-109.35-63.51 8.86 28.19 27.59 73.53 63.46 109.39 30.8 30.8 68.4 48.77 94.53 58.43a17.08 17.08 0 0 1 -5.92 33.1z"/><path d="m172.85 466.61c-90.43 0-162.63-50.53-165.66-52.68a17.07 17.07 0 0 1 0-27.84c3-2.15 75.23-52.7 165.66-52.7 49.75 0 94 15.58 122.42 28.65a17.08 17.08 0 0 1 -14.29 31c-25.28-11.65-64.57-25.52-108.13-25.52-50.93 0-96.1 18.77-122.23 32.43 26.2 13.66 71.5 32.48 122.23 32.48 43.53 0 82.84-13.87 108.14-25.51a17.08 17.08 0 0 1 14.27 31c-28.4 13.08-72.69 28.69-122.41 28.69z"/><path d="m129.23 687.85a17.07 17.07 0 0 1 -16.84-19.93c.62-3.67 15.94-90.44 79.89-154.39 35.17-35.16 77.51-55.47 106.83-66.31a17.08 17.08 0 1 1 11.85 32c-26.13 9.66-63.73 27.64-94.53 58.43-35.84 35.88-54.57 81.17-63.43 109.35 28.19-8.87 73.49-27.59 109.33-63.44 30.78-30.77 48.77-68.39 58.45-94.53a17.08 17.08 0 0 1 32 11.86c-10.86 29.34-31.19 71.69-66.32 106.83-63.92 63.95-150.71 79.28-154.37 79.89a17.25 17.25 0 0 1 -2.86.24z"/><path d="m400 800a17.07 17.07 0 0 1 -13.92-7.19c-2.15-3-52.7-75.21-52.7-165.64 0-49.74 15.58-94 28.65-122.44a17.08 17.08 0 0 1 31 14.28c-11.65 25.31-25.52 64.61-25.52 108.16 0 50.7 18.79 96 32.46 122.17 13.66-26.21 32.45-71.47 32.45-122.17 0-43.52-13.87-82.84-25.51-108.16a17.08 17.08 0 1 1 31-14.26c13.06 28.41 28.63 72.72 28.63 122.42 0 90.43-50.53 162.62-52.68 165.65a17.12 17.12 0 0 1 -13.86 7.18z"/><path d="m670.77 687.85a17.34 17.34 0 0 1 -2.86-.24c-3.66-.62-90.43-15.94-154.38-79.87-35.16-35.16-55.47-77.52-66.32-106.85a17.08 17.08 0 0 1 32-11.85c9.66 26.14 27.65 63.76 58.43 94.54 35.89 35.84 81.18 54.56 109.36 63.42-8.87-28.18-27.59-73.48-63.43-109.33-30.78-30.78-68.4-48.76-94.54-58.43a17.08 17.08 0 0 1 11.85-32c29.34 10.84 71.69 31.15 106.84 66.31 63.94 64 79.26 150.72 79.88 154.39a17.07 17.07 0 0 1 -16.84 19.93z"/><path d="m627.17 466.61c-49.7 0-94-15.56-122.43-28.63a17.07 17.07 0 1 1 14.26-30.98c25.32 11.63 64.65 25.51 108.17 25.51 50.92 0 96.09-18.77 122.21-32.43-26.19-13.66-71.48-32.49-122.21-32.49-43.55 0-82.86 13.88-108.16 25.52a17.08 17.08 0 1 1 -14.28-31c28.4-13.07 72.7-28.64 122.43-28.64 90.44 0 162.62 50.54 165.65 52.7a17.07 17.07 0 0 1 0 27.84c-3.03 2.07-75.21 52.6-165.64 52.6z"/><path d="m495 353.87a17.08 17.08 0 0 1 -5.93-33.1c26.14-9.68 63.76-27.67 94.53-58.45 15.48-15.47 29.19-34.12 40.76-55.43a17.08 17.08 0 1 1 30 16.3 274.88 274.88 0 0 1 -46.62 63.29c-35.14 35.14-77.49 55.46-106.83 66.32a17.13 17.13 0 0 1 -5.91 1.07z"/><path d="m656.55 194.71a16.87 16.87 0 0 1 -6.12-1.14 17.07 17.07 0 0 1 -9.82-22.06c.33-.85.64-1.69 1-2.52a17.08 17.08 0 0 1 32 12l-1 2.78a17.09 17.09 0 0 1 -16.06 10.94z"/><path d="m463.23 322.12a17.1 17.1 0 0 1 -16-23c10.84-29.32 31.14-71.66 66.31-106.83 64-63.95 150.72-79.27 154.39-79.89a17.08 17.08 0 0 1 5.7 33.68c-.76.13-79.89 14.32-135.94 70.37-30.79 30.79-48.77 68.4-58.43 94.52a17.08 17.08 0 0 1 -16.03 11.15z"/><path d="m400 531.17a132.17 132.17 0 0 1 -25.81-2.55 130.08 130.08 0 0 1 -46.89-19.43l-.6-.42a131.17 131.17 0 0 1 -55.33-83 131.79 131.79 0 0 1 0-51.6 131.26 131.26 0 0 1 55.34-83l.59-.42a130 130 0 0 1 46.91-19.42 132.37 132.37 0 0 1 51.6 0 131.22 131.22 0 0 1 83 55.33l.42.6a129.84 129.84 0 0 1 19.42 46.89 131.89 131.89 0 0 1 0 51.62 131.27 131.27 0 0 1 -102.81 102.8 132 132 0 0 1 -25.84 2.6zm-53.21-50a95.93 95.93 0 0 0 34.09 14 98 98 0 0 0 38.23 0 95.53 95.53 0 0 0 34.63-14.36 97.13 97.13 0 0 0 41.38-61.63 97.61 97.61 0 0 0 0-38.23 95.82 95.82 0 0 0 -14-34.09l-.39-.55a97 97 0 0 0 -61.61-41.36 98 98 0 0 0 -38.23 0 96 96 0 0 0 -34.11 14l-.55.39a97 97 0 0 0 -41.36 61.62 97.86 97.86 0 0 0 0 38.23 97.17 97.17 0 0 0 41.36 61.63c.2.04.38.18.57.31z"/></svg>