<svg viewBox="0 0 800 800" xmlns="http://www.w3.org/2000/svg"><path d="m311.25 575c-8.75 2.5-18.75 7.5-27.5 12.5a178.63 178.63 0 0 0 -25 17.5 99.56 99.56 0 0 0 -18.75 21.25c-5 7.5-8.75 15-10 22.5a36.07 36.07 0 0 0 3.75 22.5c3.75 7.5 10 15 17.5 22.5 3.75 3.75 7.5 6.25 12.5 10 3.75 3.75 8.75 6.25 13.75 8.75a203.36 203.36 0 0 0 28.75 13.75c20 7.5 42.5 11.25 65 15s46.25 6.25 68.75 8.75c23.75 2.5 46.25 6.25 70 10 22.5 3.75 46.25 8.75 68.75 13.75-22.5-2.5-46.25-5-70-7.5-23.75-1.25-46.25-2.5-70-3.75s-46.25-1.25-70-2.5-47.5-3.75-71.25-10a288.43 288.43 0 0 1 -35-12.5c-6.25-2.5-11.25-6.25-16.25-8.75-5-3.75-11.25-6.25-16.25-11.25a132.44 132.44 0 0 1 -28.75-30c-3.75-6.25-7.5-13.75-8.75-21.25-2.5-7.5-2.5-15-2.5-22.5a70.78 70.78 0 0 1 3.75-22.5 96.76 96.76 0 0 1 8.75-20 128.34 128.34 0 0 1 23.75-32.5 150.81 150.81 0 0 1 30-26.25c11.25-7.5 22.5-15 35-20z" fill="#fc97b2"/><g fill="#c4c5c6"><path d="m537.5 648.75c0 52.5-68.75 68.75-137.5 68.75s-137.5-17.5-137.5-68.75c0-172.5 101.25-226.25 137.5-226.25 35 0 137.5 52.5 137.5 226.25"/><path d="m370 705c0 15-12.5 26.25-27.5 26.25h-18.75c-15 0-27.5-11.25-27.5-26.25s12.5-26.25 27.5-26.25h18.75c15 0 27.5 11.25 27.5 26.25"/><path d="m505 705c0 15-12.5 26.25-27.5 26.25h-18.75c-15 0-27.5-11.25-27.5-26.25s12.5-26.25 27.5-26.25h18.75c15 0 27.5 11.25 27.5 26.25"/></g><circle cx="557.5" cy="155" fill="#b5b5b5" r="130"/><circle cx="556.25" cy="170" fill="#ffc5d3" r="96.25"/><circle cx="242.5" cy="155" fill="#b5b5b5" r="130"/><circle cx="243.75" cy="170" fill="#ffc5d3" r="96.25"/><path d="m557.5 285c-21.25-47.5-71.25-152.5-157.5-152.5s-136.25 105-157.5 152.5c-11.25 23.75-20 47.5-23.75 82.5-6.25 61.25 66.25 113.75 106.25 113.75 18.75 0 38.75 36.25 75 36.25s56.25-36.25 75-36.25c40 0 112.5-52.5 106.25-113.75-2.5-33.75-12.5-57.5-23.75-82.5" fill="#c4c5c6"/><ellipse cx="521.25" cy="422.5" fill="#ffc5d3" rx="40" ry="27.5"/><ellipse cx="278.75" cy="422.5" fill="#ffc5d3" rx="40" ry="27.5"/><path d="m436.25 422.5c-7.5-7.5-30-8.75-36.25-8.75s-28.75 0-36.25 8.75c-5 5-1.25 18.75 12.5 30 8.75 7.5 17.5 10 23.75 10s15-2.5 23.75-10c13.75-11.25 17.5-25 12.5-30" fill="#3e4347"/><ellipse cx="315" cy="333.75" fill="#fff" rx="57.5" ry="56.25"/><ellipse cx="315" cy="333.75" fill="#3e4347" rx="40" ry="38.75"/><ellipse cx="485" cy="333.75" fill="#fff" rx="57.5" ry="56.25"/><ellipse cx="485" cy="333.75" fill="#3e4347" rx="40" ry="38.75"/><path d="m387.5 491.25c1.25-3.75 3.75-6.25 6.25-8.75s6.25-3.75 8.75-5c3.75-1.25 6.25-2.5 10-2.5s7.5 0 10 3.75c-3.75 0-6.25 2.5-8.75 3.75a60.94 60.94 0 0 1 -8.75 3.75c-2.5 1.25-6.25 2.5-8.75 3.75a24.4 24.4 0 0 0 -8.75 1.25" fill="#3e4347"/></svg>