<svg viewBox="0 0 800 800" xmlns="http://www.w3.org/2000/svg"><path d="m30.13 421.48c0 203.73 165.16 368.89 368.89 368.89s368.9-165.16 368.9-368.89-165.16-368.89-368.92-368.89-368.87 165.16-368.87 368.89z" fill="#ff7100"/><path d="m397.49 171.27c-16.16-34.87 15.21-83.75 70.07-109.17s112.44-17.76 128.59 17.11z" fill="#30c03f"/><path d="m397.49 171.27c16.16 34.87 73.73 42.54 128.59 17.11s86.23-74.3 70.07-109.17z" fill="#97cf43"/><g fill="#ffa05f"><path d="m270.84 172.26a18.48 18.48 0 1 0 18.48-18.48 18.48 18.48 0 0 0 -18.48 18.48z"/><path d="m180.12 245.06a18.48 18.48 0 1 0 18.48-18.48 18.48 18.48 0 0 0 -18.48 18.48z"/><path d="m562.31 219.58a18.48 18.48 0 0 0 37 0 18.48 18.48 0 0 0 -37 0z"/><path d="m653 303.3a18.48 18.48 0 0 0 37 0 18.48 18.48 0 1 0 -37 0z"/><path d="m580.79 339.7a18.48 18.48 0 0 0 37 0 18.48 18.48 0 1 0 -37 0z"/><path d="m475 270.82a18.48 18.48 0 0 0 37 0 18.48 18.48 0 0 0 -37 0z"/><path d="m667.59 441.62a18.48 18.48 0 0 0 37 0 18.48 18.48 0 0 0 -37 0z"/></g><path d="m393.77 175.28s-21.48-135.34-6.45-150.37 26.5-9.51 32.23-4.3c11.81 10.74-12.89 124.59-12.89 139.63s-6.44 30.07-12.89 15z" fill="#5a4530"/><path d="m359.66 173.17s25.94-4.09 42.32 0 17.74 5.46 20.48 9.56-19.11 2.73-19.11 2.73-15-4.1-24.57-4.1h-16.38s-10.92-4.09-2.74-8.19z" fill="#5a4530"/></svg>