<svg viewBox="0 0 800 800" xmlns="http://www.w3.org/2000/svg"><path d="m781.2 413.16-47.78 189.29a34.46 34.46 0 0 1 -33.42 26h-600a34.46 34.46 0 0 1 -33.42-26l-47.78-189.29c3.2 1.71 367.65-58.49 381.2-58.49s378.05 60.2 381.2 58.49z" fill="#b27214"/><path d="m731.67 358.91v70.57c-.84.59-1.67 1.16-2.48 1.74-10.75 7.53-15.65 11-29.19 11s-18.47-3.45-29.19-11c-14.5-10.22-34.36-24.14-70.81-24.14s-56.33 13.92-70.84 24.14c-10.72 7.53-15.62 11-29.17 11s-18.44-3.45-29.18-11c-14.51-10.22-34.37-24.14-70.81-24.14s-56.32 13.92-70.82 24.14c-10.74 7.53-15.65 11-29.19 11s-18.44-3.45-29.17-11c-14.5-10.22-34.37-24.14-70.82-24.14s-56.33 13.92-70.83 24.14c-10.72 7.53-19.59 1.4-29.17 11-16.1 16.1-24.62-39.45-35.36-47-.83-.57 4.52-35.71 3.65-36.3 67.77-112.31 191-187.4 331.7-187.4s263.95 75.08 331.68 187.39z" fill="#f7b239"/><path d="m217.68 602.45-46.19-183-.67.47c-14.5 10.19-34.37 24.16-70.82 24.16s-56.31-14-70.81-24.16a115.07 115.07 0 0 0 -10.39-6.78l47.78 189.31a34.46 34.46 0 0 0 33.42 26h151.1a34.46 34.46 0 0 1 -33.42-26z" fill="#995c0d"/><path d="m800 380.82v1.51a35.23 35.23 0 0 1 -18.8 30.83 115.07 115.07 0 0 0 -10.39 6.78c-14.5 10.19-34.36 24.16-70.81 24.16s-56.33-14-70.83-24.16c-10.73-7.54-15.63-11-29.19-11s-18.45 3.45-29.17 11c-14.5 10.19-34.37 24.16-70.82 24.16s-56.33-14-70.83-24.16c-10.72-7.54-15.63-11-29.17-11s-18.44 3.45-29.19 11c-14.5 10.19-34.36 24.16-70.8 24.16s-56.31-14-70.81-24.16c-10.73-7.54-15.63-11-29.18-11-11.44 0-16.71 2.45-24.54 7.76-1.44 1-3 2.07-4.64 3.23-14.5 10.19-34.37 24.16-70.82 24.16s-56.31-14-70.81-24.16a115.07 115.07 0 0 0 -10.39-6.78 35.21 35.21 0 0 1 -18.81-30.82v-1.51c0-27.16 29-44.5 52.94-31.59a156.57 156.57 0 0 1 15.35 9.68c.87.59 1.7 1.18 2.53 1.75 10.74 7.53 15.64 11 29.18 11s18.45-3.44 29.17-11c13.07-9.18 30.48-21.4 60.44-23.74q4.95-.41 10.4-.4c36.44 0 56.31 14 70.81 24.14 10.73 7.53 15.63 11 29.17 11s18.45-3.44 29.19-11c14.5-10.19 34.36-24.14 70.81-24.14s56.31 14 70.82 24.14c10.74 7.53 15.62 11 29.18 11s18.45-3.44 29.17-11c14.51-10.19 34.37-24.14 70.82-24.14s56.33 14 70.83 24.14c10.73 7.53 15.63 11 29.19 11s18.44-3.44 29.19-11l2.48-1.73a157.41 157.41 0 0 1 15.39-9.7c23.94-12.91 52.94 4.43 52.94 31.59z" fill="#e09b2d"/><path d="m175.46 416.71c-1.44 1-3 2.07-4.64 3.23-14.51 10.19-34.37 24.16-70.82 24.16s-56.31-14-70.81-24.16a115.07 115.07 0 0 0 -10.39-6.78 35.21 35.21 0 0 1 -18.8-30.83v-1.51c0-27.16 29-44.5 52.94-31.59a156.57 156.57 0 0 1 15.35 9.68c.87.59 1.7 1.18 2.53 1.75 10.74 7.53 15.64 11 29.18 11s18.45-3.44 29.17-11c13.07-9.18 30.48-21.4 60.44-23.74-9.91 19.85-19.11 48.17-14.15 79.79z" fill="#cc8a29"/><path d="m229.67 340.06a118.5 118.5 0 0 0 -29.67-3.54c-36.44 0-56.33 14-70.83 24.14-10.72 7.54-15.62 11-29.17 11s-18.44-3.44-29.19-11c-.83-.57-1.65-1.16-2.52-1.75 67.77-112.31 191-187.4 331.7-187.4a387.82 387.82 0 0 1 74.63 7.2 387.35 387.35 0 0 0 -244.95 161.35z" fill="#e09b2d"/><g fill="#b27214"><path d="m400 266.92a13.82 13.82 0 0 0 13.82-13.82v-30.74a13.82 13.82 0 1 0 -27.64 0v30.74a13.82 13.82 0 0 0 13.82 13.82z"/><path d="m478.1 252.25 26.34 11a13.82 13.82 0 1 0 10.63-25.51l-26.34-11a13.82 13.82 0 0 0 -10.63 25.52z"/><path d="m290.24 264.29a13.87 13.87 0 0 0 5.31-1.07l26.34-11a13.82 13.82 0 1 0 -10.63-25.51l-26.34 11a13.83 13.83 0 0 0 5.32 26.59z"/></g></svg>