<svg viewBox="0 0 800 800" xmlns="http://www.w3.org/2000/svg"><path d="m123.47 447c0 155.15 125.69 280.95 280.84 281s281-125.7 281-280.84v-.16c0-155.15-125.77-280.92-280.91-280.92s-280.93 125.75-280.93 280.92z" fill="#5eb1be"/><path d="m404.39 733.7c-158.1 0-286.72-128.62-286.72-286.72s128.62-286.72 286.72-286.72 286.72 128.62 286.72 286.74-128.63 286.7-286.72 286.7zm0-561.83c-151.7 0-275.11 123.41-275.11 275.11s123.41 275.1 275.11 275.1 275.11-123.41 275.11-275.08-123.42-275.13-275.11-275.13z" fill="#6c0000"/><path d="m438.3 295.13c-187.42-53.34-399-66.51-422 14.17s163.87 180.88 351.3 234.22 399 66.51 422-14.15-163.86-180.9-351.3-234.24zm335.37 229.71c-14.73 51.78-189.75 64.57-401.93 4.19s-354.23-163.42-339.49-215.2 189.75-64.59 401.93-4.21 354.23 163.43 339.49 215.22z" fill="#6b0306"/><path d="m214.56 251.18c-8.58 6.44-18.4 17.88-23.06 23.6 68.4 1.2 146.05 15.33 239.2 41.84 103.05 29.33 185.87 64 245.91 102.71-.81-7.63-5-28-6.44-35.4-66.09-38.86-141.25-77.66-229.28-102.71-80.13-22.8-154-26.11-226.33-30z" fill="#5eb1be"/><path d="m443.59 343.73a72.35 72.35 0 0 0 144.69.07v-.07a72.35 72.35 0 0 0 -144.69-.06z" fill="#ffc700"/><path d="m516 420.93a77.19 77.19 0 1 1 74.2-56.07 76.86 76.86 0 0 1 -74.2 56.07zm-.1-144.73a67.53 67.53 0 1 0 65 86 67.5 67.5 0 0 0 -46.44-83.41 67.89 67.89 0 0 0 -18.52-2.6z" fill="#6c0000"/><path d="m202.6 346.46a41 41 0 1 0 41-41 41 41 0 0 0 -41 41z" fill="#ffc700"/><path d="m243.65 392.34a45.88 45.88 0 1 1 44.1-33.34 45.87 45.87 0 0 1 -44.1 33.34zm0-82.09a36.24 36.24 0 1 0 9.92 1.39 36.34 36.34 0 0 0 -9.92-1.39z" fill="#6c0000"/><path d="m331.46 427.83a24.59 24.59 0 0 0 49.17 0 24.59 24.59 0 1 0 -49.17 0z" fill="#ffc700"/><path d="m356.06 457.25a29.42 29.42 0 1 1 28.28-21.37 29.34 29.34 0 0 1 -28.28 21.37zm0-49.18a19.82 19.82 0 0 0 -19 14.35 19.75 19.75 0 0 0 13.59 24.4 20 20 0 0 0 24.35-13.59 19.78 19.78 0 0 0 -19-25.16z" fill="#6c0000"/><path d="m533.86 498.3a15.39 15.39 0 1 0 30.78 0 15.39 15.39 0 1 0 -30.78 0z" fill="#ffc700"/><path d="m549.26 518.53a20.24 20.24 0 0 1 -19.46-25.77 20.57 20.57 0 0 1 25-13.91 20.22 20.22 0 0 1 13.91 25 20.3 20.3 0 0 1 -19.44 14.69zm0-30.78a10.55 10.55 0 0 0 -2.88 20.69 10.73 10.73 0 0 0 13-7.25 10.57 10.57 0 0 0 -10.16-13.44z" fill="#6c0000"/><path d="m324.81 584.75a38.15 38.15 0 1 0 38.19-38.14 38.15 38.15 0 0 0 -38.19 38.14z" fill="#ffc700"/><g fill="#6c0000"><path d="m363 627.74a43 43 0 1 1 41.32-31.22 43.29 43.29 0 0 1 -41.32 31.22zm0-76.3a33.33 33.33 0 1 0 9.13 1.28 33.42 33.42 0 0 0 -9.19-1.28z"/><path d="m98.86 170.74a21.31 21.31 0 0 0 42.61 0 21.31 21.31 0 1 0 -42.61 0z"/></g></svg>