<svg viewBox="0 0 512 512" xmlns="http://www.w3.org/2000/svg"><path d="m476.41 428.38-80.41-101.47h32.78c7.63 0 9.85-4.77 4.93-10.61l-81.52-96.75h-192.35l-81.52 96.75c-4.92 5.84-2.7 10.61 4.93 10.61h32.75l-80.41 101.47z" fill="#7bd36a"/><path d="m315.52 340.57a13.77 13.77 0 0 1 -2.71-.28 13.92 13.92 0 0 1 -2.6-.79 14.86 14.86 0 0 1 -2.39-1.28 13.91 13.91 0 0 1 -5.9-14.23 13.87 13.87 0 0 1 2.07-5 13.94 13.94 0 0 1 1.72-2.1 14.52 14.52 0 0 1 2.1-1.73 15.39 15.39 0 0 1 2.4-1.28 13.84 13.84 0 0 1 10.61 0 14.44 14.44 0 0 1 2.39 1.28 13.6 13.6 0 0 1 2.11 1.73 12.92 12.92 0 0 1 1.68 2.11 14.44 14.44 0 0 1 1.28 2.39 15.21 15.21 0 0 1 .79 2.59 13.86 13.86 0 0 1 -13.59 16.58z"/><path d="m398.07 209.37-79.74-86h42l-99.33-107.29a6.72 6.72 0 0 0 -10 0l-99.37 107.25h42l-79.73 86c-5.19 5.6-3.19 10.18 4.45 10.18h275.27c7.64.04 9.64-4.51 4.45-10.14z" fill="#00d7df"/><path d="m211.32 429.22h89.38v68.92h-89.38z" fill="#fff476"/><path d="m487.27 419.77-62.63-79h4.11c13.14 0 18.18-7.79 19.74-11.13s4.26-12.22-4.21-22.27l-62.32-74h11.66c13.36 0 18.25-7.91 19.73-11.31s4-12.36-5.12-22.15l-58.16-62.77h10.3a13.86 13.86 0 0 0 10.16-23.28l-99.38-107.2a20.56 20.56 0 0 0 -30.3 0l-99.39 107.24a13.86 13.86 0 0 0 10.17 23.28h10.3l-58.16 62.82c-9.08 9.79-6.61 18.75-5.13 22.15s6.38 11.31 19.74 11.31h11.62l-62.32 74c-8.47 10.05-5.76 18.92-4.21 22.27s6.6 11.13 19.74 11.13h4.11l-62.63 79a13.86 13.86 0 0 0 10.86 22.47h161.9v55.9a13.87 13.87 0 0 0 13.86 13.77h89.38a13.87 13.87 0 0 0 13.86-13.86v-55.9h161.86a13.87 13.87 0 0 0 10.86-22.47zm-200.44 64.51h-61.66v-41.2h61.66zm-83-351.54a13.86 13.86 0 0 0 -10.17-23.28h-10.29l72.63-78.38 72.63 78.38h-10.3a13.86 13.86 0 0 0 -10.16 23.28l67.59 72.95h-239.53zm-139.57 281.78 58.63-74h151.05a13.86 13.86 0 0 0 0-27.72h-159.22a13.5 13.5 0 0 0 -2.31.21h-13.23l67.1-79.65h179.44l67.1 79.65h-16.82a13.86 13.86 0 0 0 -10.86 22.46l62.63 79z"/></svg>