<svg viewBox="0 0 412.75 412.75" xmlns="http://www.w3.org/2000/svg"><path d="m148.83 55.12h115.09v12.39h-115.09z" fill="#8eb1c4"/><path d="m263.92 35.73a4.51 4.51 0 0 1 1.39-3.26l4.06-3.89h-126l4.06 3.89a4.51 4.51 0 0 1 1.39 3.26v10.39h115.1z" fill="#a3bfd9"/><path d="m148.83 76.51h115.09v13.45h-115.09z" fill="#a3bfd9"/><path d="m283.6 16.77v-5a2.81 2.81 0 0 0 -2.81-2.77h-148.79a2.81 2.81 0 0 0 -2.81 2.81v5a2.81 2.81 0 0 0 2.81 2.77h148.79a2.81 2.81 0 0 0 2.81-2.81z" fill="#edd570"/><path d="m267.58 399.52h-122.41a2.12 2.12 0 1 0 0 4.23h122.41a2.12 2.12 0 0 0 0-4.23z" fill="#8eb1c4"/><path d="m289 175.61c-12.15 0-18.34-6-23.79-11.26-5-4.88-9-8.74-17.53-8.74s-12.49 3.86-17.53 8.74c-5.46 5.28-11.64 11.26-23.79 11.26s-18.33-6-23.79-11.26c-5-4.88-9-8.74-17.53-8.74s-12.49 3.86-17.53 8.74c-5.45 5.28-11.63 11.26-23.78 11.26s-18.34-6-23.79-11.26c-3.59-3.48-6.78-6.56-11.58-7.95a154.65 154.65 0 0 0 -5.36 32.23c9.4 1.3 14.8 6.34 19.61 10.88 5 4.71 9.29 8.77 18.19 8.77s13.27-4.07 18.31-8.78c5.62-5.26 12-11.22 24.46-11.22s18.84 6 24.46 11.22c5 4.71 9.4 8.78 18.32 8.78s13.27-4.07 18.31-8.78c5.62-5.26 12-11.22 24.46-11.22s18.84 6 24.47 11.22c5 4.71 9.39 8.78 18.31 8.78s13.22-4.06 18.2-8.77c4.81-4.54 10.21-9.58 19.61-10.88a155.13 155.13 0 0 0 -5.34-32.21c-4.79 1.39-8 4.46-11.59 7.93-5.44 5.28-11.62 11.26-23.78 11.26z" fill="#a3bfd9"/><path d="m146.48 390.52h119.79a262.06 262.06 0 0 0 20.73-31.18h-161.17a264.38 264.38 0 0 0 20.65 31.18z" fill="#a3bfd9"/><path d="m291.92 217.28c-12.47 0-18.84-5.95-24.46-11.21-5-4.71-9.4-8.79-18.32-8.79s-13.27 4.08-18.31 8.79c-5.62 5.26-12 11.21-24.46 11.21s-18.84-5.95-24.46-11.21c-5-4.72-9.4-8.79-18.32-8.79s-13.27 4.08-18.31 8.79c-5.62 5.26-12 11.21-24.46 11.21s-18.8-6-24.37-11.23c-4.09-3.86-7.74-7.27-13.84-8.37q-.14 6.34.08 13 .31 9.99 1.31 19.53c9.62 1.15 15.34 6.29 20.44 10.9s9.77 8.84 18.47 8.84 12.66-3.86 17.76-8.75c5.5-5.27 11.74-11.25 24-11.25s18.48 6 24 11.25c5.1 4.89 9.13 8.75 17.76 8.75s12.65-3.86 17.75-8.75c5.51-5.27 11.74-11.25 24-11.25s18.48 6 24 11.25c5.1 4.89 9.13 8.75 17.76 8.75s13.24-4.1 18.49-8.84 10.81-9.76 20.43-10.91c.62-6.35 1.07-12.84 1.29-19.48q.22-6.69.08-13.06c-6.11 1.1-9.75 4.53-13.84 8.39-5.67 5.27-11.99 11.23-24.47 11.23z" fill="#8eb1c4"/><path d="m300.29 114.92c-14.92-13.63-30.48-15.77-32.11-16h-123.61c-1.58.18-17.16 2.31-32.11 16-9.18 8.38-16.31 19.46-21.31 32.93 6.75 2 11.12 6.22 15.06 10 5 4.88 9 8.73 17.52 8.73s12.49-3.85 17.53-8.73c5.46-5.28 11.64-11.27 23.79-11.27s18.33 6 23.79 11.27c5 4.88 9 8.73 17.53 8.73s12.49-3.85 17.53-8.73c5.45-5.28 11.63-11.27 23.79-11.27s18.33 6 23.79 11.27c5 4.88 9 8.73 17.53 8.73s12.49-3.85 17.53-8.73c3.93-3.81 8.3-8 15-10-4.94-13.47-12.08-24.55-21.25-32.93z" fill="#e6e6e6"/><path d="m289.85 259c-12.25 0-18.48-6-24-11.25-5.1-4.89-9.13-8.75-17.75-8.75s-12.66 3.86-17.76 8.75c-5.5 5.27-11.74 11.25-24 11.25s-18.48-6-24-11.25c-5.1-4.89-9.13-8.75-17.76-8.75s-12.65 3.86-17.75 8.75c-5.51 5.27-11.74 11.25-24 11.25s-18.66-6-24.45-11.21c-4.09-3.7-7.78-7-13.33-8.25a324.5 324.5 0 0 0 27.7 94.52h187.34a327 327 0 0 0 27.61-94.54c-5.56 1.27-9.23 4.57-13.33 8.27-5.79 5.21-12.37 11.21-24.52 11.21z" fill="#e6e6e6"/><path d="m120.86 350.34h171.14q1.88-3.51 3.77-7.28h-178.67c1.26 2.51 2.52 4.94 3.76 7.28z" fill="#8eb1c4"/><path d="m305.89 107.85a72.37 72.37 0 0 0 -33-17.21v-53l9.62-9.21a11.81 11.81 0 0 0 10.09-11.66v-5a11.82 11.82 0 0 0 -11.81-11.77h-148.79a11.83 11.83 0 0 0 -11.81 11.81v5a11.81 11.81 0 0 0 10 11.65l9.63 9.22v53a72.37 72.37 0 0 0 -33 17.21c-16.18 14.54-35.1 44.27-33.13 103.11 1.94 57.93 20.07 105.61 34.93 135.4a301.1 301.1 0 0 0 28.86 47.2 11.1 11.1 0 0 0 7.69 19.12h122.41a11.1 11.1 0 0 0 7.69-19.12 301 301 0 0 0 28.85-47.2c14.88-29.76 33-77.4 34.94-135.4 1.94-58.84-16.95-88.57-33.17-103.15zm-173.89-88.27a2.81 2.81 0 0 1 -2.81-2.81v-5a2.81 2.81 0 0 1 2.81-2.77h148.79a2.81 2.81 0 0 1 2.81 2.81v5a2.81 2.81 0 0 1 -2.81 2.81zm16.83 47.93v-12.39h115.09v12.39zm115.09 9v13.49h-115.09v-13.49zm-115.09-30.39v-10.39a4.51 4.51 0 0 0 -1.39-3.26l-4.06-3.89h126l-4.06 3.89a4.51 4.51 0 0 0 -1.39 3.26v10.39zm118.75 357.63h-122.41a2.12 2.12 0 1 1 0-4.23h122.41a2.12 2.12 0 0 1 0 4.23zm-1.31-13.23h-119.79a264.38 264.38 0 0 1 -20.65-31.18h161.17a263 263 0 0 1 -20.73 31.18zm25.73-40.18h-171.14c-1.24-2.34-2.5-4.77-3.76-7.28h178.65q-1.89 3.77-3.75 7.28zm8.11-16.28h-187.36a324.5 324.5 0 0 1 -27.7-94.52c5.55 1.27 9.24 4.55 13.33 8.25 5.79 5.21 12.35 11.21 24.51 11.21s18.48-6 24-11.25c5.11-4.94 9.11-8.75 17.74-8.75s12.66 3.86 17.76 8.75c5.5 5.27 11.74 11.25 24 11.25s18.48-6 24-11.25c5.1-4.89 9.13-8.75 17.76-8.75s12.65 3.86 17.75 8.75c5.51 5.27 11.74 11.25 24 11.25s18.73-5.93 24.52-11.16c4.1-3.7 7.77-7 13.33-8.27a327 327 0 0 1 -27.66 94.49zm30-123.33c-.23 6.63-.68 13.12-1.3 19.47-9.62 1.15-15.33 6.3-20.43 10.91s-9.83 8.89-18.53 8.89-12.66-3.86-17.76-8.75c-5.51-5.27-11.74-11.25-24-11.25s-18.47 6-24 11.25c-5.09 4.84-9.09 8.75-17.72 8.75s-12.66-3.86-17.76-8.75c-5.5-5.27-11.74-11.25-24-11.25s-18.48 6-24 11.25c-5.1 4.89-9.13 8.75-17.75 8.75s-13.24-4.09-18.48-8.84-10.78-9.8-20.38-10.95q-.95-9.54-1.29-19.48c-.15-4.47-.17-8.81-.07-13 6.09 1.1 9.74 4.52 13.83 8.38 5.57 5.26 11.89 11.22 24.37 11.22s18.84-5.95 24.46-11.21c5-4.71 9.4-8.79 18.31-8.79s13.28 4.08 18.32 8.79c5.62 5.26 12 11.21 24.46 11.21s18.84-5.95 24.46-11.21c5-4.71 9.4-8.79 18.31-8.79s13.28 4.08 18.32 8.79c5.62 5.26 12 11.21 24.46 11.21s18.8-6 24.38-11.22c4.09-3.87 7.73-7.3 13.84-8.4q.12 6.29-.09 13.02zm-.34-22.1c-9.4 1.3-14.8 6.34-19.61 10.88-5 4.71-9.29 8.77-18.2 8.77s-13.27-4.07-18.31-8.78c-5.63-5.26-12-11.22-24.47-11.22s-18.84 6-24.46 11.22c-5 4.71-9.39 8.78-18.31 8.78s-13.28-4.07-18.32-8.78c-5.62-5.26-12-11.22-24.46-11.22s-18.84 6-24.46 11.22c-5 4.71-9.39 8.78-18.31 8.78s-13.21-4.06-18.19-8.77c-4.85-4.51-10.25-9.58-19.67-10.88a155.44 155.44 0 0 1 5.34-32.23c4.81 1.39 8 4.47 11.59 7.95 5.45 5.28 11.63 11.26 23.78 11.26s18.34-6 23.79-11.26c5-4.88 9-8.74 17.53-8.74s12.49 3.86 17.53 8.74c5.46 5.28 11.64 11.26 23.79 11.26s18.33-6 23.79-11.26c5-4.88 9-8.74 17.53-8.74s12.49 3.86 17.53 8.74c5.45 5.28 11.64 11.26 23.79 11.26s18.33-6 23.79-11.26c3.58-3.47 6.79-6.54 11.59-7.93a155.13 155.13 0 0 1 5.36 32.21zm-23.19-30.75c-5 4.88-9 8.73-17.53 8.73s-12.49-3.85-17.53-8.73c-5.46-5.28-11.64-11.27-23.79-11.27s-18.34 6-23.79 11.27c-5 4.88-9 8.73-17.53 8.73s-12.49-3.85-17.53-8.73c-5.45-5.28-11.64-11.27-23.79-11.27s-18.33 6-23.79 11.27c-5 4.88-9 8.73-17.52 8.73s-12.49-3.85-17.53-8.73c-3.94-3.81-8.3-8-15-10 5-13.47 12.13-24.55 21.31-32.93 14.94-13.65 30.52-15.78 32.1-16h123.52c1.63.19 17.19 2.33 32.11 16 9.18 8.38 16.31 19.46 21.31 32.93-6.76 1.99-11.12 6.19-15.06 10z" fill="#7c5f53"/></svg>